<svg xmlns="http://www.w3.org/2000/svg" viewBox="0 0 100 100" preserveAspectRatio="xMidYMid" width="100%" height="100%" style="shape-rendering: auto; display: block; background: rgba(255, 255, 255, 0);" xmlns:xlink="http://www.w3.org/1999/xlink"><g><g transform="rotate(0 50 50)">
  <rect fill="#6cac3d" height="11" width="4" ry="1.6500000000000001" rx="1.6500000000000001" y="30.5" x="48">
    <animate repeatCount="indefinite" begin="-0.6382978723404255s" dur="0.7092198581560283s" keyTimes="0;1" values="1;0" attributeName="opacity"></animate>
  </rect>
</g><g transform="rotate(36 50 50)">
  <rect fill="#6cac3d" height="11" width="4" ry="1.6500000000000001" rx="1.6500000000000001" y="30.5" x="48">
    <animate repeatCount="indefinite" begin="-0.5673758865248226s" dur="0.7092198581560283s" keyTimes="0;1" values="1;0" attributeName="opacity"></animate>
  </rect>
</g><g transform="rotate(72 50 50)">
  <rect fill="#6cac3d" height="11" width="4" ry="1.6500000000000001" rx="1.6500000000000001" y="30.5" x="48">
    <animate repeatCount="indefinite" begin="-0.4964539007092198s" dur="0.7092198581560283s" keyTimes="0;1" values="1;0" attributeName="opacity"></animate>
  </rect>
</g><g transform="rotate(108 50 50)">
  <rect fill="#6cac3d" height="11" width="4" ry="1.6500000000000001" rx="1.6500000000000001" y="30.5" x="48">
    <animate repeatCount="indefinite" begin="-0.42553191489361697s" dur="0.7092198581560283s" keyTimes="0;1" values="1;0" attributeName="opacity"></animate>
  </rect>
</g><g transform="rotate(144 50 50)">
  <rect fill="#6cac3d" height="11" width="4" ry="1.6500000000000001" rx="1.6500000000000001" y="30.5" x="48">
    <animate repeatCount="indefinite" begin="-0.35460992907801414s" dur="0.7092198581560283s" keyTimes="0;1" values="1;0" attributeName="opacity"></animate>
  </rect>
</g><g transform="rotate(180 50 50)">
  <rect fill="#6cac3d" height="11" width="4" ry="1.6500000000000001" rx="1.6500000000000001" y="30.5" x="48">
    <animate repeatCount="indefinite" begin="-0.2836879432624113s" dur="0.7092198581560283s" keyTimes="0;1" values="1;0" attributeName="opacity"></animate>
  </rect>
</g><g transform="rotate(216 50 50)">
  <rect fill="#6cac3d" height="11" width="4" ry="1.6500000000000001" rx="1.6500000000000001" y="30.5" x="48">
    <animate repeatCount="indefinite" begin="-0.21276595744680848s" dur="0.7092198581560283s" keyTimes="0;1" values="1;0" attributeName="opacity"></animate>
  </rect>
</g><g transform="rotate(252 50 50)">
  <rect fill="#6cac3d" height="11" width="4" ry="1.6500000000000001" rx="1.6500000000000001" y="30.5" x="48">
    <animate repeatCount="indefinite" begin="-0.14184397163120566s" dur="0.7092198581560283s" keyTimes="0;1" values="1;0" attributeName="opacity"></animate>
  </rect>
</g><g transform="rotate(288 50 50)">
  <rect fill="#6cac3d" height="11" width="4" ry="1.6500000000000001" rx="1.6500000000000001" y="30.5" x="48">
    <animate repeatCount="indefinite" begin="-0.07092198581560283s" dur="0.7092198581560283s" keyTimes="0;1" values="1;0" attributeName="opacity"></animate>
  </rect>
</g><g transform="rotate(324 50 50)">
  <rect fill="#6cac3d" height="11" width="4" ry="1.6500000000000001" rx="1.6500000000000001" y="30.5" x="48">
    <animate repeatCount="indefinite" begin="0s" dur="0.7092198581560283s" keyTimes="0;1" values="1;0" attributeName="opacity"></animate>
  </rect>
</g><g></g></g><!-- [ldio] generated by https://loading.io --></svg>