<svg xmlns="http://www.w3.org/2000/svg">

  <symbol id="arrow-small" viewBox="0 0 14.0082 8.00391">
    <path d="M1 1L7 7L13 1" stroke-linejoin="round" stroke-linecap="round"/>
  </symbol>

  <symbol id="phone" viewBox="0 0 16.9997 17">
    <path d="M12.38 4.6C12.92 5.14 13.28 5.83 13.43 6.57L10.41 3.55C11.15 3.7 11.84 4.06 12.38 4.6ZM14.52 2.47C15.62 3.57 16.32 5.01 16.49 6.57L10.41 0.5C11.96 0.67 13.41 1.36 14.52 2.47ZM15.73 14.96C15.73 15.17 15.69 15.38 15.6 15.58C15.52 15.77 15.39 15.95 15.23 16.09C15.08 16.24 14.89 16.35 14.69 16.41C14.49 16.48 14.27 16.51 14.06 16.49C11.7 16.23 9.44 15.43 7.45 14.14C5.6 12.97 4.03 11.4 2.85 9.55C1.56 7.56 0.75 5.29 0.5 2.93C0.48 2.71 0.51 2.5 0.57 2.3C0.64 2.1 0.75 1.91 0.9 1.76C1.04 1.6 1.21 1.48 1.41 1.39C1.6 1.3 1.81 1.26 2.03 1.26L4.32 1.26C4.69 1.26 5.06 1.39 5.34 1.63C5.62 1.87 5.8 2.21 5.86 2.57C5.95 3.31 6.13 4.03 6.39 4.72C6.49 5 6.52 5.29 6.46 5.58C6.39 5.87 6.25 6.13 6.05 6.34L5.07 7.31C6.16 9.22 7.75 10.81 9.67 11.89L10.64 10.92C10.85 10.72 11.11 10.58 11.4 10.52C11.69 10.45 11.98 10.48 12.26 10.58C12.95 10.84 13.68 11.02 14.41 11.11C14.78 11.17 15.12 11.35 15.37 11.64C15.61 11.93 15.74 12.29 15.73 12.67L15.73 14.96Z" stroke-linejoin="round"/>
  </symbol>

  <symbol id="close" viewBox="0 0 64 64">
    <path d="M 16 14 C 15.488 14 14.976938 14.194937 14.585938 14.585938 C 13.804937 15.366937 13.804937 16.633063 14.585938 17.414062 L 29.171875 32 L 14.585938 46.585938 C 13.804938 47.366938 13.804937 48.633063 14.585938 49.414062 C 14.976937 49.805062 15.488 50 16 50 C 16.512 50 17.023062 49.805062 17.414062 49.414062 L 32 34.828125 L 46.585938 49.414062 C 47.366938 50.195063 48.633063 50.195062 49.414062 49.414062 C 50.195063 48.633062 50.195062 47.366937 49.414062 46.585938 L 34.828125 32 L 49.414062 17.414062 C 50.195063 16.633063 50.195062 15.366938 49.414062 14.585938 C 48.633062 13.804938 47.366937 13.804938 46.585938 14.585938 L 32 29.171875 L 17.414062 14.585938 C 17.023062 14.194938 16.512 14 16 14 z"/>
  </symbol>

  <symbol id="upArrowIcon" viewBox="0 0 32 32">
    <path d="M26 22a2 2 0 0 1-1.41-.59L16 12.83l-8.59 8.58a2 2 0 0 1-2.82-2.82l10-10a2 2 0 0 1 2.82 0l10 10A2 2 0 0 1 26 22Z"></path>
  </symbol>

</svg>