<svg xmlns="http://www.w3.org/2000/svg">

  <symbol id="arrow" viewBox="0 0 14 8">
    <path d="M1 1L7 7L13 1" stroke-linecap="round" stroke-linejoin="round"/>
  </symbol>

  <symbol id="arrow2" viewBox="0 0 22 44">
    <path d="M18.75 41L2.5 21.75L18.75 2.5" stroke-linecap="round" stroke-linejoin="round"/>
  </symbol>

  <symbol id="link" viewBox="0 0 18 19">
    <path d="M16.8517 0.000333316C16.8231 0.00127544 16.7946 0.00388369 16.7663 0.00814582H12.2667C12.1651 0.00664658 12.0642 0.0262316 11.9699 0.0657626C11.8757 0.105294 11.7899 0.163982 11.7175 0.238418C11.6452 0.312853 11.5877 0.401551 11.5485 0.499357C11.5093 0.597163 11.4891 0.702126 11.4891 0.808146C11.4891 0.914166 11.5093 1.01913 11.5485 1.11693C11.5877 1.21474 11.6452 1.30344 11.7175 1.37787C11.7899 1.45231 11.8757 1.511 11.9699 1.55053C12.0642 1.59006 12.1651 1.60965 12.2667 1.60815H15.0159L7.12461 9.84252C7.05103 9.91624 6.99229 10.0045 6.95182 10.1022C6.91135 10.1999 6.88997 10.3051 6.88893 10.4115C6.88789 10.518 6.90722 10.6235 6.94577 10.7221C6.98433 10.8206 7.04134 10.9101 7.11346 10.9854C7.18559 11.0607 7.27138 11.1202 7.36582 11.1604C7.46026 11.2006 7.56144 11.2208 7.66344 11.2197C7.76543 11.2186 7.8662 11.1963 7.95983 11.1541C8.05346 11.1118 8.13808 11.0506 8.20872 10.9738L16.1 2.7394V5.60815C16.0986 5.71416 16.1173 5.81941 16.1552 5.91778C16.1931 6.01615 16.2493 6.10569 16.3207 6.18119C16.392 6.25668 16.477 6.31663 16.5707 6.35755C16.6645 6.39847 16.7651 6.41954 16.8667 6.41954C16.9683 6.41954 17.0689 6.39847 17.1626 6.35755C17.2563 6.31663 17.3413 6.25668 17.4127 6.18119C17.484 6.10569 17.5402 6.01615 17.5781 5.91778C17.616 5.81941 17.6348 5.71416 17.6333 5.60815V0.909708C17.6486 0.794529 17.6396 0.67726 17.607 0.566068C17.5744 0.454877 17.519 0.352434 17.4446 0.265873C17.3702 0.179313 17.2786 0.110714 17.1762 0.0648551C17.0738 0.0189958 16.9631 -0.00302254 16.8517 0.000333316ZM1.53333 3.20815C0.695319 3.20815 0 3.9337 0 4.80815V16.8081C0 17.6826 0.695319 18.4081 1.53333 18.4081H13.0333C13.8714 18.4081 14.5667 17.6826 14.5667 16.8081V8.80815V6.74565L13.0333 8.34565V10.4081V16.8081H1.53333V4.80815H7.66667H9.2H9.64323L11.1766 3.20815H9.2H7.66667H1.53333Z"/>
  </symbol>

  <symbol id="cross" viewBox="0 0 27 27">
    <g clip-path="url(#clip0_20833_312)">
    <rect x="11" width="5" height="27"/>
    <rect y="16" width="5" height="27" transform="rotate(-90 0 16)"/>
    </g>
    <defs>
    <clipPath id="clip0_20833_312">
    <rect width="27" height="27"/>
    </clipPath>
    </defs>
  </symbol>

  <symbol id="facebook" viewBox="0 0 12 21.5">
    <path fill-rule="evenodd" clip-rule="evenodd" d="M0.0105896 10.0126H3.60681V18.8896C3.60057 19.0368 3.62731 19.1837 3.68534 19.3209C3.74337 19.4581 3.83145 19.5828 3.94403 19.687C4.05661 19.7912 4.19127 19.8728 4.33953 19.9265C4.48779 19.9802 4.64645 20.005 4.80554 19.9992H7.20302C7.18504 19.9992 7.20302 10.0126 7.20302 10.0126H10.7992C10.7141 10.0126 12.0591 6.68377 11.998 6.68377H7.20302V4.46453C7.17633 4.31323 7.1889 4.15824 7.2397 4.01233C7.2905 3.86641 7.37807 3.73374 7.49518 3.62534C7.61229 3.51694 7.75558 3.43587 7.91321 3.38884C8.07085 3.34182 8.23831 3.3302 8.40176 3.35491C8.60075 3.35491 10.87 3.36157 10.7992 3.35491C10.9994 3.35491 10.9814 3.33827 11.998 3.35491V0.714017C11.998 -0.205856 10.9994 0.0260593 10.7992 0.0260593H7.20302C7.71129 0.0260593 5.52479 0.274614 4.80554 1.13568C4.12162 1.71162 3.69421 2.50288 3.60681 3.35491V6.68377H0.0105896C-0.0169814 6.65714 0.0189807 10.0126 0.0105896 10.0126Z"/>
  </symbol>

  <symbol id="instagram" viewBox="0 0 23 22">
    <path fill-rule="evenodd" clip-rule="evenodd" d="M16.0661 0H6.02479C4.45686 0.0917886 2.97719 0.756037 1.8666 1.86663C0.756009 2.97722 0.0917886 4.45686 0 6.02479V16.0661C0.0917886 17.634 0.756009 19.1137 1.8666 20.2243C2.97719 21.3349 4.45686 21.9991 6.02479 22.0909H16.0661C17.6341 21.9993 19.1139 21.3352 20.2245 20.2245C21.3352 19.1139 21.9993 17.6341 22.0909 16.0661V6.02479C21.9993 4.45679 21.3352 2.97702 20.2245 1.86638C19.1139 0.755749 17.6341 0.0915737 16.0661 0ZM20.0826 16.0661C20.0338 17.1156 19.5949 18.1091 18.852 18.852C18.1091 19.5949 17.1156 20.0338 16.0661 20.0826H6.02479C4.9753 20.0338 3.98184 19.5949 3.23893 18.852C2.49602 18.1091 2.05716 17.1156 2.00826 16.0661V6.02479C2.05716 4.9753 2.49602 3.98183 3.23893 3.23891C3.98184 2.496 4.9753 2.05716 6.02479 2.00826H16.0661C17.1156 2.05716 18.1091 2.496 18.852 3.23891C19.5949 3.98183 20.0338 4.9753 20.0826 6.02479V16.0661ZM11.0455 5.02066C9.85386 5.02066 8.68903 5.374 7.69826 6.03601C6.70749 6.69802 5.93527 7.639 5.47927 8.73989C5.02327 9.84077 4.90396 11.0521 5.13643 12.2208C5.36889 13.3895 5.9427 14.463 6.78528 15.3056C7.62786 16.1482 8.70138 16.722 9.87007 16.9545C11.0388 17.1869 12.2502 17.0676 13.351 16.6116C14.4519 16.1556 15.3929 15.3834 16.0549 14.3927C16.7169 13.4019 17.0702 12.237 17.0702 11.0455C17.0702 9.44758 16.4355 7.91518 15.3056 6.78531C14.1758 5.65544 12.6433 5.02066 11.0455 5.02066ZM11.1268 15.053C10.5926 15.0649 10.0613 14.97 9.56431 14.7738C9.06727 14.5776 8.61443 14.2842 8.23238 13.9106C7.85034 13.537 7.54678 13.0908 7.33953 12.5983C7.13229 12.1058 7.02553 11.5768 7.02553 11.0425C7.02553 10.5081 7.13229 9.97914 7.33953 9.48661C7.54678 8.99409 7.85034 8.54792 8.23238 8.17433C8.61443 7.80073 9.06727 7.50721 9.56431 7.31103C10.0613 7.11486 10.5926 7.01997 11.1268 7.03193C12.1907 7.03206 13.211 7.45484 13.9632 8.20724C14.7154 8.95963 15.1379 9.98 15.1378 11.0439C15.1377 12.1078 14.7149 13.1282 13.9625 13.8804C13.2101 14.6326 12.1897 15.0551 11.1258 15.0549L11.1268 15.053ZM16.5802 4.00752C16.232 4.00837 15.8948 4.12985 15.626 4.35134C15.3572 4.57284 15.1735 4.88061 15.1062 5.2223C15.0388 5.56399 15.0919 5.91852 15.2565 6.22545C15.4211 6.53238 15.6869 6.77276 16.0088 6.90574C16.3307 7.03872 16.6887 7.05604 17.0219 6.95477C17.3551 6.8535 17.643 6.63989 17.8364 6.35029C18.0298 6.06069 18.117 5.71304 18.0829 5.36644C18.0489 5.01985 17.8957 4.69576 17.6496 4.44934C17.3635 4.17012 16.979 4.01463 16.5792 4.01653L16.5802 4.00752Z"/>
  </symbol>

  <symbol id="telegram" viewBox="0 0 22 22">
    <path d="M11 22C17.0656 22 22 17.0656 22 11C22 4.93442 17.0656 0 11 0C4.93442 0 0 4.93442 0 11C0 17.0656 4.93442 22 11 22ZM11 1.375C16.3075 1.375 20.625 5.6925 20.625 11C20.625 16.3075 16.3075 20.625 11 20.625C5.6925 20.625 1.375 16.3075 1.375 11C1.375 5.6925 5.6925 1.375 11 1.375Z"/>
    <path d="M7.23797 12.9749L8.6753 12.3506L8.27197 12.7549C8.14272 12.8841 8.0703 13.0592 8.0703 13.2407V15.9311C8.0703 16.5471 8.81463 16.8459 9.24363 16.4169L10.6865 14.9741L13.8306 16.5462C14.2376 16.7497 14.7299 16.5086 14.8142 16.0539L16.6081 6.18969C16.7026 5.65894 16.1801 5.22994 15.6805 5.4261L4.02413 9.98835C3.50163 10.1919 3.43197 10.9069 3.90497 11.2084L6.59447 12.9244C6.78697 13.0473 7.02988 13.0665 7.23797 12.9749ZM15.0351 7.15677L13.6262 14.9072L10.8579 13.5239C10.5902 13.3901 10.2712 13.446 10.065 13.6532L9.4453 14.2729V13.5276L12.2017 10.7712C12.7361 10.2368 12.1348 9.35494 11.4418 9.65469L7.02622 11.5705L5.78505 10.7785L15.0351 7.15677Z"/>
  </symbol>

  <symbol id="twitter" viewBox="0 0 20 21">
    <path d="M0 0L7.27619 11.2674L0.382536 20H3.09033L8.48788 13.1445L12.9141 20H20L12.3893 8.19444L18.8404 0H16.1746L11.1817 6.31944L7.10795 0H0ZM3.93751 2.22222H6.03845L16.0645 17.7778H13.9816L3.93751 2.22222Z"/>
  </symbol>

</svg>