<svg xmlns="http://www.w3.org/2000/svg">

  <symbol id="arrow-small" viewBox="0 0 15 8">
    <path d="M1.54816 1L7.54816 7L13.5482 1" stroke-linecap="round" stroke-linejoin="round"/>
  </symbol>

  <symbol id="phone" viewBox="0 0 16.9997 17">
    <path d="M12.38 4.6C12.92 5.14 13.28 5.83 13.43 6.57L10.41 3.55C11.15 3.7 11.84 4.06 12.38 4.6ZM14.52 2.47C15.62 3.57 16.32 5.01 16.49 6.57L10.41 0.5C11.96 0.67 13.41 1.36 14.52 2.47ZM15.73 14.96C15.73 15.17 15.69 15.38 15.6 15.58C15.52 15.77 15.39 15.95 15.23 16.09C15.08 16.24 14.89 16.35 14.69 16.41C14.49 16.48 14.27 16.51 14.06 16.49C11.7 16.23 9.44 15.43 7.45 14.14C5.6 12.97 4.03 11.4 2.85 9.55C1.56 7.56 0.75 5.29 0.5 2.93C0.48 2.71 0.51 2.5 0.57 2.3C0.64 2.1 0.75 1.91 0.9 1.76C1.04 1.6 1.21 1.48 1.41 1.39C1.6 1.3 1.81 1.26 2.03 1.26L4.32 1.26C4.69 1.26 5.06 1.39 5.34 1.63C5.62 1.87 5.8 2.21 5.86 2.57C5.95 3.31 6.13 4.03 6.39 4.72C6.49 5 6.52 5.29 6.46 5.58C6.39 5.87 6.25 6.13 6.05 6.34L5.07 7.31C6.16 9.22 7.75 10.81 9.67 11.89L10.64 10.92C10.85 10.72 11.11 10.58 11.4 10.52C11.69 10.45 11.98 10.48 12.26 10.58C12.95 10.84 13.68 11.02 14.41 11.11C14.78 11.17 15.12 11.35 15.37 11.64C15.61 11.93 15.74 12.29 15.73 12.67L15.73 14.96Z" stroke-linejoin="round"/>
  </symbol>

  <symbol id="close" viewBox="0 0 64 64">
    <path d="M 16 14 C 15.488 14 14.976938 14.194937 14.585938 14.585938 C 13.804937 15.366937 13.804937 16.633063 14.585938 17.414062 L 29.171875 32 L 14.585938 46.585938 C 13.804938 47.366938 13.804937 48.633063 14.585938 49.414062 C 14.976937 49.805062 15.488 50 16 50 C 16.512 50 17.023062 49.805062 17.414062 49.414062 L 32 34.828125 L 46.585938 49.414062 C 47.366938 50.195063 48.633063 50.195062 49.414062 49.414062 C 50.195063 48.633062 50.195062 47.366937 49.414062 46.585938 L 34.828125 32 L 49.414062 17.414062 C 50.195063 16.633063 50.195062 15.366938 49.414062 14.585938 C 48.633062 13.804938 47.366937 13.804938 46.585938 14.585938 L 32 29.171875 L 17.414062 14.585938 C 17.023062 14.194938 16.512 14 16 14 z"/>
  </symbol>

  <symbol id="upArrowIcon" viewBox="0 0 32 32">
    <path d="M26 22a2 2 0 0 1-1.41-.59L16 12.83l-8.59 8.58a2 2 0 0 1-2.82-2.82l10-10a2 2 0 0 1 2.82 0l10 10A2 2 0 0 1 26 22Z"></path>
  </symbol>

  <symbol id="bigArrow" viewBox="0 0 23 45">
    <path d="M3.375 41.75L19.625 22.5L3.375 3.25" stroke-linecap="round" stroke-linejoin="round"/>
  </symbol>

  <symbol id="pauseIcon" viewBox="0 0 512 512">
    <path d="M224,435.8V76.1c0-6.7-5.4-12.1-12.2-12.1h-71.6c-6.8,0-12.2,5.4-12.2,12.1v359.7c0,6.7,5.4,12.2,12.2,12.2h71.6   C218.6,448,224,442.6,224,435.8z"/>
    <path d="M371.8,64h-71.6c-6.7,0-12.2,5.4-12.2,12.1v359.7c0,6.7,5.4,12.2,12.2,12.2h71.6c6.7,0,12.2-5.4,12.2-12.2V76.1   C384,69.4,378.6,64,371.8,64z"/>
  </symbol>

  <symbol id="playIcon" viewBox="0 0 139 139">
    <path d="M117.037,61.441L36.333,14.846c-2.467-1.424-5.502-1.424-7.972,0c-2.463,1.423-3.982,4.056-3.982,6.903v93.188  c0,2.848,1.522,5.479,3.982,6.9c1.236,0.713,2.61,1.067,3.986,1.067c1.374,0,2.751-0.354,3.983-1.067l80.704-46.594  c2.466-1.422,3.984-4.054,3.984-6.9C121.023,65.497,119.502,62.866,117.037,61.441z"/>
  </symbol>

  <symbol id="linkIcon" viewBox="0 0 30 30">
    <path d="M 25.980469 2.9902344 A 1.0001 1.0001 0 0 0 25.869141 3 L 20 3 A 1.0001 1.0001 0 1 0 20 5 L 23.585938 5 L 13.292969 15.292969 A 1.0001 1.0001 0 1 0 14.707031 16.707031 L 25 6.4140625 L 25 10 A 1.0001 1.0001 0 1 0 27 10 L 27 4.1269531 A 1.0001 1.0001 0 0 0 25.980469 2.9902344 z M 6 7 C 4.9069372 7 4 7.9069372 4 9 L 4 24 C 4 25.093063 4.9069372 26 6 26 L 21 26 C 22.093063 26 23 25.093063 23 24 L 23 14 L 23 11.421875 L 21 13.421875 L 21 16 L 21 24 L 6 24 L 6 9 L 14 9 L 16 9 L 16.578125 9 L 18.578125 7 L 16 7 L 14 7 L 6 7 z"/>
  </symbol>

  <symbol id="twitterIcon" viewBox="0 0 18 16">
    <path d="M0 0L6.54857 9.01389L0.344282 16H2.78129L7.63909 10.5156L11.6227 16H18L11.1504 6.55556L16.9563 0H14.5572L10.0635 5.05556L6.39716 0H0ZM3.54376 1.77778H5.43461L14.458 14.2222H12.5834L3.54376 1.77778Z"/>
  </symbol>

  <symbol id="telegramIcon" viewBox="0 0 18 18">
    <path d="M9 18C13.9628 18 18 13.9628 18 9C18 4.03725 13.9628 0 9 0C4.03725 0 0 4.03725 0 9C0 13.9628 4.03725 18 9 18ZM9 1.125C13.3425 1.125 16.875 4.6575 16.875 9C16.875 13.3425 13.3425 16.875 9 16.875C4.6575 16.875 1.125 13.3425 1.125 9C1.125 4.6575 4.6575 1.125 9 1.125Z"/>
    <path d="M5.92197 10.6158L7.09797 10.105L6.76797 10.4358C6.66222 10.5415 6.60297 10.6848 6.60297 10.8333V13.0345C6.60297 13.5385 7.21197 13.783 7.56297 13.432L8.74347 12.2515L11.316 13.5378C11.649 13.7043 12.0517 13.507 12.1207 13.135L13.5885 5.06427C13.6657 4.63002 13.2382 4.27902 12.8295 4.43952L3.29247 8.17227C2.86497 8.33877 2.80797 8.92377 3.19497 9.17052L5.39547 10.5745C5.55297 10.675 5.75172 10.6908 5.92197 10.6158ZM12.3015 5.85552L11.1487 12.1968L8.88372 11.065C8.66472 10.9555 8.40372 11.0013 8.23497 11.1708L7.72797 11.6778V11.068L9.98322 8.81277C10.4205 8.37552 9.92847 7.65402 9.36147 7.89927L5.74872 9.46677L4.73322 8.81877L12.3015 5.85552Z"/>
  </symbol>

  <symbol id="instagramIcon" viewBox="0 0 18 18">
    <path fill-rule="evenodd" clip-rule="evenodd" d="M13.0909 0H4.90909C3.63152 0.0747907 2.42586 0.61603 1.52093 1.52096C0.616007 2.42588 0.0747907 3.63152 0 4.90909V13.0909C0.0747907 14.3685 0.616007 15.5741 1.52093 16.479C2.42586 17.384 3.63152 17.9252 4.90909 18H13.0909C14.3685 17.9254 15.5743 17.3842 16.4793 16.4792C17.3842 15.5743 17.9254 14.3685 18 13.0909V4.90909C17.9254 3.63146 17.3842 2.42572 16.4793 1.52076C15.5743 0.615795 14.3685 0.0746156 13.0909 0ZM16.3636 13.0909C16.3238 13.9461 15.9662 14.7555 15.3609 15.3609C14.7555 15.9662 13.9461 16.3238 13.0909 16.3636H4.90909C4.05395 16.3238 3.24446 15.9662 2.63913 15.3609C2.03379 14.7555 1.6762 13.9461 1.63636 13.0909V4.90909C1.6762 4.05395 2.03379 3.24445 2.63913 2.63912C3.24446 2.03378 4.05395 1.6762 4.90909 1.63636H13.0909C13.9461 1.6762 14.7555 2.03378 15.3609 2.63912C15.9662 3.24445 16.3238 4.05395 16.3636 4.90909V13.0909ZM9 4.09091C8.02907 4.09091 7.07995 4.37881 6.27266 4.91823C5.46536 5.45765 4.83615 6.22437 4.46459 7.12139C4.09303 8.01841 3.99582 9.00544 4.18524 9.95771C4.37465 10.91 4.8422 11.7847 5.52875 12.4712C6.2153 13.1578 7.09001 13.6253 8.04228 13.8148C8.99455 14.0042 9.98161 13.907 10.8786 13.5354C11.7756 13.1638 12.5423 12.5347 13.0818 11.7274C13.6212 10.9201 13.9091 9.97093 13.9091 9C13.9091 7.69803 13.3919 6.4494 12.4713 5.52877C11.5506 4.60814 10.302 4.09091 9 4.09091ZM9.06627 12.2654C8.63098 12.2751 8.19813 12.1978 7.79314 12.0379C7.38814 11.8781 7.01917 11.639 6.70787 11.3345C6.39657 11.0301 6.14923 10.6666 5.98036 10.2653C5.81149 9.86396 5.72451 9.43295 5.72451 8.99755C5.72451 8.56215 5.81149 8.13115 5.98036 7.72983C6.14923 7.32851 6.39657 6.96497 6.70787 6.66056C7.01917 6.35615 7.38814 6.11698 7.79314 5.95714C8.19813 5.79729 8.63098 5.71998 9.06627 5.72972C9.93317 5.72983 10.7645 6.07431 11.3774 6.68738C11.9903 7.30044 12.3346 8.13186 12.3345 8.99875C12.3344 9.86565 11.9899 10.697 11.3768 11.3099C10.7638 11.9228 9.93235 12.2671 9.06546 12.267L9.06627 12.2654ZM13.5098 3.26539C13.226 3.26608 12.9513 3.36506 12.7323 3.54554C12.5133 3.72601 12.3636 3.97679 12.3087 4.2552C12.2538 4.53362 12.2971 4.82249 12.4312 5.07259C12.5653 5.32268 12.7819 5.51854 13.0442 5.6269C13.3065 5.73525 13.5982 5.74937 13.8697 5.66685C14.1412 5.58433 14.3757 5.41028 14.5334 5.17431C14.691 4.93834 14.762 4.65507 14.7342 4.37266C14.7065 4.09024 14.5817 3.82617 14.3812 3.62539C14.148 3.39787 13.8348 3.27118 13.509 3.27273L13.5098 3.26539Z"/>
  </symbol>

  <symbol id="facebookIcon" viewBox="0 0 8 14">
    <path d="M0.00705971 7.00883H2.40454V13.2227C2.40038 13.3258 2.4182 13.4286 2.45689 13.5246C2.49558 13.6207 2.5543 13.708 2.62935 13.7809C2.70441 13.8539 2.79418 13.911 2.89302 13.9486C2.99186 13.9862 3.09763 14.0035 3.2037 13.9994H4.80201C4.79003 13.9994 4.80201 7.00883 4.80201 7.00883H7.19949C7.14275 7.00883 8.03941 4.67864 7.99865 4.67864H4.80201V3.12517C4.78422 3.01926 4.7926 2.91077 4.82647 2.80863C4.86033 2.70649 4.91871 2.61362 4.99679 2.53774C5.07486 2.46186 5.17039 2.40511 5.27548 2.37219C5.38057 2.33927 5.4922 2.33114 5.60117 2.34844C5.73383 2.34844 7.24664 2.3531 7.19949 2.34844C7.33295 2.34844 7.32096 2.33679 7.99865 2.34844V0.499812C7.99865 -0.144099 7.33295 0.0182415 7.19949 0.0182415H4.80201C5.14086 0.0182415 3.68319 0.19223 3.2037 0.794974C2.74775 1.19813 2.46281 1.75202 2.40454 2.34844V4.67864H0.00705971C-0.0113209 4.65999 0.0126538 7.00883 0.00705971 7.00883Z"/>
  </symbol>

</svg>