<svg xmlns="http://www.w3.org/2000/svg">

  <symbol id="arrow" viewBox="0 0 14 8">
    <path d="M1 1L7 7L13 1" stroke-linecap="round" stroke-linejoin="round"/>
  </symbol>

  <symbol id="arrow2" viewBox="0 0 22 44">
    <path d="M18.75 41L2.5 21.75L18.75 2.5" stroke-linecap="round" stroke-linejoin="round"/>
  </symbol>

  <symbol id="link" viewBox="0 0 18 19">
    <path d="M16.8517 0.000333316C16.8231 0.00127544 16.7946 0.00388369 16.7663 0.00814582H12.2667C12.1651 0.00664658 12.0642 0.0262316 11.9699 0.0657626C11.8757 0.105294 11.7899 0.163982 11.7175 0.238418C11.6452 0.312853 11.5877 0.401551 11.5485 0.499357C11.5093 0.597163 11.4891 0.702126 11.4891 0.808146C11.4891 0.914166 11.5093 1.01913 11.5485 1.11693C11.5877 1.21474 11.6452 1.30344 11.7175 1.37787C11.7899 1.45231 11.8757 1.511 11.9699 1.55053C12.0642 1.59006 12.1651 1.60965 12.2667 1.60815H15.0159L7.12461 9.84252C7.05103 9.91624 6.99229 10.0045 6.95182 10.1022C6.91135 10.1999 6.88997 10.3051 6.88893 10.4115C6.88789 10.518 6.90722 10.6235 6.94577 10.7221C6.98433 10.8206 7.04134 10.9101 7.11346 10.9854C7.18559 11.0607 7.27138 11.1202 7.36582 11.1604C7.46026 11.2006 7.56144 11.2208 7.66344 11.2197C7.76543 11.2186 7.8662 11.1963 7.95983 11.1541C8.05346 11.1118 8.13808 11.0506 8.20872 10.9738L16.1 2.7394V5.60815C16.0986 5.71416 16.1173 5.81941 16.1552 5.91778C16.1931 6.01615 16.2493 6.10569 16.3207 6.18119C16.392 6.25668 16.477 6.31663 16.5707 6.35755C16.6645 6.39847 16.7651 6.41954 16.8667 6.41954C16.9683 6.41954 17.0689 6.39847 17.1626 6.35755C17.2563 6.31663 17.3413 6.25668 17.4127 6.18119C17.484 6.10569 17.5402 6.01615 17.5781 5.91778C17.616 5.81941 17.6348 5.71416 17.6333 5.60815V0.909708C17.6486 0.794529 17.6396 0.67726 17.607 0.566068C17.5744 0.454877 17.519 0.352434 17.4446 0.265873C17.3702 0.179313 17.2786 0.110714 17.1762 0.0648551C17.0738 0.0189958 16.9631 -0.00302254 16.8517 0.000333316ZM1.53333 3.20815C0.695319 3.20815 0 3.9337 0 4.80815V16.8081C0 17.6826 0.695319 18.4081 1.53333 18.4081H13.0333C13.8714 18.4081 14.5667 17.6826 14.5667 16.8081V8.80815V6.74565L13.0333 8.34565V10.4081V16.8081H1.53333V4.80815H7.66667H9.2H9.64323L11.1766 3.20815H9.2H7.66667H1.53333Z"/>
  </symbol>

  <symbol id="cross" viewBox="0 0 27 27">
    <g clip-path="url(#clip0_20833_312)">
    <rect x="11" width="5" height="27"/>
    <rect y="16" width="5" height="27" transform="rotate(-90 0 16)"/>
    </g>
    <defs>
    <clipPath id="clip0_20833_312">
    <rect width="27" height="27"/>
    </clipPath>
    </defs>
  </symbol>
  


</svg>

</svg>