<svg width="20" height="30" viewBox="0 0 20 30" fill="none" xmlns="http://www.w3.org/2000/svg">
<path d="M4.70588 0V3.46154H0V26.5385H4.70588V30H7.05882V26.5385H9.41177V30H11.7647V26.5385H13.5294C17.091 26.5385 20 23.6854 20 20.1923C20 17.79 18.6351 15.6806 16.6176 14.6034C17.9779 13.436 18.8235 11.7097 18.8235 9.80769C18.8235 6.3146 15.9145 3.46154 12.3529 3.46154H11.7647V0H9.41177V3.46154H7.05882V0H4.70588ZM2.35294 5.76923H12.3529C14.6415 5.76923 16.4706 7.5631 16.4706 9.80769C16.4706 12.0523 14.6415 13.8462 12.3529 13.8462H2.35294V5.76923ZM2.35294 16.1538H13.5294C15.818 16.1538 17.6471 17.9477 17.6471 20.1923C17.6471 22.4369 15.818 24.2308 13.5294 24.2308H2.35294V16.1538Z" fill="white"/>
</svg>
