<svg width="28" height="30" viewBox="0 0 28 30" fill="none" xmlns="http://www.w3.org/2000/svg">
<g clip-path="url(#clip0_21184_2847)">
<path d="M26.6649 17.5719H26.2459V13.5281C26.2459 12.8879 25.9485 12.321 25.4943 11.9766V11.426C25.4943 10.6273 24.8879 9.97756 24.1424 9.97756H23.8296L25.0266 8.09553C25.4279 7.46471 25.2753 6.60168 24.6865 6.17172L16.5637 0.240864C16.2785 0.0325632 15.9348 -0.0443118 15.5955 0.024653C15.2564 0.0935007 14.9625 0.299692 14.7682 0.605317L7.75717 11.6281H5.8062L6.27689 6.52288C6.2822 6.46534 6.31709 6.41547 6.36576 6.39584C6.97219 6.15086 7.49774 5.69336 7.84555 5.10766C7.87295 5.06155 7.92463 5.03518 7.97811 5.04098L11.0381 5.36489C11.2576 5.38768 11.4527 5.21647 11.4744 4.98151C11.496 4.74655 11.3359 4.53731 11.1166 4.51411L8.05653 4.1902C7.70134 4.15293 7.3626 4.32831 7.17229 4.6487C6.91657 5.07936 6.53015 5.41569 6.08428 5.59581C5.74867 5.73139 5.51821 6.05436 5.48278 6.43879L5.00437 11.6281H4.49561L5.24002 3.55364C5.26681 3.26301 5.50892 3.0495 5.78049 3.07862L11.9642 3.73311C12.1835 3.75579 12.3788 3.58469 12.4005 3.34973C12.4221 3.11477 12.2619 2.90553 12.0427 2.88233L5.85892 2.22784C5.14995 2.15289 4.51595 2.70983 4.4459 3.46956L3.84587 9.97756H2.82403C2.07864 9.97756 1.47216 10.6273 1.47216 11.426V11.8016C0.862338 12.1024 0.437744 12.7629 0.437744 13.5281V28.1C0.437744 29.1477 1.23323 30 2.2111 30H24.4726C25.4504 30 26.2459 29.1477 26.2459 28.1V24.0562H26.6649C27.1595 24.0562 27.5618 23.6252 27.5618 23.0953V18.5329C27.5619 18.003 27.1595 17.5719 26.6649 17.5719ZM24.1424 10.8326C24.4479 10.8325 24.6964 11.0988 24.6964 11.4261V11.6439C24.623 11.6339 24.5484 11.6282 24.4726 11.6282H22.7797L23.2857 10.8326H24.1424ZM15.4275 1.08672C15.5019 0.969829 15.6143 0.890962 15.744 0.864594C15.775 0.858325 15.8061 0.855161 15.837 0.855161C15.9353 0.855161 16.0313 0.886684 16.1144 0.94727L24.2371 6.87813C24.4623 7.0426 24.5208 7.37272 24.3673 7.61401L21.8142 11.628H21.2014L22.4532 9.66004C22.6562 9.34088 22.6729 8.93471 22.4967 8.59996C22.2625 8.15524 22.1676 7.63159 22.2294 7.1254C22.2753 6.74881 22.1207 6.3812 21.8258 6.16592L17.615 3.09139C17.32 2.87606 16.9441 2.85631 16.6338 3.03989C16.2168 3.28657 15.7272 3.38342 15.2553 3.31264C14.9053 3.26002 14.5503 3.42936 14.3503 3.74372L9.33551 11.6281H8.72279L15.4275 1.08672ZM15.6032 8.34596C13.8658 8.34596 12.4395 9.7975 12.3233 11.6281H10.301L15.0096 4.22518C15.0096 4.22518 15.0096 4.22518 15.0096 4.22518C15.0364 4.18305 15.0807 4.15797 15.1263 4.15797C15.1323 4.15797 15.1384 4.15844 15.1445 4.15932C15.7864 4.25553 16.4522 4.12393 17.0194 3.78836C17.0641 3.76188 17.1214 3.76569 17.1656 3.79791L21.3764 6.8725C21.4205 6.90473 21.4447 6.96051 21.4382 7.01465C21.3541 7.70307 21.4833 8.41522 21.8017 9.02002C21.8273 9.0686 21.8242 9.13082 21.7939 9.17858L20.2359 11.628H18.8833C18.767 9.7975 17.3408 8.34596 15.6032 8.34596ZM18.0832 11.6281H13.1233C13.2376 10.2694 14.3059 9.20096 15.6032 9.20096C16.9007 9.2009 17.969 10.2694 18.0832 11.6281ZM2.2701 11.426C2.2701 11.0987 2.51855 10.8324 2.82403 10.8324H3.76706L3.69373 11.6281H2.2701V11.426ZM1.23569 13.5281C1.23569 12.9518 1.67324 12.483 2.2111 12.483H24.4726C25.0104 12.483 25.4479 12.9518 25.4479 13.5281V14.7142H1.23569V13.5281ZM25.4479 28.1C25.4479 28.6762 25.0104 29.145 24.4726 29.145H2.2111C1.67324 29.145 1.23569 28.6762 1.23569 28.1V26.9139H3.38721C3.6076 26.9139 3.78615 26.7225 3.78615 26.4864C3.78615 26.2503 3.60754 26.059 3.38721 26.059H1.23569V15.5692H25.4479V17.5719H21.6545H21.6544C20.4592 17.5719 19.4238 18.3184 18.9325 19.3989C18.9308 19.4025 18.929 19.4061 18.9273 19.4097C18.9231 19.4189 18.9195 19.4284 18.9154 19.4377C18.8569 19.5709 18.8061 19.7088 18.7647 19.851C18.7646 19.8514 18.7645 19.8518 18.7643 19.8522C18.676 20.1562 18.6284 20.4793 18.6284 20.8141C18.6284 22.6018 19.9858 24.0562 21.6544 24.0562H21.6544H25.4479V26.059H5.94188C5.72149 26.059 5.54293 26.2503 5.54293 26.4864C5.54293 26.7225 5.72154 26.9139 5.94188 26.9139H25.4479V28.1ZM26.7639 23.0952C26.7639 23.1537 26.7195 23.2013 26.6649 23.2013H21.6545C20.8099 23.2013 20.0735 22.6951 19.6957 21.951C19.6786 21.9172 19.6621 21.8829 19.6465 21.8481C19.6151 21.7786 19.5868 21.7072 19.5619 21.634C19.4742 21.3782 19.4264 21.102 19.4264 20.8141C19.4264 20.5261 19.4743 20.2499 19.5619 19.9941C19.5869 19.921 19.6152 19.8496 19.6465 19.78C19.6621 19.7453 19.6786 19.7109 19.6957 19.6771C20.0735 18.933 20.8099 18.4268 21.6545 18.4268H26.6649C26.7195 18.4268 26.7639 18.4744 26.7639 18.5329V23.0952Z" fill="white"/>
<path d="M21.748 19.0798C20.8554 19.0798 20.1292 19.8579 20.1292 20.8142C20.1292 21.7705 20.8554 22.5485 21.748 22.5485C22.6406 22.5485 23.3667 21.7705 23.3667 20.8142C23.3667 19.8579 22.6406 19.0798 21.748 19.0798ZM21.748 21.6936C21.2954 21.6936 20.9272 21.2991 20.9272 20.8142C20.9272 20.3293 21.2954 19.9348 21.748 19.9348C22.2006 19.9348 22.5688 20.3293 22.5688 20.8142C22.5688 21.2991 22.2006 21.6936 21.748 21.6936Z" fill="white"/>
</g>
<defs>
<clipPath id="clip0_21184_2847">
<rect width="28" height="30" fill="white"/>
</clipPath>
</defs>
</svg>
