<svg width="12" height="20" viewBox="0 0 12 20" fill="none" xmlns="http://www.w3.org/2000/svg">
<path fill-rule="evenodd" clip-rule="evenodd" d="M0.0105896 10.0126H3.60681V18.8896C3.60057 19.0368 3.62731 19.1837 3.68534 19.3209C3.74337 19.4581 3.83145 19.5828 3.94403 19.687C4.05661 19.7912 4.19127 19.8728 4.33953 19.9265C4.48779 19.9802 4.64645 20.005 4.80554 19.9992H7.20302C7.18504 19.9992 7.20302 10.0126 7.20302 10.0126H10.7992C10.7141 10.0126 12.0591 6.68377 11.998 6.68377H7.20302V4.46453C7.17633 4.31323 7.1889 4.15824 7.2397 4.01233C7.2905 3.86641 7.37807 3.73374 7.49518 3.62534C7.61229 3.51694 7.75558 3.43587 7.91321 3.38884C8.07085 3.34182 8.23831 3.3302 8.40176 3.35491C8.60075 3.35491 10.87 3.36157 10.7992 3.35491C10.9994 3.35491 10.9814 3.33827 11.998 3.35491V0.714017C11.998 -0.205856 10.9994 0.0260593 10.7992 0.0260593H7.20302C7.71129 0.0260593 5.52479 0.274614 4.80554 1.13568C4.12162 1.71162 3.69421 2.50288 3.60681 3.35491V6.68377H0.0105896C-0.0169814 6.65714 0.0189807 10.0126 0.0105896 10.0126Z" fill="white"/>
</svg>
