<svg width="22" height="22" viewBox="0 0 22 22" fill="none" xmlns="http://www.w3.org/2000/svg">
<path d="M13.399 4.83333C14.3351 5.01596 15.1953 5.47375 15.8697 6.1481C16.544 6.82246 17.0018 7.68271 17.1844 8.61875L13.399 4.83333ZM13.399 1C15.3438 1.21604 17.1572 2.08692 18.5417 3.46963C19.9261 4.85235 20.7993 6.66472 21.0178 8.60917L13.399 1ZM20.0594 16.2567V19.1317C20.0605 19.3986 20.0059 19.6627 19.8989 19.9073C19.792 20.1518 19.6352 20.3714 19.4385 20.5518C19.2418 20.7322 19.0097 20.8696 18.7568 20.9551C18.504 21.0406 18.2361 21.0724 17.9703 21.0483C15.0213 20.7279 12.1887 19.7202 9.69986 18.1063C7.38436 16.6349 5.42123 14.6717 3.94986 12.3563C2.33026 9.85615 1.32234 7.0097 1.00778 4.0475C0.98383 3.78249 1.01533 3.5154 1.10026 3.26322C1.18519 3.01105 1.3217 2.77933 1.5011 2.5828C1.68049 2.38628 1.89884 2.22926 2.14224 2.12175C2.38565 2.01424 2.64877 1.95858 2.91486 1.95833H5.78986C6.25495 1.95376 6.70583 2.11845 7.05847 2.42172C7.4111 2.72499 7.64144 3.14614 7.70653 3.60667C7.82788 4.52673 8.05292 5.43011 8.37736 6.29958C8.5063 6.64259 8.5342 7.01538 8.45777 7.37376C8.38134 7.73214 8.20377 8.06111 7.94611 8.32167L6.72903 9.53875C8.09327 11.938 10.0798 13.9245 12.479 15.2887L13.6961 14.0717C13.9567 13.814 14.2856 13.6364 14.644 13.56C15.0024 13.4836 15.3752 13.5115 15.7182 13.6404C16.5877 13.9649 17.491 14.1899 18.4111 14.3113C18.8766 14.3769 19.3018 14.6114 19.6057 14.9701C19.9096 15.3288 20.0711 15.7867 20.0594 16.2567Z" stroke="#6CAC3D" stroke-width="1.5" stroke-linecap="round" stroke-linejoin="round"/>
</svg>
