<svg width="23" height="23" viewBox="0 0 23 23" fill="none" xmlns="http://www.w3.org/2000/svg">
<path fill-rule="evenodd" clip-rule="evenodd" d="M16.0661 0H6.02479C4.45686 0.0917886 2.97719 0.756037 1.8666 1.86663C0.756009 2.97722 0.0917886 4.45686 0 6.02479V16.0661C0.0917886 17.634 0.756009 19.1137 1.8666 20.2243C2.97719 21.3349 4.45686 21.9991 6.02479 22.0909H16.0661C17.6341 21.9993 19.1139 21.3352 20.2245 20.2245C21.3352 19.1139 21.9993 17.6341 22.0909 16.0661V6.02479C21.9993 4.45679 21.3352 2.97702 20.2245 1.86638C19.1139 0.755749 17.6341 0.0915737 16.0661 0ZM20.0826 16.0661C20.0338 17.1156 19.5949 18.1091 18.852 18.852C18.1091 19.5949 17.1156 20.0338 16.0661 20.0826H6.02479C4.9753 20.0338 3.98184 19.5949 3.23893 18.852C2.49602 18.1091 2.05716 17.1156 2.00826 16.0661V6.02479C2.05716 4.9753 2.49602 3.98183 3.23893 3.23891C3.98184 2.496 4.9753 2.05716 6.02479 2.00826H16.0661C17.1156 2.05716 18.1091 2.496 18.852 3.23891C19.5949 3.98183 20.0338 4.9753 20.0826 6.02479V16.0661ZM11.0455 5.02066C9.85386 5.02066 8.68903 5.374 7.69826 6.03601C6.70749 6.69802 5.93527 7.639 5.47927 8.73989C5.02327 9.84077 4.90396 11.0521 5.13643 12.2208C5.36889 13.3895 5.9427 14.463 6.78528 15.3056C7.62786 16.1482 8.70138 16.722 9.87007 16.9545C11.0388 17.1869 12.2502 17.0676 13.351 16.6116C14.4519 16.1556 15.3929 15.3834 16.0549 14.3927C16.7169 13.4019 17.0702 12.237 17.0702 11.0455C17.0702 9.44758 16.4355 7.91518 15.3056 6.78531C14.1758 5.65544 12.6433 5.02066 11.0455 5.02066ZM11.1268 15.053C10.5926 15.0649 10.0613 14.97 9.56431 14.7738C9.06727 14.5776 8.61443 14.2842 8.23238 13.9106C7.85034 13.537 7.54678 13.0908 7.33953 12.5983C7.13229 12.1058 7.02553 11.5768 7.02553 11.0425C7.02553 10.5081 7.13229 9.97914 7.33953 9.48661C7.54678 8.99409 7.85034 8.54792 8.23238 8.17433C8.61443 7.80073 9.06727 7.50721 9.56431 7.31103C10.0613 7.11486 10.5926 7.01997 11.1268 7.03193C12.1907 7.03206 13.211 7.45484 13.9632 8.20724C14.7154 8.95963 15.1379 9.98 15.1378 11.0439C15.1377 12.1078 14.7149 13.1282 13.9625 13.8804C13.2101 14.6326 12.1897 15.0551 11.1258 15.0549L11.1268 15.053ZM16.5802 4.00752C16.232 4.00837 15.8948 4.12985 15.626 4.35134C15.3572 4.57284 15.1735 4.88061 15.1062 5.2223C15.0388 5.56399 15.0919 5.91852 15.2565 6.22545C15.4211 6.53238 15.6869 6.77276 16.0088 6.90574C16.3307 7.03872 16.6887 7.05604 17.0219 6.95477C17.3551 6.8535 17.643 6.63989 17.8364 6.35029C18.0298 6.06069 18.117 5.71304 18.0829 5.36644C18.0489 5.01985 17.8957 4.69576 17.6496 4.44934C17.3635 4.17012 16.979 4.01463 16.5792 4.01653L16.5802 4.00752Z" fill="white"/>
</svg>
