<svg width="128" height="82" viewBox="0 0 128 82" fill="none" xmlns="http://www.w3.org/2000/svg">
<path fill-rule="evenodd" clip-rule="evenodd" d="M110.884 20.7092H127.089L125.496 29.3655H118.917L117.392 37.5369H123.28L121.825 45.7089H115.938L109.637 81.0968H100.012L110.884 20.7092V20.7092ZM107.421 20.7092H97.5879L91.6313 52.4957C91.2166 54.6431 90.8699 56.027 90.5934 56.6502C90.2467 57.2046 89.8306 57.4811 89.2074 57.4811C88.6544 57.4811 88.3077 57.2046 88.2376 56.7196C88.1688 56.1653 88.3077 54.9877 88.6537 53.0487L94.7472 20.7086H84.8439L80.0649 46.262C79.1652 51.1098 78.6108 54.2957 78.4726 55.8186C78.4038 57.3428 78.6108 58.7969 79.2353 60.1815C79.7884 61.5674 80.8965 62.6748 82.4888 63.5064C84.0825 64.4061 85.952 64.8222 88.2369 64.8222C90.3142 64.8222 92.1149 64.4756 93.7773 63.7141C95.4398 63.0215 96.8244 61.9134 98.002 60.5275C99.1795 59.1429 100.011 57.7576 100.426 56.4411C100.911 55.1266 101.396 52.841 102.018 49.5161L107.421 20.7092ZM67.186 48.4802C67.6008 43.5629 68.224 37.607 69.125 30.4048C66.5628 38.6456 64.8309 44.6009 63.9306 48.4802H67.186ZM77.2269 20.7092L74.1798 63.9219H65.1081L66.0779 56.0971H62.6154L60.5375 63.9219H50.7043L64.5544 20.7092H77.2269V20.7092ZM56.729 20.7092H48.4187L44.8173 40.1692L42.8783 20.7092H34.6375L26.5349 63.9219H34.8452L38.5154 44.2555L39.9695 63.9219H48.6258L56.729 20.7092V20.7092ZM30.2058 21.0559L22.0337 40.5846L24.0422 63.9219H14.9698L13.308 48.4802L10.3999 63.9219H0.911346L10.8146 0.90332H20.3018L15.454 35.3909L21.4794 21.0559H30.2058V21.0559Z" fill="#00ACEC"/>
</svg>
