<svg width="123" height="22" viewBox="0 0 123 22" fill="none" xmlns="http://www.w3.org/2000/svg">
<path d="M-7.18236e-06 2.3802V1.5402H5.15199L13.216 18.6762L12.292 20.8042H8.65199L-7.18236e-06 2.3802ZM15.82 12.7122H15.708L13.832 17.2482L11.424 12.0962L15.82 1.5402H21.14V20.8042H15.82V12.7122ZM-7.18236e-06 5.1522L5.15199 16.1282V20.8042H-7.18236e-06V5.1522Z" fill="#2D4872"/>
<path d="M31.8574 11.9562C31.8574 11.4709 31.8388 11.1255 31.8014 10.9202C31.7641 10.7149 31.6521 10.5655 31.4654 10.4722C31.2974 10.3789 30.9801 10.3135 30.5134 10.2762C30.2334 10.2575 29.6268 10.2482 28.6934 10.2482C27.7974 10.2482 26.9668 10.2855 26.2014 10.3602L24.7174 10.4442V6.8042C26.4721 6.4682 28.3668 6.3002 30.4014 6.3002C31.9694 6.3002 33.1921 6.4122 34.0694 6.6362C34.9654 6.8602 35.6374 7.21487 36.0854 7.7002C36.4774 8.1482 36.7294 8.71753 36.8414 9.4082C36.9721 10.0989 37.0374 11.0602 37.0374 12.2922V20.8042H31.8574V11.9562ZM27.7134 21.0002C26.4254 21.0002 25.4734 20.6455 24.8574 19.9362C24.2414 19.2082 23.9334 18.1162 23.9334 16.6602C23.9334 15.7642 23.9988 15.0455 24.1294 14.5042C24.2601 13.9442 24.4841 13.5055 24.8014 13.1882C25.1188 12.8522 25.5574 12.6189 26.1174 12.4882C26.6774 12.3389 27.4148 12.2642 28.3294 12.2642L30.6814 12.3202V14.8122H30.4014C29.9721 14.8122 29.6921 14.8215 29.5614 14.8402C29.1881 14.8589 28.9921 15.0362 28.9734 15.3722C28.9548 15.4842 28.9454 15.7175 28.9454 16.0722C28.9454 16.3522 28.9548 16.5669 28.9734 16.7162C29.0108 16.8655 29.0668 16.9869 29.1414 17.0802C29.2348 17.2109 29.3748 17.2855 29.5614 17.3042C29.8228 17.3415 30.1028 17.3602 30.4014 17.3602H30.6814V20.2162C30.2708 20.5335 29.8321 20.7389 29.3654 20.8322C28.9174 20.9442 28.3668 21.0002 27.7134 21.0002ZM38.9307 6.5242H44.5867L54.2187 20.8042H48.5627L38.9307 6.5242ZM47.5267 8.7642L48.7027 6.5242H54.0227L50.1867 12.7122L47.5267 8.7642ZM42.7667 14.3362L45.4267 18.2842L44.0827 20.8042H38.7627L42.7667 14.3362ZM80.425 7.3362C80.817 6.96286 81.2743 6.70153 81.797 6.5522C82.3383 6.3842 83.001 6.3002 83.785 6.3002V10.9762C82.945 10.9762 82.2543 11.0322 81.713 11.1442C81.1903 11.2562 80.761 11.4522 80.425 11.7322V7.3362ZM74.069 6.5242H79.249V20.8042H74.069V6.5242ZM93.8068 13.6922C93.8068 12.7402 93.7974 12.1055 93.7788 11.7882C93.7601 11.3402 93.7041 11.0042 93.6108 10.7802C93.5174 10.5375 93.3681 10.3882 93.1628 10.3322C92.9388 10.2762 92.6308 10.2482 92.2388 10.2482H91.8468V6.3002H92.2388C93.8628 6.3002 95.1321 6.43087 96.0468 6.6922C96.9614 6.93487 97.6428 7.34553 98.0908 7.9242C98.5014 8.44687 98.7628 9.14687 98.8748 10.0242C99.0054 10.8829 99.0708 12.1055 99.0708 13.6922C99.0708 15.1669 99.0241 16.3149 98.9308 17.1362C98.8561 17.9389 98.6601 18.6015 98.3428 19.1242C97.9881 19.7029 97.4561 20.1415 96.7468 20.4402C96.0374 20.7202 95.0574 20.8975 93.8068 20.9722V13.6922ZM92.2388 21.0282C90.6148 21.0282 89.3454 20.9069 88.4308 20.6642C87.5161 20.4215 86.8348 20.0109 86.3868 19.4322C85.9761 18.9095 85.7054 18.2189 85.5748 17.3602C85.4628 16.5015 85.4068 15.2789 85.4068 13.6922C85.4068 12.2362 85.4534 11.0975 85.5468 10.2762C85.6401 9.45487 85.8454 8.77353 86.1628 8.2322C86.4988 7.63486 87.0214 7.1962 87.7308 6.9162C88.4401 6.61753 89.4201 6.43087 90.6708 6.3562V13.6922C90.6708 14.6442 90.6801 15.2695 90.6988 15.5682C90.7174 16.0162 90.7734 16.3522 90.8668 16.5762C90.9601 16.8002 91.1188 16.9402 91.3428 16.9962C91.5294 17.0522 91.8281 17.0802 92.2388 17.0802H92.6308V21.0282H92.2388ZM119.35 4.3122C119.294 4.5362 119.266 4.85353 119.266 5.2642V6.5242H122.682V10.4722H100.758V6.5242H103.39V6.2162C103.39 4.62953 103.502 3.42553 103.726 2.6042C103.95 1.78287 104.361 1.18553 104.958 0.812198C105.518 0.457531 106.293 0.233531 107.282 0.140198C108.272 0.046865 109.84 0.000198364 111.986 0.000198364V3.5842C111.016 3.5842 110.381 3.59353 110.082 3.6122C109.634 3.63087 109.289 3.6962 109.046 3.8082C108.822 3.9202 108.692 4.0882 108.654 4.3122C108.598 4.5362 108.57 4.85353 108.57 5.2642V6.5242H114.086V6.2162C114.086 4.62953 114.198 3.42553 114.422 2.6042C114.646 1.78287 115.057 1.18553 115.654 0.812198C116.214 0.457531 116.989 0.233531 117.978 0.140198C118.968 0.046865 120.536 0.000198364 122.682 0.000198364V3.5842C121.712 3.5842 121.077 3.59353 120.778 3.6122C120.33 3.63087 119.985 3.6962 119.742 3.8082C119.518 3.9202 119.388 4.0882 119.35 4.3122ZM103.39 11.5922H108.57V20.8042H103.39V11.5922ZM114.086 11.5922H119.266V20.8042H114.086V11.5922Z" fill="black"/>
<path d="M56.2461 1.5402H61.8461V20.8042H56.2461V1.5402ZM63.0221 10.5282H63.6941C64.2914 10.5282 64.7301 10.5095 65.0101 10.4722C65.3088 10.4162 65.5421 10.3042 65.7101 10.1362C65.8781 9.98687 65.9808 9.7722 66.0181 9.4922C66.0741 9.19353 66.1021 8.75487 66.1021 8.1762C66.1021 7.59753 66.0741 7.1682 66.0181 6.8882C65.9808 6.58953 65.8781 6.3562 65.7101 6.1882C65.5421 6.03887 65.3088 5.94553 65.0101 5.9082C64.7114 5.8522 64.2728 5.8242 63.6941 5.8242H63.0221V1.5402H65.3461C66.7274 1.5402 67.8474 1.6802 68.7061 1.9602C69.5834 2.22153 70.2461 2.6322 70.6941 3.1922C71.1234 3.71487 71.4128 4.37753 71.5621 5.1802C71.7114 5.9642 71.7861 6.96286 71.7861 8.1762C71.7861 9.33353 71.7114 10.2949 71.5621 11.0602C71.4314 11.8255 71.1608 12.4695 70.7501 12.9922C70.2834 13.5895 69.6114 14.0469 68.7341 14.3642C67.8754 14.6629 66.7461 14.8122 65.3461 14.8122H63.0221V10.5282Z" fill="#6CAC3D"/>
</svg>
