<svg width="123" height="22" viewBox="0 0 123 22" fill="none" xmlns="http://www.w3.org/2000/svg">
<path d="M-7.18236e-06 2.37995V1.53995H5.15199L13.216 18.676L12.292 20.804H8.65199L-7.18236e-06 2.37995ZM15.82 12.712H15.708L13.832 17.248L11.424 12.096L15.82 1.53995H21.14V20.804H15.82V12.712ZM-7.18236e-06 5.15195L5.15199 16.128V20.804H-7.18236e-06V5.15195ZM56.2461 1.53995H61.8461V20.804H56.2461V1.53995ZM63.0221 10.528H63.6941C64.2914 10.528 64.7301 10.5093 65.0101 10.472C65.3088 10.416 65.5421 10.304 65.7101 10.136C65.8781 9.98662 65.9808 9.77195 66.0181 9.49195C66.0741 9.19329 66.1021 8.75462 66.1021 8.17595C66.1021 7.59729 66.0741 7.16795 66.0181 6.88795C65.9808 6.58929 65.8781 6.35595 65.7101 6.18795C65.5421 6.03862 65.3088 5.94529 65.0101 5.90795C64.7114 5.85195 64.2728 5.82395 63.6941 5.82395H63.0221V1.53995H65.3461C66.7274 1.53995 67.8474 1.67995 68.7061 1.95995C69.5834 2.22129 70.2461 2.63195 70.6941 3.19195C71.1234 3.71462 71.4128 4.37729 71.5621 5.17995C71.7114 5.96395 71.7861 6.96262 71.7861 8.17595C71.7861 9.33329 71.7114 10.2946 71.5621 11.06C71.4314 11.8253 71.1608 12.4693 70.7501 12.992C70.2834 13.5893 69.6114 14.0466 68.7341 14.364C67.8754 14.6626 66.7461 14.812 65.3461 14.812H63.0221V10.528Z" fill="#6CAC3D"/>
<path d="M31.8574 11.956C31.8574 11.4706 31.8388 11.1253 31.8014 10.92C31.7641 10.7146 31.6521 10.5653 31.4654 10.472C31.2974 10.3786 30.9801 10.3133 30.5134 10.276C30.2334 10.2573 29.6268 10.248 28.6934 10.248C27.7974 10.248 26.9668 10.2853 26.2014 10.36L24.7174 10.444V6.80396C26.4721 6.46795 28.3668 6.29995 30.4014 6.29995C31.9694 6.29995 33.1921 6.41195 34.0694 6.63595C34.9654 6.85995 35.6374 7.21462 36.0854 7.69995C36.4774 8.14795 36.7294 8.71729 36.8414 9.40795C36.9721 10.0986 37.0374 11.06 37.0374 12.292V20.804H31.8574V11.956ZM27.7134 21C26.4254 21 25.4734 20.6453 24.8574 19.936C24.2414 19.208 23.9334 18.116 23.9334 16.66C23.9334 15.764 23.9988 15.0453 24.1294 14.504C24.2601 13.944 24.4841 13.5053 24.8014 13.188C25.1188 12.852 25.5574 12.6186 26.1174 12.488C26.6774 12.3386 27.4148 12.264 28.3294 12.264L30.6814 12.32V14.812H30.4014C29.9721 14.812 29.6921 14.8213 29.5614 14.84C29.1881 14.8586 28.9921 15.036 28.9734 15.372C28.9548 15.484 28.9454 15.7173 28.9454 16.072C28.9454 16.352 28.9548 16.5666 28.9734 16.716C29.0108 16.8653 29.0668 16.9866 29.1414 17.08C29.2348 17.2106 29.3748 17.2853 29.5614 17.304C29.8228 17.3413 30.1028 17.36 30.4014 17.36H30.6814V20.216C30.2708 20.5333 29.8321 20.7386 29.3654 20.832C28.9174 20.944 28.3668 21 27.7134 21ZM38.9307 6.52395H44.5867L54.2187 20.804H48.5627L38.9307 6.52395ZM47.5267 8.76395L48.7027 6.52395H54.0227L50.1867 12.712L47.5267 8.76395ZM42.7667 14.336L45.4267 18.284L44.0827 20.804H38.7627L42.7667 14.336ZM80.425 7.33595C80.817 6.96262 81.2743 6.70129 81.797 6.55195C82.3383 6.38395 83.001 6.29995 83.785 6.29995V10.976C82.945 10.976 82.2543 11.032 81.713 11.144C81.1903 11.256 80.761 11.452 80.425 11.732V7.33595ZM74.069 6.52395H79.249V20.804H74.069V6.52395ZM93.8068 13.692C93.8068 12.74 93.7974 12.1053 93.7788 11.788C93.7601 11.34 93.7041 11.004 93.6108 10.78C93.5174 10.5373 93.3681 10.388 93.1628 10.332C92.9388 10.276 92.6308 10.248 92.2388 10.248H91.8468V6.29995H92.2388C93.8628 6.29995 95.1321 6.43062 96.0468 6.69195C96.9614 6.93462 97.6428 7.34529 98.0908 7.92395C98.5014 8.44662 98.7628 9.14662 98.8748 10.024C99.0054 10.8826 99.0708 12.1053 99.0708 13.692C99.0708 15.1666 99.0241 16.3146 98.9308 17.136C98.8561 17.9386 98.6601 18.6013 98.3428 19.124C97.9881 19.7026 97.4561 20.1413 96.7468 20.44C96.0374 20.72 95.0574 20.8973 93.8068 20.972V13.692ZM92.2388 21.028C90.6148 21.028 89.3454 20.9066 88.4308 20.664C87.5161 20.4213 86.8348 20.0106 86.3868 19.432C85.9761 18.9093 85.7054 18.2186 85.5748 17.36C85.4628 16.5013 85.4068 15.2786 85.4068 13.692C85.4068 12.236 85.4534 11.0973 85.5468 10.276C85.6401 9.45462 85.8454 8.77329 86.1628 8.23195C86.4988 7.63462 87.0214 7.19595 87.7308 6.91595C88.4401 6.61729 89.4201 6.43062 90.6708 6.35595V13.692C90.6708 14.644 90.6801 15.2693 90.6988 15.568C90.7174 16.016 90.7734 16.352 90.8668 16.576C90.9601 16.8 91.1188 16.94 91.3428 16.996C91.5294 17.052 91.8281 17.08 92.2388 17.08H92.6308V21.028H92.2388ZM119.35 4.31195C119.294 4.53595 119.266 4.85329 119.266 5.26395V6.52395H122.682V10.472H100.758V6.52395H103.39V6.21595C103.39 4.62929 103.502 3.42529 103.726 2.60395C103.95 1.78262 104.361 1.18529 104.958 0.811954C105.518 0.457287 106.293 0.233287 107.282 0.139954C108.272 0.0466208 109.84 -4.57764e-05 111.986 -4.57764e-05V3.58395C111.016 3.58395 110.381 3.59329 110.082 3.61195C109.634 3.63062 109.289 3.69595 109.046 3.80795C108.822 3.91995 108.692 4.08795 108.654 4.31195C108.598 4.53595 108.57 4.85329 108.57 5.26395V6.52395H114.086V6.21595C114.086 4.62929 114.198 3.42529 114.422 2.60395C114.646 1.78262 115.057 1.18529 115.654 0.811954C116.214 0.457287 116.989 0.233287 117.978 0.139954C118.968 0.0466208 120.536 -4.57764e-05 122.682 -4.57764e-05V3.58395C121.712 3.58395 121.077 3.59329 120.778 3.61195C120.33 3.63062 119.985 3.69595 119.742 3.80795C119.518 3.91995 119.388 4.08795 119.35 4.31195ZM103.39 11.592H108.57V20.804H103.39V11.592ZM114.086 11.592H119.266V20.804H114.086V11.592Z" fill="white"/>
</svg>
