<svg width="17" height="17" viewBox="0 0 17 17" fill="none" xmlns="http://www.w3.org/2000/svg">
<path d="M10.4104 3.55809C11.1586 3.70378 11.8462 4.06898 12.3852 4.60696C12.9242 5.14494 13.2901 5.83121 13.4361 6.57795L10.4104 3.55809ZM10.4104 0.5C11.9648 0.672351 13.4143 1.3671 14.5209 2.47018C15.6275 3.57326 16.3254 5.0191 16.5 6.5703L10.4104 0.5ZM15.734 12.6712V14.9648C15.7349 15.1777 15.6912 15.3884 15.6057 15.5835C15.5203 15.7786 15.3949 15.9537 15.2377 16.0977C15.0805 16.2416 14.8949 16.3512 14.6928 16.4194C14.4908 16.4876 14.2766 16.513 14.0642 16.4938C11.7071 16.2382 9.44297 15.4343 7.45371 14.1467C5.60295 12.9729 4.03384 11.4068 2.85779 9.55958C1.56326 7.5651 0.757647 5.29431 0.506217 2.93118C0.487076 2.71976 0.512249 2.50669 0.580135 2.30551C0.648021 2.10434 0.757132 1.91948 0.900521 1.7627C1.04391 1.60592 1.21843 1.48066 1.41298 1.39489C1.60753 1.30912 1.81785 1.26472 2.03053 1.26452H4.32849C4.70022 1.26087 5.06061 1.39226 5.34247 1.63419C5.62433 1.87613 5.80843 2.21211 5.86046 2.5795C5.95745 3.31349 6.13732 4.03418 6.39665 4.72781C6.49971 5.00145 6.52201 5.29884 6.46092 5.58474C6.39983 5.87065 6.2579 6.13308 6.05195 6.34095L5.07915 7.31189C6.16958 9.2259 7.75739 10.8107 9.67507 11.899L10.6479 10.9281C10.8561 10.7225 11.1191 10.5809 11.4055 10.5199C11.692 10.4589 11.9899 10.4812 12.2641 10.584C12.9591 10.8429 13.6811 11.0224 14.4165 11.1192C14.7886 11.1716 15.1284 11.3587 15.3713 11.6448C15.6143 11.931 15.7433 12.2962 15.734 12.6712Z" stroke="white" stroke-linecap="round" stroke-linejoin="round"/>
</svg>
