<svg width="18" height="18" viewBox="0 0 18 18" fill="none" xmlns="http://www.w3.org/2000/svg">
<path d="M10.6604 3.80809C11.4086 3.95378 12.0962 4.31898 12.6352 4.85696C13.1742 5.39494 13.5401 6.08121 13.6861 6.82795L10.6604 3.80809ZM10.6604 0.75C12.2148 0.922351 13.6643 1.6171 14.7709 2.72018C15.8775 3.82326 16.5754 5.2691 16.75 6.8203L10.6604 0.75ZM15.984 12.9212V15.2148C15.9849 15.4277 15.9412 15.6384 15.8557 15.8335C15.7703 16.0286 15.6449 16.2037 15.4877 16.3477C15.3305 16.4916 15.1449 16.6012 14.9428 16.6694C14.7408 16.7376 14.5266 16.763 14.3142 16.7438C11.9571 16.4882 9.69297 15.6843 7.70371 14.3967C5.85295 13.2229 4.28384 11.6568 3.10779 9.80958C1.81326 7.8151 1.00765 5.54431 0.756217 3.18118C0.737076 2.96976 0.762249 2.75669 0.830135 2.55551C0.898021 2.35434 1.00713 2.16948 1.15052 2.0127C1.29391 1.85592 1.46843 1.73066 1.66298 1.64489C1.85753 1.55912 2.06785 1.51472 2.28053 1.51452H4.57849C4.95022 1.51087 5.31061 1.64226 5.59247 1.88419C5.87433 2.12613 6.05843 2.46211 6.11046 2.8295C6.20745 3.56349 6.38732 4.28418 6.64665 4.97781C6.74971 5.25145 6.77201 5.54884 6.71092 5.83474C6.64983 6.12065 6.5079 6.38308 6.30195 6.59095L5.32915 7.56189C6.41958 9.4759 8.00739 11.0607 9.92507 12.149L10.8979 11.1781C11.1061 10.9725 11.3691 10.8309 11.6555 10.7699C11.942 10.7089 12.2399 10.7312 12.5141 10.834C13.2091 11.0929 13.9311 11.2724 14.6665 11.3692C15.0386 11.4216 15.3784 11.6087 15.6213 11.8948C15.8643 12.181 15.9933 12.5462 15.984 12.9212Z" stroke="#6CAC3D" stroke-width="1.5" stroke-linecap="round" stroke-linejoin="round"/>
</svg>
