<?xml version="1.0" encoding="UTF-8" standalone="no"?>
<svg xmlns:rdf="http://www.w3.org/1999/02/22-rdf-syntax-ns#" xmlns="http://www.w3.org/2000/svg" viewBox="0 0 300 73.897735" width="84.667mm" version="1.1" xmlns:cc="http://creativecommons.org/ns#" height="20.856mm" xmlns:dc="http://purl.org/dc/elements/1.1/">
 <g transform="translate(-161.82 -526.59)">
  <path d="m461.82 599.02v-33.857c0-13.543-9.1256-20.018-21.197-20.018-7.0669 0-13.836 2.3543-19.431 7.9475v-26.496h-15.897v72.424h15.897v-28.264c0-6.4738 4.1235-11.775 12.954-11.775 10.01 0 11.777 6.1823 11.777 10.893v29.146h15.897zm-78.606-31.794 14.721-3.828c-2.9454-10.306-12.365-17.96-29.146-17.96-18.253 0-30.618 10.893-30.618 27.676 0 16.78 12.365 27.379 30.618 27.379 16.486 0 25.907-7.9495 28.853-17.96l-14.427-3.828c-1.1762 3.2389-4.7106 8.5386-14.425 8.5386-9.1256 0-15.014-5.5952-15.014-14.427 0-8.8321 5.8887-14.13 15.014-14.13 9.7147 0 13.249 5.2977 14.425 8.5386m-93.327-5.2997c0-2.9454 3.828-4.7106 11.188-4.7106 7.654 0 12.66 1.7652 14.132 5.2977l15.014-3.826c-3.5344-8.245-11.777-13.249-27.968-13.249-19.431 0-28.559 6.7713-28.559 17.373 0 14.717 16.193 14.423 28.559 15.601 8.5366 0.88261 13.247 0.88261 13.247 5.2997 0 3.5324-5.0061 5.0041-12.66 5.0041-6.4758 0-13.543-0.88461-15.308-7.0669l-15.605 3.83c2.6518 7.9475 10.01 15.014 30.326 15.014 20.312 0 29.144-7.3604 29.144-18.253 0-14.427-16.78-14.427-28.851-15.31-8.245-0.58907-12.66-1.1762-12.66-5.0041m-26.496 6.1823c0-10.893 0.88261-22.67-27.674-22.67-18.549 0-27.381 4.1235-28.851 16.193h15.603c1.1782-4.415 7.654-4.7086 12.658-4.7086 10.01 0 12.954 2.6478 12.954 8.241v1.4717h-13.247c-19.725 0-30.62 4.417-30.62 17.077 0 12.952 11.188 16.782 22.966 16.782 10.597 0 15.897-3.5324 20.901-7.656v6.1823h15.31v-30.911zm-15.31 7.3584c0 9.1276-8.8321 13.838-18.251 13.838-6.4778 0-9.7167-2.0608-9.7167-6.4778 0-5.0041 4.415-7.3604 18.549-7.3604h9.4192zm-55.642-13.836h7.0669v-15.897c-14.132 0.29354-19.431 6.1823-21.786 10.304v-9.1276h-15.899v52.11h15.899v-25.025c0-9.7127 5.0041-12.365 14.719-12.365" fill="#ee2722"/>
 </g>
</svg>
