<svg width="136" height="38" viewBox="0 0 136 38" fill="none" xmlns="http://www.w3.org/2000/svg">
<path fill-rule="evenodd" clip-rule="evenodd" d="M10.0081 13.1584C12.8218 10.6461 14.7312 10.3439 18.7005 10.3439V19.0872C17.9974 19.0371 17.2937 18.9862 16.5906 18.9862C10.5107 18.9862 10.4104 22.9555 10.3596 24.6638V36.9238H0.0583954V10.7463H10.0073V13.1584H10.0081ZM20.4938 18.7357C20.8954 16.5248 21.4481 13.7612 25.1668 11.8016C28.0815 10.2945 31.7995 10.0432 34.5129 10.0432C46.874 10.0432 46.874 16.4246 46.874 19.5397V33.7085C46.874 35.4175 47.025 35.87 47.7782 36.9246H37.578V34.9149C36.2713 35.8191 33.86 37.5274 28.9857 37.5274C22.4533 37.5274 19.5895 33.5581 19.5895 29.1364C19.5895 27.5784 19.941 25.4184 21.8004 23.5591C24.1616 21.147 26.9753 20.7454 31.5482 20.1425C34.412 19.7401 35.5174 19.4896 37.0754 19.0371C37.0252 17.2787 36.5226 16.0723 33.5578 16.0723C31.1966 16.0723 30.5429 16.6759 30.1914 18.4844L20.4938 18.7357ZM33.9595 25.8208C33.1054 26.0212 32.2011 26.2232 31.2969 26.5239C29.2864 27.3279 29.1862 28.5343 29.1862 28.8357C29.1862 29.5395 29.7898 30.8461 31.7486 30.8461C33.2063 30.8461 35.6177 29.8917 36.5226 27.8813C37.0245 26.7766 37.0245 25.7206 37.0245 24.8163C36.02 25.1671 35.0148 25.5194 33.9595 25.8208ZM54.2503 27.4281C55.2047 28.3817 56.1598 29.2366 58.1695 30.0907C60.0288 30.8447 61.435 30.9449 62.2898 30.9449C63.5456 30.9449 65.0033 30.4931 65.0033 29.3376C65.0033 28.0309 63.4454 27.7796 62.3901 27.6286C61.4858 27.4775 59.325 27.126 56.9638 26.4222C54.5518 25.7191 49.7785 24.3123 49.7785 18.7851C49.7785 16.4732 50.8338 14.3633 52.391 12.8555C55.456 9.94155 59.8778 9.84059 61.586 9.84059C63.5456 9.84059 65.5052 10.0919 67.4648 10.5444C71.0317 11.3985 72.5395 12.504 73.9964 13.6094L68.4191 18.6841C66.6607 17.5787 64.5 16.2219 61.7364 16.2219C61.3347 16.2219 59.5255 16.2219 59.5255 17.5787C59.5255 18.533 60.2293 18.6841 63.696 19.539C68.3182 20.5936 69.4243 20.8449 70.6801 21.4978C73.2934 22.9054 74.7503 25.3167 74.7503 28.2815C74.7503 33.4071 70.4804 37.9283 62.3901 37.9283C54.9534 37.9283 50.6827 34.5118 48.4718 32.7033L54.2503 27.4281ZM103.719 29.9404C103.065 31.3473 102.513 32.4527 101.207 33.7586C99.7498 35.2664 96.3819 37.929 90.3536 37.929C81.7614 37.929 76.4855 32.1012 76.4855 23.7094C76.4855 19.3886 78.0434 15.8711 80.2035 13.6602C83.8205 9.89216 88.9954 9.69097 90.9564 9.69097C92.7155 9.69097 97.6893 9.74109 101.659 13.7612C102.664 14.7664 103.116 15.4695 103.719 16.474L95.8307 20.9458C95.177 18.6347 93.9212 16.9766 91.4583 16.9766C88.2938 16.9766 86.7359 20.091 86.7359 24.0108C86.7359 26.0714 87.1375 29.9898 91.207 29.9898C94.3715 29.9898 95.3775 26.9756 95.83 25.6181L103.719 29.9404ZM105.868 1.40018H116.169V13.5099C117.123 12.3536 119.134 9.7912 124.51 9.7912C127.474 9.7912 130.137 10.7957 131.744 12.4037C133.907 14.6647 134.005 17.5787 134.106 19.8912V36.9238H123.806V22.052C123.756 20.8957 123.705 18.3333 120.088 18.3333C116.269 18.3333 116.22 21.0461 116.22 22.2524V36.9238H105.868V1.40018ZM131.447 1.42778H132.885C133.739 1.42778 134.162 1.78876 134.162 2.51143C134.162 3.23338 133.703 3.53335 133.219 3.61251L134.302 5.30408H133.659L132.593 3.62196H132.012V5.30408H131.447V1.42778ZM132.012 3.10991H132.682C133.22 3.10991 133.599 3.03074 133.599 2.51071C133.599 2.1047 133.237 1.93765 132.735 1.93765H132.013V3.10991H132.012ZM132.646 0.0703164C133.079 0.0696469 133.508 0.15442 133.908 0.319785C134.308 0.48515 134.672 0.727852 134.978 1.03398C135.284 1.3401 135.527 1.70364 135.692 2.10374C135.858 2.50384 135.942 2.93264 135.942 3.36557C135.942 3.79849 135.858 4.2273 135.692 4.6274C135.527 5.0275 135.284 5.39103 134.978 5.69716C134.672 6.00328 134.308 6.24598 133.908 6.41135C133.508 6.57671 133.079 6.66149 132.646 6.66082C132.214 6.66149 131.785 6.57671 131.385 6.41135C130.985 6.24598 130.621 6.00328 130.315 5.69716C130.009 5.39103 129.766 5.0275 129.601 4.6274C129.435 4.2273 129.351 3.79849 129.351 3.36557C129.351 2.93264 129.435 2.50384 129.601 2.10374C129.766 1.70364 130.009 1.3401 130.315 1.03398C130.621 0.727852 130.985 0.48515 131.385 0.319785C131.785 0.15442 132.214 0.0696469 132.646 0.0703164ZM132.646 6.15023C134.135 6.15023 135.377 4.88137 135.377 3.36629C135.377 1.85122 134.135 0.582358 132.646 0.582358C131.157 0.582358 129.914 1.85122 129.914 3.36629C129.914 4.88137 131.157 6.15023 132.646 6.15023Z" fill="#CC2229"/>
</svg>
