<svg width="154" height="67" viewBox="0 0 154 67" fill="none" xmlns="http://www.w3.org/2000/svg">
<path d="M85.3299 66.8292C78.158 66.3937 74.0664 65.8326 58.0741 63.0912C45.6765 60.966 41.6279 60.3796 37.147 60.0599L35.7125 59.9576L32.3793 60.0091L29.0462 60.0607L27.1476 60.1927C19.7216 60.709 12.3475 61.8124 3.43813 63.7403C2.02386 64.0464 0.818237 64.2967 0.75896 64.2967H0.651184V58.2122V52.1277H0.696744C0.721803 52.1277 1.77554 51.859 3.03838 51.5306C10.1957 49.6693 15.9766 48.6757 22.3799 48.2064L24.152 48.0766L27.1898 47.9774L30.2276 47.8782L35.3749 47.9244L40.5223 47.9706L41.8303 48.0667C48.3328 48.5447 52.1993 49.1246 65.4576 51.6101C74.1106 53.2322 78.7236 53.9134 83.8954 54.3325L85.6674 54.4761L87.936 54.5317L90.2045 54.5874L92.999 54.5303L95.7934 54.4732L97.9452 54.334C100.279 54.1831 103.047 53.9499 106.066 53.6499L107.984 53.4593L107.922 53.5228C107.888 53.5577 103.324 56.5787 97.7797 60.2361L87.6992 66.8859L86.7255 66.8703C86.19 66.8618 85.562 66.8433 85.3299 66.8292ZM112.144 61.3811C112.619 60.5845 114.451 57.5166 116.214 54.5637L119.421 49.1947L136.698 49.194L153.976 49.1933V56.0114V62.8296H132.628H111.281L112.144 61.3811V61.3811ZM59.9727 41.455C56.4046 41.0973 54.2541 40.5494 51.9564 39.4127L51.0705 38.9745L50.2031 38.3812L49.3356 37.788L48.5644 37.0393L47.7932 36.2907L47.2991 35.6569L46.8051 35.0231L46.3429 34.22L45.8808 33.4168L45.5145 32.4804C45.1168 31.4639 44.8671 30.5734 44.6598 29.4319L44.527 28.7007L44.44 27.4343L44.353 26.1679L44.4412 24.9693C44.4897 24.3101 44.5906 23.403 44.6655 22.9537L44.8017 22.1367L45.0928 21.1442L45.3839 20.1517L45.8454 19.1656L46.3069 18.1795L46.7899 17.4422L47.273 16.705L48.0746 15.8487L48.8763 14.9923L49.5109 14.4978C50.3647 13.8324 51.1537 13.344 52.1711 12.8509L53.0187 12.4401L54.0275 12.0965L55.0363 11.7529L56.0067 11.5337C57.2961 11.2425 58.488 11.0713 59.9727 10.964L61.1963 10.8756H62.5886H63.9809L65.2045 10.9637C65.8774 11.0123 66.95 11.1292 67.5881 11.2237L68.7481 11.3955L69.8793 11.687C71.3374 12.0626 72.2619 12.4067 73.5162 13.0409L74.5288 13.5528L75.3124 14.126L76.0959 14.6992L76.7925 15.3973C77.5938 16.2001 78.0767 16.828 78.6902 17.8646L79.1244 18.5982L79.458 19.4188C79.8897 20.4803 80.1905 21.5475 80.4067 22.784L80.5802 23.7765L80.6241 25.6378L80.668 27.4992L80.5679 28.3996C80.5129 28.8948 80.392 29.6884 80.2993 30.1631L80.1308 31.0261L79.8417 31.9135L79.5525 32.8009L79.1637 33.5964C78.9499 34.034 78.5624 34.7221 78.3027 35.1256L77.8304 35.8592L76.8547 36.8576L75.879 37.856L75.0341 38.4279L74.1893 38.9998L73.2199 39.4739L72.2505 39.948L71.2379 40.2906L70.2253 40.6332L69.2549 40.8523C68.0864 41.1162 66.8629 41.3017 65.4998 41.4214L64.4872 41.5104L62.3776 41.4975C61.2174 41.4904 60.1351 41.4712 59.9727 41.455ZM65.0703 36.085C65.4375 35.9846 65.9486 35.8036 66.2062 35.683L66.6746 35.4637L67.1225 35.1103L67.5703 34.7569L67.9732 34.1409L68.3761 33.5248L68.6075 32.8087L68.8389 32.0926L68.9738 31.2573L69.1088 30.422L69.1481 26.8074L69.1875 23.1929L69.0912 22.0798L68.995 20.9667L68.7922 20.1489L68.5894 19.3311L68.3122 18.792L68.0351 18.2529L67.5269 17.7343L67.0187 17.2157L66.5949 16.9845L66.1712 16.7533L65.4239 16.5318L64.6767 16.3103L63.6698 16.2163L62.663 16.1224L61.6579 16.2215L60.6527 16.3207L60.0385 16.4943L59.4242 16.6679L58.8764 16.9426L58.3287 17.2173L57.8142 17.7351L57.2997 18.2529L56.9907 18.9002L56.6816 19.5475L56.5205 20.1998C56.4319 20.5585 56.31 21.2382 56.2497 21.7101L56.14 22.5682L56.1437 26.193L56.1475 29.8178L56.2911 30.8966L56.4346 31.9755L56.7084 32.7954L56.9822 33.6153L57.3044 34.1116L57.6265 34.608L58.0183 34.9607L58.41 35.3134L59.0859 35.6438L59.7617 35.9743L60.3946 36.1083C60.7427 36.1821 61.1224 36.26 61.2384 36.2815C61.3545 36.303 62.1139 36.3087 62.9261 36.2942L64.4028 36.2678L65.0703 36.085H65.0703ZM100.266 41.384C99.081 41.2127 97.9783 40.9421 96.8482 40.5454L95.8778 40.2047L94.9514 39.7322L94.0249 39.2597L93.2215 38.7099L92.4181 38.1601L91.7519 37.5483C90.8694 36.7377 90.115 35.8577 89.4947 34.9154L88.987 34.1441L88.5797 33.2756C87.8979 31.8214 87.4453 30.2109 87.2321 28.4801L87.1417 27.7465L87.1408 26.1878L87.1399 24.6291L87.2662 23.709C87.4248 22.553 87.5842 21.8388 87.9154 20.7989L88.1766 19.979L88.5814 19.116L88.9862 18.2529L89.4961 17.4762C90.1206 16.5248 90.8719 15.646 91.7519 14.8378L92.4181 14.2259L93.2197 13.6798C94.2964 12.9464 94.9414 12.5955 96.0465 12.1421C97.5125 11.5408 98.8581 11.1868 100.561 10.9545L101.278 10.8567L103.33 10.8639L105.383 10.8712L106.537 10.9622C110.143 11.2465 113.424 11.919 115.373 12.7739L115.738 12.9339L114.68 15.464C114.098 16.8555 113.593 18.0256 113.558 18.0641L113.495 18.1342L112.625 17.8245C110.922 17.2182 109.072 16.8278 107.083 16.6552L105.979 16.5594L105.121 16.6559L104.263 16.7525L103.625 16.9194L102.987 17.0864L102.369 17.3903L101.751 17.6943L101.202 18.1462L100.654 18.5982L100.226 19.146L99.7974 19.6938L99.4167 20.4941L99.0361 21.2943L98.793 22.279L98.5498 23.2637L98.4474 24.1642L98.3451 25.0648L98.3934 26.794L98.4417 28.5233L98.6138 29.3811C99.0121 31.3665 99.6659 32.7482 100.699 33.7885C101.54 34.6345 102.545 35.1884 103.81 35.503L104.401 35.6499L105.244 35.7222L106.088 35.7946L107.016 35.7201C108.202 35.6249 108.971 35.5095 110.179 35.2454L111.148 35.0336L112.315 34.6364L113.483 34.2391L113.548 34.3156C113.584 34.3576 114.082 35.5139 114.654 36.885L115.695 39.3781L115.542 39.4927C115.457 39.5558 114.929 39.7624 114.367 39.9519C112.352 40.6313 110.579 40.9954 107.776 41.3059L106.594 41.4368L103.852 41.4714L101.11 41.506L100.266 41.384H100.266ZM135.918 41.4577C133.594 41.2482 131.568 40.9094 129.784 40.432L128.67 40.1341L127.779 39.7917C127.289 39.6034 126.506 39.2535 126.038 39.0142L125.188 38.5791L124.542 38.1253L123.897 37.6716L123.278 37.0734L122.66 36.4751L122.209 35.7788L121.758 35.0824L121.549 34.5646C121.434 34.2798 121.272 33.7749 121.189 33.4426L121.038 32.8385L121.037 31.7597L121.036 30.6809L121.14 30.1199C121.37 28.8696 121.856 27.707 122.533 26.7858L122.922 26.2567L123.458 25.7443L123.993 25.2318L124.605 24.8158C124.941 24.587 125.583 24.2144 126.032 23.9878L126.847 23.5758L127.708 23.2702C129.515 22.6295 131.995 22.1332 134.652 21.8803L136.044 21.7478L138.449 21.6634C139.772 21.6169 141.204 21.5782 141.632 21.5773L142.409 21.5757L142.486 21.4247L142.563 21.2736L142.495 20.0179L142.427 18.7621L142.301 18.2055C142.231 17.8993 142.097 17.464 142.002 17.2381L141.83 16.8274L141.428 16.388L141.026 15.9486L140.616 15.7358C140.39 15.6188 139.914 15.4398 139.559 15.3381L138.913 15.1533L136.382 15.154L133.85 15.1548L132.669 15.3085L131.488 15.4622L130.391 15.7496L129.294 16.037L128.028 16.5689C127.332 16.8614 126.702 17.12 126.629 17.1436L126.497 17.1863L126.006 15.821C125.737 15.07 125.388 14.0949 125.232 13.654L124.949 12.8525L125.349 12.6759C126.742 12.0614 129.742 11.4139 132.711 11.0871L133.85 10.9617L136.192 10.8573L138.533 10.753L140.411 10.856L142.289 10.959L143.259 11.0923C145.248 11.3653 147.21 11.9155 148.642 12.602L149.358 12.9453L150.085 13.4383L150.811 13.9313L151.447 14.5818L152.082 15.2323L152.487 15.8579L152.892 16.4834L153.175 17.1524L153.458 17.8215L153.63 18.5119C153.724 18.8917 153.841 19.5315 153.889 19.9337L153.976 20.665V29.7911V38.9172L153.026 39.2186C149.909 40.2085 146.818 40.8797 143.428 41.3031L142.289 41.4454L139.293 41.4687C137.645 41.4816 136.127 41.4766 135.918 41.4578V41.4577ZM141.398 36.1516L142.373 36.0556L142.479 35.9678L142.585 35.8801L142.564 30.9502L142.542 26.0204L141.234 25.9934L139.926 25.9664L138.719 26.0629C137.37 26.1709 136.456 26.319 135.505 26.5839L134.863 26.7629L134.176 27.1018L133.488 27.4406L133.016 27.882L132.544 28.3234L132.234 28.965L131.924 29.6067L131.885 30.5007L131.846 31.3946L131.988 32.0482L132.13 32.7018L132.393 33.2449L132.655 33.7879L133.253 34.3928L133.85 34.9978L134.483 35.3121C135.279 35.7072 136.084 35.9572 137.057 36.1109L137.816 36.2309L139.12 36.2392L140.423 36.2476L141.398 36.1516V36.1516ZM3.37255 40.8434L0.651184 40.8194V20.722V0.624676L11.0514 0.560385L21.4517 0.496094L24.4473 0.540484L27.4429 0.584875L28.5547 0.761895C31.2185 1.18604 33.0938 1.87353 34.7551 3.0349L35.4853 3.54542L36.15 4.25368C36.9779 5.13588 37.2651 5.56093 37.784 6.67195L38.1946 7.5511L38.404 8.371C38.5191 8.82195 38.6584 9.5016 38.7135 9.88134L38.8137 10.5718L38.8121 11.7369L38.8105 12.902L38.6714 13.7649L38.5323 14.6277L38.2361 15.5341L37.94 16.4405L37.64 17.0015C37.4751 17.3101 37.1525 17.8221 36.9232 18.1395L36.5062 18.7165L35.7931 19.4069L35.08 20.0973L34.3836 20.5682C33.5435 21.1363 32.7188 21.5684 31.5355 22.0603L30.6495 22.4286L30.6548 22.6279L30.6602 22.8271L35.5702 31.837C38.2706 36.7924 40.4801 40.8606 40.4801 40.8775C40.4801 40.8943 37.3759 40.905 33.5818 40.9014L26.6835 40.8947L24.892 37.2118C23.0336 33.3913 21.0776 29.567 19.499 26.6677L18.5827 24.9847H15.8824H13.1821L13.0344 25.0468L12.8868 25.1088V33.0084V40.908L9.49034 40.8877C7.62231 40.8765 4.8693 40.8566 3.37255 40.8434ZM15.0807 19.2005C16.2102 19.1306 17.7968 18.9287 18.8477 18.7213L19.7435 18.5445L20.5976 18.2583C21.7026 17.8881 22.4315 17.5468 23.1923 17.0435L23.8061 16.6374L24.3473 16.1074L24.8885 15.5775L25.2486 15.0597C25.723 14.3776 26.0629 13.6706 26.3482 12.7726L26.5813 12.039L26.5785 11.4315L26.5758 10.824L26.4415 10.2881C26.2777 9.63384 26.051 9.16051 25.6169 8.56579L25.2866 8.1133L24.6882 7.6835L24.0898 7.25371L23.4393 6.99712L22.7888 6.74054L21.9093 6.54433L21.0298 6.34812L16.9794 6.34547L12.929 6.34283L12.9073 12.7199L12.8857 19.097L12.9857 19.2203L13.0858 19.3436L13.6825 19.2969C14.0106 19.2712 14.6398 19.2278 15.0807 19.2005L15.0807 19.2005Z" fill="#075FA7"/>
</svg>
