<?xml version="1.0" encoding="UTF-8" standalone="no"?>
<!-- Created with Inkscape (http://www.inkscape.org/) -->
<svg id="svg2" xmlns:inkscape="http://www.inkscape.org/namespaces/inkscape" xmlns:rdf="http://www.w3.org/1999/02/22-rdf-syntax-ns#" xmlns="http://www.w3.org/2000/svg" sodipodi:docname="teka.svg" height="300" width="650" version="1.1" xmlns:cc="http://creativecommons.org/ns#" xmlns:dc="http://purl.org/dc/elements/1.1/" inkscape:version="0.48.2 r9819" xmlns:sodipodi="http://sodipodi.sourceforge.net/DTD/sodipodi-0.dtd">
<sodipodi:namedview id="base" bordercolor="#666666" inkscape:pageshadow="2" inkscape:window-y="-8" pagecolor="#ffffff" inkscape:window-height="706" inkscape:window-maximized="1" inkscape:zoom="0.35" inkscape:window-x="-8" showgrid="false" borderopacity="1.0" inkscape:current-layer="layer1" inkscape:cx="-80.382464" inkscape:cy="561.43845" inkscape:window-width="1366" inkscape:pageopacity="0.0" inkscape:document-units="px"/>
<metadata id="metadata7">
<rdf:RDF>
<cc:Work rdf:about="">
<dc:format>image/svg+xml</dc:format>
<dc:type rdf:resource="http://purl.org/dc/dcmitype/StillImage"/>
<dc:title/>
</cc:Work>
</rdf:RDF>
</metadata>
<g id="layer1" inkscape:label="Capa 1" inkscape:groupmode="layer" transform="translate(0,-752.36218)">
<g id="g3137" transform="matrix(0.34067828,0,0,0.34067828,331.42769,683.86829)">
<path id="path3151" inkscape:connector-curvature="0" fill="#acc9e1" d="m67.0714,1002.1533c-35.019-1.1958-78.1605-5.26316-132.5-12.49217-47.83895-6.36421-80.84554-11.6419-246-39.3349-111.26099-18.65618-169.80423-26.02551-220-27.69325l-19.5-0.64788-31.5,1.14629c-103.58697,3.76958-198.39815,16.338-325.85171,43.19578l-33.3517,7.02807-1.40479-0.53907-1.4048-0.53907,0.2565-73.27889,0.2565-73.27889,18-4.74534c90.77358-23.93062,167.76195-36.79224,256.5-42.8507l16.5-1.12652,83.5-0.4939,83.5-0.4939,21,1.15036c73.38295,4.01988,130.51432,11.9561,267,37.08944,128.99237,23.75347,180.6549,31.30907,250.5,36.63541l22.5,1.71583,48,0.0244,48,0.0244,22-1.24379c31.8311-1.79959,70.0051-4.80284,110-8.654l35-3.37019,0.9611,0.93041,0.9611,0.93041-1.9611,1.83657c-1.4083,1.31892-200.9162,130.27422-242.4611,156.71889-1.925,1.2253-4.4,2.4181-5.5,2.6506s-11.45,0.1001-23-0.2943zm298.5-48.52864,0-1.59466,49.0799-80.3096,49.0799-80.3096,2.1701-0.58209,2.1701-0.58208,204.1786-0.0137,204.1785-0.0136,1.5715,1.57143,1.5714,1.57143,0,79.72857,0,79.72857-1.2,1.2-1.2,1.2-255.8,0-255.8,0,0-1.59466zm-602.5-245.52566c-6.6-0.45973-18.37821-1.76207-26.1738-2.89409l-14.17381-2.05822-11.82619-2.89963c-6.50441-1.5948-16.1012-4.31475-21.3262-6.04433l-9.5-3.14469-16-7.8667-16-7.8667-10.52437-7.94033-10.52436-7.94032-8.97564-9.39597-8.97563-9.39598-6.12329-8.96636-6.12328-8.96636-4.47599-9c-7.96998-16.02551-13.06161-32.10475-16.30792-51.5l-1.59007-9.5-0.57251-17-0.57252-17,1.17071-12c0.64389-6.6,2.07796-16.5,3.18681-22l2.01609-10,3.86318-11.60512,3.86319-11.60512,4.49098-8.94208c2.47004-4.91814,7.31578-13.19584,10.7683-18.39488l6.27732-9.4528,12.0645-12.03638,12.0645-12.03638,9-6.0589c12.16338-8.18852,23.71225-14.26098,37.59348-19.76687l11.59349-4.59846,15.40651-3.90766,15.40652-3.90765,15.5-2.33958,15.5-2.33958,38.5-0.004,38.5-0.004,10.5,1.32241c33.76955,4.25308,58.94115,11.20846,82.1469,22.69872l10.6469,5.27179,8.3531,5.58067c15.42066,10.30248,27.3976,21.90334,38.3301,37.12641l5.7452,8,5.4556,10.86626,5.4555,10.86625,3.3837,10.13375,3.3838,10.13374,2.5132,12.5,2.5133,12.5,1.1679,14,1.1679,14-0.6446,14.45976-0.6447,14.45975-1.5493,10.54025c-3.1083,21.14697-8.6458,38.85489-17.6041,56.2949l-5.1346,9.99586-6.0021,8.12474c-3.3011,4.46861-9.4179,11.65763-13.59289,15.9756l-7.59081,7.85086-9,6.72458c-14.77903,11.04255-24.6551,16.46394-43.20509,23.71712l-11.42036,4.46544-15.18727,3.85172-15.18728,3.85172-15,2.09765-15,2.09765-15,0.98073-15,0.98073-14.5-0.12676c-7.975-0.0697-19.9-0.5029-26.5-0.96262zm45-66.89788,9-1.00178,7-2.08089,7-2.08089,5.96968-3.15912,5.96969-3.15912,5.10432-5.18121,5.10433-5.1812,3.07829-5.8188c1.69306-3.20033,4.02193-8.90262,5.17525-12.67174l2.09697-6.85295,1.53163-11.64705,1.53163-11.64705,0.59925-30.5,0.59926-30.5-1.15049-19.3827-1.15049-19.3827-1.98872-9.1173-1.98872-9.1173-3.46942-7.30848-3.46943-7.30849-5.77151-5.76181-5.77152-5.76181-6.5-3.17386-6.5-3.17387-8-2.08881-8-2.08881-15.5-0.51797-15.5-0.51797-9.71816,1.59755-9.71816,1.59755-6.75586,2.5429-6.75586,2.54289-4.79154,3.07473-4.79155,3.07473-4.08975,4.63576-4.08975,4.63577-2.77989,5.5c-3.7423,7.4041-6.47735,16.65016-8.1347,27.5l-1.37478,9v46,46l1.29008,9c0.70955,4.95,2.19989,12.369,3.31187,16.48666l2.02178,7.48666,3.01412,6.31551,3.01411,6.31552,5.6946,5.81971,5.69459,5.81972,6.97943,3.47956,6.97942,3.47955,6.5,1.7178c12.55601,3.31828,28.34582,4.24792,43.5,2.56111zm438.5,66.8515-9.5-0.89481-12.3474-2.49474-12.3473-2.49475-11.1527-3.58268-11.1526-3.58269-11.2719-5.33269c-13.9869-6.61721-21.2098-10.92314-32.7484-19.523l-9.0202-6.72295-10.4798-10.86704-10.4797-10.86703-6.1238-8.98546-6.1239-8.98546-4.975-10c-8.5176-17.1205-13.5569-32.88884-16.7782-52.5l-1.5604-9.5-0.6035-15.5-0.6034-15.5,1.1918-12.5,1.1917-12.5,1.9964-10,1.9963-10,3.8613-11.59928,3.8612-11.59929,5.2109-10.40071,5.2109-10.40072,6.1239-8.97958,6.1238-8.97958,10-10.40568,10-10.40569,8-6.2198c11.0428-8.5855,18.9732-13.40914,33.5282-20.39352l12.4718-5.9847,11-3.6066,11-3.60661,12-2.42444,12-2.42443,12-1.17526,12-1.17526,24.5,0.61415,24.5,0.61415,16,1.54808c36.9709,3.57711,66.6803,9.82416,91.0112,19.13709l9.4888,3.63194v1.94159,1.94159l-13.1057,30.67628c-7.2081,16.87195-13.4958,31.09146-13.9726,31.59889l-0.8669,0.92262-13.7774-4.61259c-21.8374-7.31101-36.502-10.50111-58.7493-12.78009l-11.9719-1.22638-11.5281,0.58963-11.5281,0.58963-8.3179,2.04837-8.3179,2.04837-7.1821,3.34812-7.1821,3.34812-5.5,4.12695-5.5,4.12696-5.3246,6.27384-5.3246,6.27384-4.8851,10-4.885,10-2.0145,7.5c-1.1079,4.125-2.7853,11.775-3.7274,17l-1.713,9.5v21,21l1.6545,9.51189c0.9099,5.23154,2.8109,13.50248,4.2243,18.37987l2.5698,8.86797,3.4805,7.12013,3.4806,7.12014,4.9588,6.60712,4.9589,6.60711,4.555,3.73249c2.5052,2.05286,7.1264,5.2809,10.2692,7.1734l5.7142,3.44093,9.0082,2.88344,9.0081,2.88345,7.8224,1.08603,7.8223,1.08603,7.6777-0.0173c22.3951-0.0505,51.6528-5.39577,76.5784-13.99048l11.8583-4.08893,1.4477,0.29837,1.4477,0.29837,13.4227,31.33685c7.3826,17.23527,13.4228,31.96122,13.4228,32.72432v1.38747l-2.8295,1.46319c-9.9107,5.12505-40.9851,13.7384-63.1705,17.50992-34.0581,5.78989-85.6415,8.48845-113,5.91155zm423.5,0.55283c-3.3-0.21062-13.1911-1.09457-21.9803-1.96434l-15.9802-1.58141-14.0198-2.45643c-18.1687-3.18339-32.1364-6.61753-47.0197-11.56037l-12-3.98529-12.376-5.91077-12.376-5.91078-8.1851-5.44615-8.185-5.44616-7.1417-6.61206-7.1416-6.61207-4.6991-6.20015-4.6992-6.20015-4.4402-9.31013-4.4403-9.31012-2.0097-9.68988-2.0098-9.68987,0.5421-13.5,0.542-13.5,1.5495-6.25547c0.8522-3.44051,2.9296-9.83436,4.6165-14.20855l3.067-7.95309,5.0804-7.79145,5.0804-7.79144,7.6129-7.58047,7.6129-7.58048,7.5079-5.03666c19.2218-12.89481,42.4208-21.82006,73.4009-28.2392l14.0912-2.91972,16.5-2.04148c9.075-1.12282,22.575-2.5251,30-3.1162l13.5-1.07471,32.3969-0.61334,32.3969-0.61334-0.609-12.5922-0.609-12.5922-1.4769-7.68297-1.4769-7.68296-2.5611-5.41374-2.5611-5.41373-3.5625-3.66816-3.5624-3.66816-4.7302-2.39695c-2.6016-1.31831-7.2887-3.14075-10.4159-4.04985l-5.6858-1.6529-12.2715-0.76925-12.2715-0.76924-22.5,0.77908-22.5,0.77908-11.4325,1.61936-11.4326,1.61937-11.4514,2.95261-11.4513,2.95262-13.6161,5.57902c-7.4889,3.06846-15.5036,6.31074-17.8106,7.20506l-4.1945,1.62603-0.7115-0.71152c-0.3914-0.39134-5.0933-12.72969-10.4488-27.41856l-9.7372-26.70702,0.4714-1.22857,0.4715-1.22858,6.1912-2.47849c25.3554-10.15048,67.09-17.71223,114.5019-20.74623l18.3496-1.17423,32.1504,0.5532,32.1505,0.55321,12.435,1.58149c6.8393,0.86981,18.0893,2.74479,25,4.16662l12.565,2.58514,11.7014,3.83875,11.7014,3.83875,9.2986,4.49895,9.2986,4.49896,7.973,5.3169,7.973,5.31691,7.6968,7.59255,7.6968,7.59255,5.6835,8.71919,5.6834,8.71919,3.5229,8.68826,3.523,8.68826,2.554,11.5,2.554,11.5,0.3794,109.69039,0.3794,109.69039-1.8673,1.86728-1.8672,1.86727-17.4424,5.14144c-40.2984,11.87867-74.14,18.69056-113.385,22.82291l-14.0573,1.48019-27.5,0.3546c-15.125,0.19503-30.2,0.18227-33.5-0.0283zm49.2947-68.47515,14.6694-1.08901,1.7766-0.95077,1.7765-0.95077-0.2586-54.21021-0.2586-54.21022-19.5,0.25289-19.5,0.2529-13.7794,1.53708-13.7793,1.53708-9.5925,2.43332-9.5924,2.43332-8.2128,3.97522-8.2128,3.97521-4.9927,4.4889-4.9927,4.4889-3.0899,5.81259-3.09,5.81259-1.1798,6.5-1.1798,6.5,0.642,7c0.8317,9.06868,2.9812,16.58964,6.7968,23.78126l3.0673,5.78127,6.1516,5.7545,6.1515,5.75451,7.5716,3.74116,7.5715,3.74116,9.6124,2.43839,9.6125,2.4384,8.7584,0.89997c12.5994,1.29465,20.4665,1.31171,37.0532,0.0804zm-1662.58835,59.89537-1.20635-1.20635,0-234.82475,0-234.82475,2.28745-0.86969,2.28745-0.86969,153.96255-0.27851,153.96255-0.2785,13.33997,1.67234c25.50508,3.19741,46.47053,8.6872,63.9016,16.7326l8.24157,3.80394,8.50873,5.54627,8.50873,5.54627,8.41162,8.07549,8.41161,8.07549,5.06848,7.3318,5.06847,7.3318,4.05501,8.36495,4.05502,8.36494,2.41632,8c1.32897,4.4,3.21117,12.05,4.18265,17l1.76633,9v18,18l-1.77353,8.874c-0.97545,4.8807-2.92369,12.5307-4.32944,17l-2.5559,8.126-3.92174,7.88448c-2.15696,4.33647-6.19237,11.16907-8.96758,15.18355l-5.04585,7.29907-8.67103,8.34547-8.67104,8.34547-9.4528,6.3128c-10.52326,7.02767-22.35965,13.18722-34.84784,18.13449l-8.30064,3.28835,0.4363,1.13699c0.23997,0.62534,26.58776,48.11268,58.55064,105.52742l58.11434,104.39044v1.83138,1.83138l-84.75-0.25564-84.75-0.25565-23-45.5194c-31.10864-61.56724-70.97683-136.41761-73.49207-137.97741l-0.81143-0.50319-30.34825,0.5-30.34825,0.5-0.5,91.5-0.5,91.5-74.04365,0.25635-74.04364,0.25636-1.20636-1.20636zm173.29365-256.8319c35.42737-2.57459,60.43956-7.88127,80.21967-17.0197l8.2388-3.80634,7.55969-5.22601,7.55969-5.22601,7.21107-7.67957,7.21108-7.67958,4.6547-8.91862,4.65471-8.91862,2.59529-8.30162,2.5953-8.30162-0.0148-5.19838-0.0148-5.19838-1.51022-6.40693-1.51022-6.40693-3.225-6.06501-3.225-6.06501-5.18828-5.1946-5.18829-5.19461-6.31171-3.52007-6.31172-3.52006-7.62392-2.48056-7.62391-2.48057-10.37609-1.8169-10.37604-1.8169-43.5-0.0159-43.5-0.0159-0.2588,70.5c-0.14233,38.775-0.044,71.0625,0.21862,71.75l0.47741,1.25,4.28139-0.004c2.35476-0.002,10.58138-0.4619,18.28138-1.02148z"/>
<path id="path3149" inkscape:connector-curvature="0" fill="#8eb6d6" d="m63.0714,1001.1789c-49.9233-2.01191-117.71737-9.85289-207-23.94141-14.3-2.2565-68.75-11.25992-121-20.0076-155.31536-26.00287-200.30601-32.17193-255.5-35.03381l-21.5-1.11481-34.761,1.06962c-108.10893,3.32658-211.28988,17.16175-346.739,46.493-9.075,1.96517-17.2875,3.57358-18.25,3.57424l-1.75,0.001v-72.46482-72.46481l1.90399-1.01899c2.5961-1.38939,56.88115-14.89827,82.09601-20.42967,63.73829-13.98229,119.84876-22.01966,182.5-26.14166l23-1.51324,47.5-0.93186,47.5-0.93186,51,0.91362,51,0.91361,19,1.54282c69.97685,5.68221,115.2078,12.50661,265,39.98298,125.64628,23.04727,186.2853,30.86294,261.7465,33.73611l31.7466,1.20874,38.2534-1.21494c50.7197-1.61086,94.0822-4.64852,158.9662-11.13597l19.2873-1.92845,0.8532,0.84243,0.8533,0.84243-5.3533,3.43214c-2.9442,1.88767-57.5532,37.1055-121.3532,78.26183-63.8,41.15634-117.35,75.65374-119,76.66093l-3,1.8311-4.5-0.1538c-2.475-0.085-12.6-0.4802-22.5-0.8791zm303.5-48.05276c0-1.20532,92.7396-153.41774,96.6661-158.65682l2.4357-3.25h205.3266,205.3267l1.1285,1.35971,1.1284,1.35972-0.256,79.89028-0.256,79.89029-255.75,0.25193-255.75,0.25192v-1.09703zm-597.5-245.56119c-2.2-0.175-9.625-0.80376-16.5-1.39725l-12.5-1.07908-13.5-2.46744c-46.93726-8.57889-83.13541-26.56955-109.19392-54.2699l-7.4203-7.88782-6.0655-8.87207c-10.8036-15.80255-19.0071-34.27402-23.70344-53.37207l-2.58203-10.5-1.51741-11.80122-1.5174-11.80121v-15.4882-15.4882l1.05541-9.71058,1.05541-9.71059,2.52464-11.38318,2.52463-11.38318,3.48972-10.02572,3.48972-10.02571,4.33842-8.6383c2.38613-4.75107,7.03825-12.66707,10.33805-17.59111l5.99963-8.9528,7.70414-8.27724c8.92098-9.58461,18.65727-17.76231,29.98023-25.18097l8-5.2415,11.17627-5.43163,11.17627-5.43163,13.61284-4.47952,13.61285-4.47952,14.71088-2.95529,14.71089-2.95528,15-1.58177,15-1.58176,28-0.004,28-0.004,12,1.08558c16.5231,1.49477,34.56927,4.56956,50,8.51923l13,3.3275,10.57819,4.09361c13.46779,5.21185,25.12394,11.16495,36.46255,18.62236l8.95926,5.89252,12.0645,12.03166,12.0645,12.03167,5.9658,9c3.2812,4.95,7.8891,12.94364,10.2399,17.76364l4.2741,8.76364,3.8867,11.83641,3.8867,11.83641,2.0497,10.89995c5.362,28.51428,5.362,59.28562,0,87.7999l-2.0497,10.89995-3.8754,11.80193-3.8754,11.80194-5.6332,11.01274-5.6331,11.01275-7.3001,9.78537-7.3,9.78537-7.61214,7.22778c-13.19079,12.5248-26.89893,21.77972-44.3733,29.95822l-9.77956,4.57711-13,4.2814-13,4.2814-12,2.52429c-15.38611,3.23659-31.27225,5.36295-49.5,6.6256l-14.5,1.00442-16.5-0.15821c-9.075-0.087-18.3-0.30139-20.5-0.47638zm37.5-65.37593,9.5-0.99563,7.46489-2.04293,7.46489-2.04293,6.02212-3.1941,6.02212-3.19411,5.69058-5.67759,5.69059-5.6776,3.54139-7.36285,3.54139-7.36285,1.97081-8.45955c1.08396-4.65276,2.51651-12.95956,3.18346-18.45956l1.21264-10,0.036-41,0.036-41-1.21277-10c-0.66703-5.5-1.91952-12.925-2.78332-16.5l-1.57055-6.5-3.86242-8.10277-3.86243-8.10276-6.01987-5.57334-6.01987-5.57334-6.27282-3.05228-6.27281-3.05227-5.88722-1.50264c-3.23798-0.82645-9.76298-2.02097-14.5-2.6545l-8.6128-1.15185-13.5,0.58645-13.5,0.58645-8.4008,2.06731-8.40079,2.06731-6.34544,3.0284-6.34544,3.0284-5.87277,5.43715-5.87277,5.43715-3.69146,7.02487-3.69147,7.02487-2.37947,9.38017-2.37948,9.38017-1.17368,14.5439-1.17368,14.54389,0.52492,38.31463,0.52493,38.31463,1.10455,7.65202c0.60751,4.20862,1.9843,11.09178,3.05954,15.29592l1.95497,7.64389,3.07846,6.45032,3.07845,6.45032,5.56687,6.01288,5.56687,6.01289,8.13385,3.98577,8.13384,3.98578,6.05405,1.51272c12.73818,3.1829,26.69157,4.01351,41.44595,2.46719zm438.5,64.93164c-4.95-0.54067-14.4-2.07125-21-3.4013l-12-2.41828-11-3.60661-11-3.6066-12.5-5.99427-12.5-5.99426-11.5-7.63758-11.5-7.63759-12.5787-12.55242-12.5786-12.55243-7.202-10.84923-7.2019-10.84924-4.3792-9.15076-4.3793-9.15077-3.5461-10.63321-3.546-10.63321-2.0437-10.36679c-1.1239-5.70173-2.486-14.64179-3.0267-19.86679l-0.9831-9.5-0.017-12.78941-0.017-12.78942,1.036-9.71058c0.5698-5.34083,1.9598-14.38116,3.0888-20.08964l2.0529-10.37906,3.4943-10.62094,3.4942-10.62095,5.3239-10.69441,5.3239-10.69442,6.2751-9.16185,6.275-9.16186,9.9545-10.42617,9.9545-10.42616,9.1134-6.77259c14.4788-10.75978,23.4555-15.95716,39.1135-22.6463l11-4.69922,11.8165-3.40463,11.8165-3.40462,12.1835-2.25306,12.1835-2.25306,31,0.0182,31,0.0182,14,1.29348c39.5639,3.65539,71.5427,10.25297,96.8949,19.99055l7.0862,2.72171,0.3435,1.78403,0.3436,1.78404-13.2564,30.94403-13.2563,30.94404h-0.9848c-0.5417,0-6.9193-2.03347-14.1727-4.51882l-13.1878-4.51881-13.4051-2.93024-13.4051-2.93025-14.5-1.67121-14.5-1.67121-12,0.58973-12,0.58973-8.3179,2.03162-8.3179,2.03163-7.1821,3.34766-7.1821,3.34765-6.3092,4.78051-6.3092,4.78051-4.9564,6.12075-4.9564,6.12075-3.9262,7.54085-3.9262,7.54085-2.6084,7.95915-2.6084,7.95915-1.8888,11-1.8888,11-0.6916,12.5-0.6916,12.5,1.1989,13.71997,1.1989,13.71996,2.3974,10.61008,2.3974,10.61009,3.4538,7.98849c1.8996,4.39367,4.9525,10.52597,6.7843,13.62733l3.3305,5.63884,6.5,6.57191,6.5,6.5719,6.1306,3.72059c7.2866,4.42213,16.9715,8.19683,26.754,10.42738l7.1154,1.62242,16,0.0153,16,0.0153,11.5-1.73707c6.325-0.95539,16.4484-2.84766,22.4964-4.20506l10.9964-2.46799,13.7917-4.65093,13.7916-4.65093,1.3115,1.42621c1.5995,1.73935,26.6124,60.18492,26.6124,62.18287v1.42232l-2.75,1.29245c-5.7015,2.67961-25.8055,9.09001-37.5533,11.97431-15.8049,3.88042-38.9846,7.58883-59.6967,9.55059l-16.5,1.56281-27,0.41261-27,0.41262-9-0.98302zm424.5,0.50508c-2.475-0.20861-10.35-0.87807-17.5-1.48769-28.2266-2.40661-57.6346-8.23186-81.3941-16.12284l-12.6059-4.18667-14.5-7.26415-14.5-7.26416-9.9629-7.79046-9.963-7.79045-6.2994-7.5-6.2995-7.5-4.4255-8.53866-4.4256-8.53867-2.1628-7.46133-2.1629-7.46134-0.5131-13.5-0.5131-13.5,1.6826-8.9445c2.8155-14.96691,6.9553-25.2965,14.8507-37.0555l4.0286-6,7.1708-7.11009,7.1707-7.11009,7.631-5.14932c4.197-2.83213,12.0329-7.34954,17.4129-10.03869l9.782-4.88937,10.4992-3.65889c25.576-8.91296,55.2671-14.39324,95.4993-17.62693l14-1.12526,32.5-0.64568,32.5-0.64568,0.3273-5.5,0.3274-5.5-1.1307-11c-1.3638-13.26812-2.5143-18.30372-5.8004-25.38782l-2.4992-5.38782-3.961-3.96093-3.9609-3.96093-6.3746-2.98302-6.3746-2.98303-8.7766-1.53001-8.7767-1.53002-30,0.52177-30,0.52177-13,2.03985c-20.2141,3.17182-35.4817,7.74195-55.9716,16.75427-10.4974,4.61724-12.0234,5.01211-13.0361,3.37345-0.3442-0.55686-4.8592-12.56214-10.0334-26.67841l-9.4076-25.66595,1.0371-1.24974,1.0372-1.24975,8.4952-3.07391c26.0211-9.41553,65.1155-16.32681,108.1726-19.1232l18.2934-1.18808,34.2066,0.53165,34.2066,0.53166,11.5,1.60661c24.4395,3.41432,41.7329,7.6652,59.4979,14.6251l10.0021,3.91859,8.1632,4.76395c4.4897,2.62017,11.8209,7.64515,16.2916,11.16662l8.1285,6.40267,5.8098,7.22205c10.9653,13.63058,17.2024,26.25009,21.0711,42.6327l1.9695,8.33991,1.0323,11,1.0323,11,0.0009,102.17857,0.0008,102.17857-1.3962,1.39617-1.3961,1.39617-15.3539,4.65836c-37.6329,11.41783-73.7813,18.79115-113.8538,23.22313l-14.5,1.60369-29,0.32553c-15.95,0.17904-31.025,0.15484-33.5-0.0538zm59.9408-67.48735,7.4407-0.91835,0.7939-1.25036,0.794-1.25036,0.015-53.62756,0.015-53.62755-1.4978-1.24305-1.4978-1.24305-24.2522,1.11066-24.2522,1.11065-10,1.51564c-5.5,0.8336-13.6,2.43775-18,3.56478l-8,2.04914-8.1452,3.923-8.1451,3.92301-5.5807,5.10047-5.5808,5.10047-3.0399,6.17502-3.04,6.17502-1.0498,6.49668-1.0498,6.49667,0.6339,6c0.3486,3.3,1.2671,8.58059,2.041,11.73465l1.4072,5.73465,2.6408,5.21141,2.6408,5.2114,5.5815,5.85165,5.5816,5.85166,5.6828,3.45216c10.8975,6.61988,25.1624,10.6917,43.6153,12.44967l8.8064,0.83897,14-0.49941c7.7-0.27467,17.3483-0.91265,21.4408-1.41774zm-1672.27413,59.41426-0.66667-0.66666,0-234.76595,0-234.76594,1.75-0.49551c0.9625-0.27252,71.275-0.62676,156.25-0.78719l154.5-0.29169,13.41689,1.72817,13.41689,1.72817,11.58311,2.59622c15.29402,3.42797,27.37425,7.51126,39.58311,13.37965l10,4.80667,8.7598,6.24451,8.75979,6.24452,6.86669,7.22883c8.13317,8.56212,13.38377,16.07407,18.8601,26.98287l4.01609,8,2.54683,8.07392c1.40076,4.44065,3.28387,11.86565,4.18469,16.5l1.63786,8.42608,0.57064,13.5,0.57064,13.5-1.21671,10.449-1.21672,10.44901-2.35299,9.05618-2.353,9.05619-3.57689,8.35687-3.57689,8.35687-5.6065,8.63794-5.60651,8.63794-9.13346,9.03791-9.13346,9.03792-9.44671,6.29983c-10.53699,7.02691-20.58074,12.29656-33.73222,17.69828-4.85159,1.99269-9.20359,3.98377-9.67112,4.42462l-0.85006,0.80155,58.60006,105.22479c32.23003,57.87363,58.60005,105.84361,58.60005,106.59995v1.37515h-83.96029-83.96029l-22.01533-43.75c-22.78516-45.27985-46.53182-90.56147-63.84832-121.75l-9.99397-18-31.29292-0.2645-31.29292-0.2645-0.80267,1.2645-0.80266,1.2645-0.0153,90.75-0.0153,90.75h-73.83333-73.83334l-0.66666-0.66667zm184.83333-256.42565c61.08668-5.66472,95.7592-23.59109,113.36337-58.61109l3.11839-6.20342,2.59351-8.79658,2.59351-8.79659-0.55133-7-0.55132-7-1.90974-5.5481c-1.05036-3.05146-2.92944-7.55146-4.17573-10l-2.26599-4.4519-6.15738-6.0456-6.15737-6.04559-8.44996-4.15727-8.44996-4.15728-8-2.0321c-4.4-1.11765-11.15-2.53258-15-3.14428l-7-1.11218-43.25728-0.51926-43.25727-0.51925-1.49273,1.23885-1.49272,1.23885v70.29577,70.29577l0.65781,1.71421,0.65781,1.71422,12.09219-0.66856c6.6507-0.36771,17.04219-1.12759,23.09219-1.68862z"/>
<path id="path3147" inkscape:connector-curvature="0" fill="#639ac7" d="m50.0714,1000.1117c-68.108-3.96951-133.46788-12.95024-312-42.87017-130.28641-21.83451-177.15919-28.73262-229-33.7012l-19-1.82101-43.5,0.0669-43.5,0.0668-19,1.21015c-78.00852,4.96849-146.58572,13.75704-231.5,29.66801-25.04843,4.69349-70.6055,14.01521-85.72864,17.54146l-8.43124,1.96591-0.92006-0.56863-0.92006-0.56863,0.0153-71.19099,0.0153-71.19098,0.766-1.20518,0.76601-1.20518,29.96868-7.50458c104.37919-26.138,178.4156-37.02624,275.86578-40.57046l27.89711-1.0146,57.1029,0.006,57.1029,0.006,21.5,1.00679c75.80693,3.54987,127.62474,10.61129,275,37.47537,144.95062,26.4221,195.1397,33.43802,269,37.60345l20.5,1.15612,47-0.5669,47-0.56689,17-1.0719c26.0344-1.64154,66.2401-4.88076,94.5-7.61351,14.025-1.35622,28.5984-2.75389,32.3854-3.10594l6.8854-0.64009-0.3854,1.13129-0.3854,1.13128-122.5,79.02315-122.5,79.02316-13.5-0.1441c-7.425-0.079-19.8-0.5112-27.5-0.96zm317.1429-46.66124-0.4776-0.77273,49.0243-80.22921,49.0244-80.2292,206.3989,0,206.3989,0-0.2559,80.75-0.2559,80.75-254.6898,0.25193-254.6898,0.25194-0.4775-0.77273zm305.8571-246.2756c-38.4719-1.76127-74.5337-8.13515-104.5002-18.4703l-10.4998-3.62125-11.4293-5.4591-11.4293-5.45909-8.5338-5.67819-8.5338-5.67819-7.4117-7.04034-7.4116-7.04035-4.348-6.09312-4.3479-6.09312-3.5114-7.41124-3.5114-7.41125-2.0418-8-2.0418-8-0.6037-8.5-0.6037-8.5,1.1697-9c2.9666-22.82659,10.3109-39.07491,24.5895-54.40116l6-6.44024,7.9685-5.92713,7.9686-5.92714,13.0314-6.38753,13.0315-6.38753,10.5-3.40793c22.0895-7.16949,47.9979-12.14465,78.5-15.07429l16-1.53675,25-0.99221c13.75-0.54572,31.0271-0.99803,38.3936-1.00515l13.3936-0.0129-0.5649-15.25-0.5649-15.25-2.0229-7.69172c-2.5059-9.52827-4.1834-12.82112-9.4327-18.51596l-4.1286-4.47895-5.5366-2.78833-5.5366-2.78833-8-1.86836-8-1.86835-27,0.0644-27,0.0644-11.5,1.26877c-6.325,0.69782-16.2004,2.16454-21.9453,3.25938l-10.4452,1.99061-11.5548,3.81313c-6.3551,2.09721-16.7297,6.08511-23.0547,8.86198l-11.5,5.04886-1.1776-1.18575-1.1777-1.18576-9.2072-25.23509-9.2071-25.23509,1.151-1.38686,1.1509-1.38686,7.2339-2.59829c23.8099-8.55216,55.7767-14.73633,93.7338-18.13338l17.5-1.56619,27-0.61503,27-0.61503,17.5,1.17342,17.5,1.17342,13.8556,2.00058,13.8556,2.00057,13.2308,3.39101,13.2308,3.391,10.4136,4.12376,10.4136,4.12376,8.3765,4.69709,8.3765,4.69709,8.0891,6.50006,8.089,6.50006,5.8754,7c13.0006,15.48931,20.5686,33.36914,23.6277,55.82236l1.0658,7.82236v107.47867,107.47866l-3.25,1.35059c-1.7875,0.74283-12.087,3.87623-22.8879,6.96311-46.1517,13.19022-88.0888,20.31086-132.9719,22.57774-20.9195,1.05657-21.4928,1.05609-45.3902-0.0379zm51.644-65.99396c5.6958-0.57114,11.1473-1.27766,12.1144-1.57005l1.7583-0.53161-0.2583-55.67996-0.2584-55.67996-23,0.16412-23,0.16412-13.5,2.02313-13.5,2.02313-8.9628,2.62003-8.9627,2.62003-6.8585,3.60404-6.8586,3.60404-4.9128,4.41707-4.9128,4.41707-3.7659,7.61974-3.7659,7.61975,0.0002,12.55187,0.0002,12.55186,1.8881,5.5c1.0384,3.025,2.9117,7.54529,4.1628,10.0451l2.2747,4.54509,4.6,5.1163,4.6,5.1163,5.737,3.81559,5.737,3.81559,8.5,3.19622,8.5,3.19621,8.5,1.54194c11.6658,2.11622,13.5146,2.26912,29.644,2.45162l14.1441,0.16004,10.3559-1.03842zm-965.644,65.39402c-13.87491-1.43345-29.65643-3.76233-40.30799-5.94827l-12.308-2.52586-12.4712-3.98697-12.4712-3.98697-9.25231-4.20377c-13.30853-6.04669-25.05203-12.84972-34.76506-20.13947l-8.4732-6.35924-9.97552-10.37836-9.97552-10.37837-5.64231-8.47416c-3.10328-4.66079-7.68438-12.56516-10.18024-17.56526l-4.53792-9.09111-3.60278-10.35053-3.60278-10.35053-2.4269-12.05837-2.42689-12.05836-1.15209-13.5-1.15208-13.5,0.6616-12.5c2.05033-38.73824,10.90868-67.72187,28.87534-94.47727l6.0589-9.02273,10.39572-10.67134,10.39573-10.67134,9.16835-6.54079c5.04259-3.59744,13.21835-8.78635,18.16835-11.53091l9-4.99011,11.15144-4.46855c20.65441-8.27655,44.1205-13.84056,70.84856-16.79881l12-1.32815,33.5,0.0561,33.5,0.0561,16.46954,2.21408,16.46953,2.21407,11.53047,2.57077c30.02526,6.69426,55.4026,17.76042,76.03046,33.15418l7.5,5.59696,8.52242,8.64616,8.52238,8.64616,6.1009,8.92272,6.1009,8.92271,4.6936,9.36322c5.9987,11.96674,9.7012,22.04987,12.9167,35.17624l2.5624,10.46054,1.5404,11.80122,1.5403,11.80121v19.39757,19.39757l-1.5403,11.80121-1.5404,11.80122-2.5575,10.5-2.5575,10.5-3.4393,8.94657c-1.8916,4.92061-5.7221,13.31167-8.5121,18.64679l-5.0727,9.70024-6.2997,8.39377-6.2996,8.39377-9.87271,9.45943-9.87272,9.45943-8.48474,5.6861c-4.6666,3.12736-12.30208,7.7151-16.96773,10.19499l-8.483,4.50887-11.5,4.40641c-19.34651,7.41293-38.15414,11.97943-63,15.29642l-12.5,1.66878-33.5,0.25364c-18.425,0.1395-35.3,0.0677-37.5-0.15961zm60.5-65.81965,7.5-1.76189,7.28622-3.3387,7.28622-3.33869,6.35144-6.09897,6.35145-6.09897,3.05206-5.72625,3.05206-5.72625,2.45735-8.47983,2.45736-8.47982,1.35292-9.99329,1.35292-9.99329,0-45.5,0-45.5-1.26898-8.61278c-0.69794-4.73702-1.94221-11.26202-2.76503-14.5l-1.49605-5.88722-3.65217-7.5-3.65216-7.5-5.80738-5.70019-5.80738-5.70019-7.27543-3.44798-7.27542-3.44798-6.56218-1.6014-6.56218-1.6014-11.1771-0.89847-11.1771-0.89847-11.46006,0.91578-11.46007,0.91578-8.7787,2.54397-8.7787,2.54396-4.98201,2.6883-4.98201,2.68829-5.66183,5.52058-5.66184,5.52057-3.572,7.09303-3.57199,7.09303-1.98079,7.8864c-1.08944,4.33751-2.46343,11.93639-3.0533,16.88639l-1.07251,9-0.003,41.78941-0.003,41.78942,1.05298,9.71058c0.57914,5.34083,1.94665,13.53559,3.0389,18.21059l1.98591,8.5,3.67636,7.44451,3.67637,7.44451,5.55532,5.67738,5.55531,5.67738,6.97943,3.48999c8.64623,4.32345,12.5938,5.6194,22.32448,7.32893l7.65494,1.34485,16-0.30485,16-0.30485,7.5-1.7619zm415.5,64.50343c-22.5981-3.59348-42.0211-9.77567-61.5-19.57499l-10.5-5.28228-8.6718-5.84106c-4.7695-3.21258-12.3448-8.98511-16.8339-12.82784l-8.1621-6.9868-7.1661-8.33285c-3.9413-4.58306-9.7347-12.16956-12.8741-16.85887l-5.7079-8.52603-4.4607-9.15433c-2.4533-5.03488-6.0871-13.85307-8.075-19.59597l-3.6144-10.44163-2.4562-12.13075-2.4562-12.13074-1.0425-14.67762-1.0424-14.67762,1.0155-14.25,1.0155-14.25,1.6228-9.5,1.6228-9.5,3.4455-11.5,3.4454-11.5,5.8331-12.12996,5.8331-12.12996,5.5919-8.37004c3.0756-4.60352,8.684-11.92579,12.4632-16.27172l6.8711-7.90168,7.9017-6.87774c4.3459-3.78276,12.1767-9.75121,17.4017-13.26323l9.5-6.38549,11.0482-5.5118,11.0481-5.5118,11.6036-4.00107,11.6035-4.00108,11.3483-2.4993c6.2416-1.37462,15.6233-3.08447,20.8483-3.79967l9.5-1.30036,24.5,0.14267,24.5,0.14266,14.5,1.11535c30.2051,2.32339,58.1121,6.89225,80.5,13.17925,12.8261,3.60185,26.425,8.5773,28.3364,10.36748l1.3363,1.25165-13.192,30.87792c-7.2557,16.98286-13.4926,31.20349-13.8599,31.60141l-0.6678,0.72349-11.4765-4.04471c-20.567-7.24855-42.6397-11.86791-66.0348-13.8198l-11.5583-0.96433-10.0502,0.94565-10.0501,0.94564-7.8916,1.98944-7.8915,1.98944-8.5,4.17353-8.5,4.17354-9.0468,9.08231-9.0468,9.08231-4.5771,9c-5.4757,10.76692-8.1818,18.74157-10.8795,32.06069l-2.0131,9.93931-0.6122,18.62104-0.6121,18.62104,1.2484,11.37896,1.2483,11.37896,2.2931,9.07364c2.9189,11.54996,6.738,21.10096,11.9114,29.78899l4.0864,6.86262,8.1559,7.73542,8.1559,7.73542,8.3441,4.10076,8.3441,4.10077,8,2.13405,8,2.13406,13.6093,0.55194,13.6092,0.55194,11.3908-1.17454,11.3907-1.17455,14.8319-2.97367,14.8319-2.97367,13.1681-4.54813c7.2425-2.50147,13.9804-4.63294,14.9733-4.73659l1.8051-0.18846,13.4471,31.34195,13.447,31.34196-0.5207,0.8425c-0.7519,1.21658-14.3355,6.31658-26.2559,9.85788-18.486,5.49178-40.2093,9.5522-68.2278,12.75289l-13.5,1.54216-34.5,0.38412-34.5,0.38412-12-1.9082zm-1161.5-5.99767-16.5-0.54171-0.2521-234.28058-0.2521-234.28058,1.43108-0.54915,1.43108-0.54916,157.82102-0.17027,157.82102-0.17026,12,1.78612c6.6,0.98237,17.50468,3.10958,24.23262,4.72714l12.23263,2.94101,9.76737,3.64706c12.6854,4.73662,18.92725,7.92105,29.85984,15.23374l8.95128,5.98741,8.48873,8.83876,8.48874,8.83876,3.61302,5.5c11.37715,17.31914,17.40347,35.77792,19.91495,61l1.14511,11.5-0.65115,8.5c-0.35813,4.675-1.34918,12.775-2.20232,18l-1.55118,9.5-2.5062,8-2.5062,8-3.91359,7.86815c-2.15248,4.32749-5.58698,10.40249-7.63222,13.5l-3.71863,5.63185-7.94669,8.30466-7.9467,8.30466-7.0597,5.31091c-3.88284,2.921-11.09712,7.62501-16.03174,10.45336l-8.97203,5.14246-12.35685,5.1892-12.35684,5.1892,0.4235,2.05278c0.23293,1.12902,26.60646,49.04223,58.60786,106.47378l58.18437,104.42101-0.83481,0.83481-0.83481,0.83481-82.94418-0.25582-82.94418-0.25582-22.5-44.51769c-33.05506-65.40155-71.51016-137.41284-74.34319-139.21557l-1.15681-0.73611-20.5,0.10722c-11.275,0.059-25.225,0.38958-31,0.73469l-10.5,0.62746-0.5,91.5-0.5,91.5-57.5,0.0417c-31.625,0.0229-64.925-0.20206-74-0.5zm151.88374-254.52394c16.64511-0.75292,33.97643-2.8531,49.67462-6.0195l12.05837-2.43224,10.38894-3.61615c11.98552-4.17189,17.75733-6.94431,27.40931-13.16575l6.91498-4.45723,5.95228-5.66345,5.95229-5.66345,4.40378-6.15648,4.40378-6.15648,3.89758-8.34352,3.89758-8.34352,1.58137-6.14434,1.58138-6.14435v-6.39556-6.39555l-1.53119-5.87865-1.53119-5.87864-3.06791-5.75598-3.0679-5.75597-4.28171-4.46865c-2.35495-2.45775-6.69785-6.09947-9.65091-8.0927l-5.36919-3.62405-7.57747-2.92868-7.57746-2.92869-10.42254-2.27144-10.42253-2.27145-46.5-0.0327-46.5-0.0326-0.25663,72.43689-0.25662,72.43688,1.24832,0.77151,1.24831,0.7715,2.00831-0.39681c1.10457-0.21825,8.03099-0.66924,15.39205-1.0022z"/>
<path id="path3145" inkscape:connector-curvature="0" fill="#4687bd" d="M62.0205,1000.1882c-68.4197-3.0268-133.80005-11.71986-311.9491-41.47725-173.33552-28.95335-215.38475-34.77853-270.59547-37.48625l-20.59547-1.01007-34.90453,0.9848c-75.72937,2.13665-142.28973,8.92159-226.73042,23.11212-38.68724,6.50152-102.44766,18.92358-129.98616,25.32443-3.74663,0.87084-7.45913,1.58334-8.25,1.58334h-1.43795v-71.92245-71.92245l3.25-1.04924c6.38203-2.0604,59.61418-15.06527,79.75-19.4833,52.6739-11.55727,100.34027-19.06416,149.5-23.54451,33.37987-3.04219,52.77729-4.02546,102.5-5.19577l45.5-1.07093,41,0.62525c46.3358,0.70661,69.24444,1.7588,101,4.63891,62.40163,5.65959,103.09535,11.9984,250,38.94216,101.67637,18.64845,162.7635,27.25098,223.2448,31.43823l22.2449,1.54006,27.7551,0.6351,27.7552,0.63511,33-1.17271c47.4938-1.68778,97.8725-5.32427,152.5-11.00793l17.5-1.82077,0.788,0.70562,0.788,0.70561-122.288,78.91201-122.288,78.91198-5.5,0.1337c-3.025,0.074-13.6229-0.2257-23.5509-0.6649zm305.6145-47.71695c0.035-0.41356,21.9725-36.52693,48.75-80.25193l48.6864-79.5,204-0.27338,204-0.27338,2.256,0.54393,2.256,0.54394-0.256,79.72944-0.256,79.72945-254.75,0.25193-254.75,0.25194,0.064-0.75194zm-599.5636-245.848c-53.21011-4.05838-89.87473-14.66452-121.5-35.14686-16.57066-10.7321-29.53777-23.12684-41.19698-39.37851l-5.46775-7.62145-4.68172-9.06467c-2.57494-4.98557-6.20564-13.03092-8.0682-17.87855l-3.38649-8.81389-2.58202-10.5-2.58203-10.5-1.51741-11.80122-1.5174-11.80121v-15.4882-15.4882l1.05541-9.71058,1.05541-9.71059,2.52464-11.38318,2.52463-11.38318,3.51345-10.11682,3.51346-10.11682,5.04294-9.83507,5.04293-9.83507,5.48354-7.66493c3.01594-4.21571,8.39743-10.93015,11.95886-14.92097l6.47533-7.25604,9.87784-7.94543,9.87783-7.94544,9.77687-5.75697,9.77686-5.75696,11.39859-4.83319,11.39859-4.83319,11.10141-3.35478c12.54822-3.792,27.06284-6.86117,42.84918-9.06063l10.74776-1.49745,20.66965-0.98796,20.66964-0.98797,21.17991,0.97273,21.1799,0.97272,11.53996,1.51275c30.06404,3.94106,54.92358,11.05378,77.03557,22.04117l9.15284,4.54802,9.5385,6.35696,9.5385,6.35696,8.75946,8.20441,8.75944,8.20442,7.2923,9.68054,7.2922,9.68053,5.764,11.26854,5.764,11.26853,3.8754,11.80194,3.8754,11.80193,2.0497,10.89995c5.362,28.51428,5.362,59.28562,0,87.7999l-2.0497,10.89995-3.8182,11.62793-3.8183,11.62793-4.2487,8.47212c-5.5183,11.004-11.7962,20.67849-19.3867,29.87592l-6.1103,7.4038-8,6.94278c-4.4,3.81853-12.03569,9.64527-16.96821,12.94832l-8.96821,6.00555-11.20806,5.42936-11.20806,5.42936-13.61284,4.47952-13.61285,4.47952-14.71088,2.94214c-8.09099,1.61817-20.78589,3.6614-28.21089,4.54051l-13.5,1.59838-26,0.34113c-14.3,0.18761-28.25,0.16951-31-0.0402zm38.5-63.43338c5.225-0.54713,12.2-1.67638,15.5-2.50944l6-1.51465,7.33246-3.4631,7.33247-3.4631,6.18999-6.26013,6.18999-6.26013,3.2842-6.24627,3.2842-6.24628,2.33751-9.25372,2.3375-9.25373,1.06735-10.5,1.06735-10.5,0.63353-26,0.63352-26-1.10154-22-1.10154-22-1.96085-9.5-1.96085-9.5-4.0219-8.13055-4.02189-8.13056-5.44516-5.44516-5.44517-5.44516-5.81558-3.07659c-3.19858-1.69212-8.75531-3.97571-12.3483-5.07463l-6.53272-1.99806-9.89702-1.24574-9.89702-1.24574-13.07026,0.62471-13.07027,0.62472-8.5,2.06241-8.5,2.06242-7.14103,3.52427-7.14102,3.52427-5.64014,5.59534-5.64014,5.59533-3.95889,8.08936-3.9589,8.08936-1.49096,5.88722c-0.82003,3.23798-2.062,9.76298-2.75994,14.5l-1.26898,8.61278,0.00001,45v45l1.25189,9.09744c0.68854,5.00359,2.15366,12.65359,3.25583,17l2.00395,7.90256,3.04399,6.22394,3.04399,6.22393,5.10221,5.58263,5.10221,5.58263,4.41548,3.03793,4.41548,3.03793,7.68248,2.79785,7.68248,2.79784,7.5,1.11419c14.89409,2.21265,21.20453,2.41156,34,1.07168zm439,62.96915c-18.1161-2.01653-34.6073-5.85874-52-12.11523l-8.5-3.05762-12.5-6.41329-12.5-6.41329-9.5-6.72013-9.5-6.72014-11-11-11-11-6.3513-9-6.3514-9-6.3777-13-6.3776-13-2.9087-9c-3.548-10.97801-6.7927-26.77582-8.113-39.5l-0.9856-9.5-0.017-12.78941-0.017-12.78942,1.036-9.71058c1.4261-13.36716,4.5367-28.53984,8.0981-39.50112l2.9923-9.20947,6.3354-13,6.3355-13,6.3514-9,6.3513-9,11-11,11-11,9.5-6.71559,9.5-6.71559,11.5-5.95499c20.1343-10.42603,39.7184-16.92531,62.6224-20.78213l10.8769-1.8317,30.5,0.0131,30.5,0.0131,14,1.2994c39.1217,3.63105,67.8054,9.44763,94.8532,19.23468l8.6468,3.12878v1.43173c0,1.55604-24.7649,60.36218-25.979,61.68921l-0.7412,0.81009-13.5225-4.58718-13.5225-4.58719-13.3674-2.92196-13.3674-2.92197-14.5-1.67121-14.5-1.67121-12,0.58973-12,0.58973-8.5,2.05641-8.5,2.05641-9.1594,4.52363-9.1594,4.52363-6.6512,6.09464-6.6512,6.09465-3.8026,5.60585c-5.2798,7.78382-9.6293,16.68074-12.6286,25.8317l-2.548,7.77416-1.8888,11-1.8888,11-0.6916,12.5-0.6916,12.5,1.1989,13.71997,1.1989,13.71996,2.3526,10.4118,2.3526,10.41181,2.7168,6.86823c1.4942,3.77753,4.5293,10.01823,6.7446,13.86823l4.0278,7,7.5845,7.5,7.5845,7.5,5.7584,3.37718c6.8358,4.009,16.4719,7.62795,26.1899,9.83593l7.0517,1.60219,15.5,0.0241,15.5,0.0241,12-1.73802c6.6-0.9559,16.95-2.84762,23-4.20382l11-2.46581,13.3551-4.52618c7.3453-2.4894,13.7939-4.37992,14.3303-4.20115l0.9751,0.32504,12.9197,30.36551c7.1059,16.70103,12.9198,30.76749,12.9198,31.25879v0.89328l-4.3586,1.86833c-21.4677,9.20211-57.4514,17.02188-94.6414,20.56693l-16.5,1.57282-27,0.40335-27,0.40334-8.5-0.94614zm422.5,0.44384c-34.9591-2.17515-70.8992-8.66196-97-17.50752l-12-4.0668-11.4266-5.41902-11.4265-5.41902-9.5735-6.38342-9.5734-6.38343-7.235-7.13497-7.235-7.13497-3.8782-5.7172c-2.1329-3.14445-5.2783-8.49431-6.9896-11.88856l-3.1116-6.17137-2.1173-7.32863-2.1173-7.32863-0.5415-12.77264-0.5416-12.77265,1.2325-7.72735,1.2326-7.72736,2.8773-9,2.8773-9,4.4188-7.5,4.4187-7.5,4.9928-5.68007c11.0786-12.60353,22.2575-20.67893,40.5899-29.32142l11.1272-5.24572,9.5-3.09888c24.3787-7.9523,53.3463-13.17716,89.5-16.14307l13-1.06647,33.5-0.603,33.5-0.60301,1.3897-1.10753,1.3896-1.10754-0.6467-12.01164c-0.7462-13.85892-1.9073-21.78677-4.3111-29.43542l-1.7046-5.42376-3.0584-4.5489-3.0585-4.54891-4.7921-3.60727-4.7922-3.60728-6.2078-2.15526-6.2079-2.15525-7.5-1.13671-7.5-1.13672-29.5,0.54776-29.5,0.54775-10.5,1.56803c-20.8054,3.107-37.3278,7.89739-57.6935,16.72719-6.1565,2.66921-11.6058,4.8531-12.1097,4.8531h-0.9163l-9.1402-24.99528c-5.0272-13.7474-9.1403-25.85484-9.1403-26.90543v-1.91014l8.558-3.09665c25.4792-9.21946,64.7751-16.25624,106.4818-19.06788l15.5399-1.04761,28.4708-0.0102,28.4708-0.0102,12.4893,1.07143c16.1951,1.38934,29.7391,3.42214,43.8726,6.58475l11.3832,2.5472,10.1168,3.51637c13.0086,4.52151,24.0827,9.82984,34.1168,16.3538l8,5.20143,9.5,9.6452,9.5,9.64521,4.044,6.98895c2.2242,3.84392,5.2885,9.80497,6.8096,13.24676l2.7656,6.25781,2.4275,9.56946,2.4274,9.56945,1.0121,10.67274,1.0121,10.67273,0.0009,102.62756,0.0008,102.62755-1.25,1.03367c-1.8683,1.54497-25.8657,8.72178-45.7286,13.67587-31.6335,7.88984-53.1395,11.74162-84.5214,15.13799l-14,1.51519-29,0.31951c-15.95,0.17573-31.7,0.15152-35-0.0538zm61.5-65.46532,7.5-0.91919,1.25-1.69064,1.25-1.69065,0-53.73744,0-53.73744-1.5714-1.57143-1.5715-1.57143-1.6785,0.0245c-0.9232,0.0135-12.0286,0.45534-24.6786,0.9819l-23,0.95738-10,1.52379c-5.5,0.83808-13.6,2.44321-18,3.56696l-8,2.04318-9.0772,4.38937-9.0772,4.38938-5.5556,5.46753-5.5556,5.46753-2.5733,5.43949-2.5733,5.43948-1.0941,6.84904-1.0942,6.84903,1.0581,8.70228,1.0581,8.70228,1.4077,3.98974c2.1119,5.98568,4.3892,10.15377,8.7201,15.96011l3.9107,5.24298,7.0912,4.97994,7.0912,4.97994,7.6474,2.94917,7.6474,2.94916,8.1779,1.65705c4.4978,0.91138,12.1408,2.03459,16.9843,2.49602l8.8064,0.83897,14-0.49941c7.7-0.27467,17.375-0.91303,21.5-1.41859zm-1362,58.43679-1.5-0.41298-22.71871-45.22101c-28.15116-56.03416-65.67357-126.89414-72.0006-135.97102l-1.91688-2.75h-31.39672-31.39672l-1.03519,1.93426-1.03518,1.93426v90.07223,90.07223l-73.25-0.25649-73.25-0.25649-0.25211-233.94789-0.25211-233.94789,0.75211-0.70012,0.75211-0.70013,155-0.34302,155-0.34303,13.41689,1.74941c40.81253,5.32146,70.00602,16.69796,92.36167,35.99268l5.77855,4.98736,6.27958,7.8485,6.27959,7.84851,4.5894,8.77781c5.77409,11.04364,9.19201,20.60864,11.80425,33.03393l2.04851,9.74388,0.61597,14.57747,0.61597,14.57746-1.2439,9.92254-1.2439,9.92253-2.43138,9.5-2.43137,9.5-5.89361,12-5.8936,12-6.6395,8.24098-6.63949,8.24098-6.42014,5.44659c-14.25906,12.09683-28.48921,20.56816-47.31177,28.16508l-10.64172,4.29508,0.0628,1.80565,0.0628,1.80564,57.05489,102.5c31.38019,56.375,57.61087,103.56973,58.29041,104.87717l1.23551,2.37718-1.35324,0.85751-1.35325,0.85751-80.5-0.10068c-44.275-0.0554-81.175-0.28654-82-0.51368zm-138.5-254.37692c7.7-0.55757,20.68851-1.92674,28.86336-3.04258l14.86336-2.02882,11.47768-2.95939,11.47768-2.9594,9.49936-3.91135,9.49935-3.91135,8.11948-4.8326,8.11948-4.8326,8.54013-8.54025,8.54012-8.54026,4.08643-6.95974c4.66513-7.94535,8.67774-17.53713,10.89069-26.03321l1.52288-5.84674-0.0174-4.0399c-0.01-2.22194-0.66174-7.08067-1.4493-10.79717l-1.43192-6.75727-3.67584-6.99512-3.67583-6.99513-6.29457-5.88825-6.29456-5.88826-7.20315-3.60359-7.20315-3.60359-6.62716-1.96719c-3.6449-1.08196-10.90212-2.70732-16.12712-3.61192l-9.5-1.64473-43.55918-0.51323-43.55919-0.51322-1.69081,1.69081-1.69082,1.69082v70.49431,70.49431l1.03518,1.93426,1.03519,1.93426,4.21481-0.004c2.31815-0.002,10.51482-0.46026,18.21482-1.01784z"/>
<path id="path3143" inkscape:connector-curvature="0" fill="#2b76b3" d="m58.0714,999.58291c-85.6154-5.53764-129.98525-11.53462-317-42.84543-132.36441-22.16101-176.89515-28.77001-226.17814-33.56808l-20.82186-2.02716-29.5-0.59318-29.5-0.59317-27.5,1.16639c-75.42371,3.19904-146.14646,11.2263-231,26.21922-23.68156,4.18434-82.46272,15.86948-104.5,20.77361-7.15,1.59114-13.3375,2.68896-13.75,2.43958l-0.75-0.4534v-70.96243-70.96242l2.25-0.94035c3.24502-1.35621,37.93951-10.14675,61.11038-15.48354,78.49362-18.07889,138.49974-26.83209,216.63962-31.60159l17.5-1.06816,72.5-0.55333,72.5-0.55334,25.5,1.15405c79.69326,3.60668,129.72596,10.55696,298.82524,41.51125,106.54925,19.50426,157.74176,26.90949,223.17476,32.28323l21.5,1.76571,56.5-0.0244,56.5-0.0244,26.5-1.74576c31.8988-2.10142,64.5265-4.81051,99.3539-8.24937,14.2196-1.40405,26.0549-2.35174,26.3006-2.10598,0.2458,0.24577-54.1384,35.71154-120.8538,78.81282l-121.3007,78.36604-14.5,0.0935c-7.975,0.0514-16.75-0.052-19.5-0.22991zm310.5-47.27851c0-0.87872,91.2312-150.69527,95.2007-156.33508l1.9355-2.75h205.4319,205.4319v80,80h-254-254v-0.91492zm303.5-246.13528c-36.8805-1.83018-70.2282-7.56622-99.5-17.11471l-12.5-4.07751-12.1302-5.75283c-14.1154-6.69435-23.1625-12.3566-32.7186-20.47746l-6.8488-5.82016-5.3736-6.51463-5.3735-6.51462-3.9739-7.63828-3.9739-7.63829-2.7026-8.95065-2.7026-8.95066-0.079-14.5-0.079-14.5,1.8326-8c1.0079-4.4,3.1609-11.46885,4.7844-15.70856l2.9519-7.70855,5.0839-7.79145,5.0838-7.79144,7.1095-7.07697,7.1094-7.07698,7.8977-5.30318,7.8977-5.30318,11.1023-5.33387,11.1023-5.33387,10.5-3.42927c35.94-11.73792,74.6277-16.69412,144-18.44759l27.5-0.69509-0.1557-15.5-0.1556-15.5-2.0953-7.91383-2.0954-7.91383-2.5536-4.35748c-1.4045-2.39661-4.1213-5.9251-6.0373-7.84108l-3.4836-3.4836-5.7117-2.87674-5.7118-2.87673-8-1.86836-8-1.86835-28,0.11973-28,0.11972-13.1678,1.60961c-23.4651,2.86833-40.0825,7.41678-62.3322,17.06133l-12.5,5.41835-0.6725-0.66437c-0.3698-0.3654-4.8276-12.04655-9.9062-25.9581l-9.2338-25.29374,1.0057-1.00575c0.5532-0.55317,5.6836-2.59365,11.401-4.53442,35.9317-12.19708,90.2848-19.29407,148.2184-19.35317l18.8126-0.0192,14.6874,1.0524c8.0781,0.57883,20.9224,1.94596,28.543,3.03809l13.8556,1.98568,13.2308,3.39101,13.2308,3.391,10.4136,4.10625,10.4136,4.10624,8,4.62074c10.6489,6.1507,17.604,11.37559,25.0363,18.80788l6.1531,6.15308,4.1556,6.11933c8.002,11.78351,13.0528,23.59672,16.7721,39.2283l1.7845,7.5,0.332,112.19696,0.3319,112.19695-9.7828,3.00989c-51.8259,15.94549-97.7871,24.42547-146.7827,27.0819-19.7781,1.07232-25.7579,1.06785-48-0.0359zm52.4592-64.03002,11.4593-1.07338,1.7991-0.96283,1.799-0.96283-0.2583-56.21037-0.2583-56.21037-22.5,0.1432-22.5,0.14321-12.5,1.63577-12.5,1.63578-9.5,2.47574-9.5,2.47574-8.5,4.16187-8.5,4.16188-6.049,6.08341-6.049,6.0834-2.1866,4.70859c-1.2027,2.58973-2.6322,6.63973-3.1766,9l-0.9899,4.29141-0.024,7.59004-0.024,7.59003,1.9346,7.56408,1.9345,7.56408,2.6671,5.26321,2.6671,5.26321,5.1483,5.48702,5.1484,5.48703,5.7698,3.75824,5.7698,3.75824,8.4038,3.04085,8.4038,3.04085,8.3264,1.5117c11.4146,2.07237,13.4012,2.23901,28.8264,2.41797l13.5,0.15662,11.4592-1.07339zm-965.9592,63.38085c-9.08858-0.70681-27.81933-3.45981-39.54085-5.81162l-12.04086-2.41588-14.06556-4.52913-14.06557-4.52913-14.89358-7.46827-14.89358-7.46827-10.54216-7.94019-10.54217-7.94019-8.45783-8.89007-8.45784-8.89006-6.12329-8.95891-6.12328-8.95891-4.55695-9.0911-4.55695-9.09111-3.60278-10.35053-3.60278-10.35053-2.4269-12.05837-2.42689-12.05836-1.15415-13.5-1.15415-13.5,0.65738-13,0.65738-13,1.48865-10c4.02161-27.01504,12.39252-49.27917,26.52964-70.56087l6.27027-9.43913,11.5624-11.53426,11.5624-11.53427,9-6.05084c28.25974-18.99948,58.35382-29.4408,100.7054-34.94033l12.2946-1.5965,26-0.54589,26-0.5459,16,1.15824c35.89935,2.59874,63.94611,8.77691,89.0199,19.60939,21.72202,9.38444,36.19569,19.23316,51.90462,35.3189l6.92448,7.09062,5.9332,8.28542,5.9331,8.28542,4.9619,9.87047c6.2507,12.43411,9.9218,22.36937,13.1797,35.66899l2.5624,10.46054,1.5795,12,1.5795,12,0.031,18.56414,0.031,18.56413-1.6598,12.93587-1.6599,12.93586-2.8413,11.05082c-3.3327,12.9624-7.3814,23.52197-13.7507,35.86379l-4.6006,8.91461-5.9763,8.08539c-3.2869,4.44696-9.16557,11.39423-13.06369,15.43837l-7.08751,7.35298-9,6.75725c-30.17236,22.65358-67.4034,35.16959-119,40.00438l-11,1.03074-27.5-0.17387c-15.125-0.0956-29.525-0.33136-32-0.52383zm61-63.74195,7.5-1.73916,8.30539-3.96515,8.30539-3.96515,5.69461-5.7076,5.69461-5.7076,3.18972-6.0139,3.18973-6.01389,2.45735-8.47983,2.45736-8.47982,1.35292-9.99329,1.35292-9.99329,0-45.5,0-45.5-1.26898-8.61278c-0.69794-4.73702-1.94966-11.26202-2.78159-14.5l-1.51261-5.88722-3.45828-7.33246-3.45828-7.33247-6.26013-6.25987-6.26013-6.25987-7.5-3.55584-7.5-3.55583-6.70261-1.63662-6.70261-1.63662-11.04834-0.79839-11.04834-0.79839-11.34181,0.82003-11.34181,0.82003-8.88529,2.57486-8.88528,2.57485-5.02196,2.67919-5.02195,2.67918-6.25318,6.1697-6.25318,6.16969-3.9602,8.33942-3.96021,8.33941-2.1804,10-2.1804,10-0.4442,45.41066-0.44421,45.41065,1.10936,11.58935,1.10936,11.58934,2.07036,8.5,2.07037,8.5,3.55254,7.5,3.55255,7.5,6.6156,6.5,6.61561,6.5,6.77408,3.27682,6.77407,3.27682,8.21604,1.91618c12.02019,2.80341,12.74993,2.86585,30.21604,2.58516l16-0.25713,7.5-1.73917zm415.5,62.4807c-34.0852-5.42012-62.4664-17.06554-88.0356-36.123l-9.0357-6.73452-9.9643-10.36135-9.9644-10.36135-6.1238-8.97958-6.1239-8.97958-5.0583-10.09666-5.0583-10.09665-3.6009-10.34498-3.6008-10.34498-2.4451-12.07577-2.4451-12.07578-1.0872-14.64599-1.0873-14.64599,1.0702-15.23476,1.0701-15.23476,2.4622-12.1602,2.4622-12.16021,3.6008-10.34498,3.6009-10.34498,5.0583-10.09665,5.0583-10.09666,6.1239-8.97323,6.1238-8.97323,9.5-9.91413,9.5-9.91412,8-6.20861c10.9024-8.4611,17.9198-12.79032,31.8364-19.64077l11.8365-5.82648,12.2537-3.98656,12.2537-3.98657,12.4098-2.4893,12.4099-2.48931,14.6997-1.16363,14.6998-1.16363,25.3002,1.11903,25.3003,1.11904,14.3897,1.53034c19.207,2.04267,40.048,5.69836,56.4462,9.90116l13.4507,3.44736,9.8567,3.66074c5.4212,2.01341,10.2324,4.01194,10.6916,4.44119l0.8348,0.78045-12.7482,29.86513c-7.0116,16.42582-13.1367,30.3756-13.6114,30.99951l-0.8631,1.13437-11.2235-3.9556c-20.4283-7.19974-43.3381-11.97429-65.4806-13.64658l-11.2571-0.85019-10.2429,0.80882-10.2429,0.80882-8,2.04889-8,2.04889-7,3.34005-7,3.34005-6.3092,4.7733-6.3092,4.7733-4.9564,6.12075-4.9564,6.12075-4.0609,7.79968c-5.2357,10.05619-8.3803,19.4034-11.1516,33.14772l-2.2286,11.0526,0.024,24,0.024,24,1.7605,9.35152c2.2552,11.97911,5.9769,23.79253,10.2856,32.64848l3.4058,7,5.102,6.79832,5.1021,6.79832,6.1341,5.00962,6.1342,5.00962,8,3.88,8,3.87999,8.5,2.30741,8.5,2.3074,20.5-0.0955,20.5-0.0955,12-2.17534c15.9696-2.89493,29.8352-6.44239,42-10.74553,5.5-1.94555,10.6684-3.61421,11.4854-3.70813l1.4854-0.17077,13.2031,30.5c7.2617,16.775,13.2308,30.80479,13.2646,31.17731,0.086,0.94961-13.5052,6.081-25.7107,9.70698-18.3757,5.45899-40.8844,9.6985-67.2278,12.66234l-14.5,1.63136-34.5,0.38479-34.5,0.3848-12-1.9082zm-1162.25-5.78736-15.25-0.30411,0-233.50534,0-233.50534,1.46506-0.5622,1.46507-0.56219,157.78493-0.15642,157.78494-0.15642,14,2.25215c30.84625,4.96216,51.90643,12.29458,71.1124,24.75883l8.1124,5.26478,7.17531,6.76882,7.17532,6.76883,4.96664,6.59329,4.96665,6.5933,4.38212,8.5,4.38212,8.5,2.56947,7.73261c3.42151,10.29677,5.32294,19.87013,6.70675,33.76739l1.14511,11.5-0.65115,8.5c-0.35813,4.675-1.34918,12.775-2.20232,18l-1.55118,9.5-2.5062,8-2.5062,8-3.86371,7.76818c-2.12503,4.2725-5.74447,10.53774-8.04319,13.92275l-4.17949,6.15457-7.35049,7.69367-7.35049,7.69367-8.74493,6.22257c-11.53855,8.21039-19.06557,12.35295-34.74494,19.12217l-13,5.61247,0.0608,2.40497,0.0608,2.40498,58.18919,104.41052c32.00408,57.42579,58.18921,104.56329,58.18921,104.75s-37.34882,0.33948-82.99737,0.33948h-82.99737l-18.62846-37.25c-26.91757-53.82515-66.64971-129.0453-76.14644-144.15904l-2.45625-3.90905-31.45371,0.64122-31.4537,0.64122-0.93335,0.57684-0.93335,0.57684v91.44099,91.44098l-58.25-0.22194c-32.0375-0.12206-65.1125-0.35878-73.5-0.52604zm173.02468-254.25674c6.17392-0.63907,17.30032-2.26957,24.72532-3.62333l13.5-2.46139,11.99004-4.00118,11.99005-4.00118,8.2532-4.39045c10.6473-5.66405,18.2312-11.54969,27.0498-20.99257l7.09723-7.59964,5.51855-11.21277,5.51854-11.21277,1.5413-6.14434,1.54129-6.14435v-6.39556-6.39555l-1.53119-5.87865-1.53119-5.87864-3.18795-6.08146-3.18795-6.08145-6.0809-6.0456-6.0809-6.04559-8.50241-4.2119-8.50242-4.21189-9.70313-2.4614-9.70313-2.4614-10.74442-1.08368-10.74441-1.08368-40,0.30257-40,0.30257-0.25964,73-0.25963,73,1.36235,1.00255,1.36236,1.00254,13.67195-0.67393c7.51958-0.37066,18.72336-1.19681,24.89729-1.83588z"/>
<path id="path3141" inkscape:connector-curvature="0" fill="#1366aa" d="m60.2867,999.17097c-68.2766-3.126-136.80229-12.35934-322.2153-43.41623-159.08834-26.64748-205.70399-33.01886-259.5-35.46819l-20.5-0.93336-33.5,0.88886-33.5,0.88887-23,1.55437c-81.7825,5.52698-163.13563,17.3567-267.5,38.8977-14.575,3.0083-29.56542,6.18215-33.31205,7.05299s-7.23713,1.58334-7.75667,1.58334h-0.94461l0.25667-71.25,0.25666-71.25,22.5-5.73937c91.6681-23.383,159.68062-34.77668,240.5-40.28933l21-1.4324,54.5-1.18028,54.5-1.18027,46,1.14726,46,1.14727,19,1.53133c61.31362,4.94166,117.88035,13.1862,223.23282,32.53597,174.15577,31.98665,231.60038,39.50998,317.30918,41.55687l27.458,0.65576,32.5-1.16763c46.4852-1.67006,82.986-4.20855,139.3316-9.68995,14.2074-1.38212,26.7022-2.37396,27.7664-2.20409l1.9348,0.30886-120.7664,77.99082-120.7664,77.99082-6.5,0.14213c-3.575,0.0782-14.5031-0.22428-24.2847-0.67212zm356.5447-125.70165c26.4557-43.3125,48.5824-79.08123,49.1706-79.48607l1.0694-0.73608,204.5,0.23608,204.5,0.23607,0.256,79.25,0.256,79.25h-253.9265-253.9266l48.1011-78.75zm-649.26-167.84562c-45.57456-3.9141-71.32096-9.98076-99.93405-23.5476l-12.43406-5.89558-10.06594-6.65815-10.06595-6.65814-12.5336-12.57246-12.53361-12.57245-5.5812-8.5c-10.37826-15.80575-17.63679-32.48008-22.24263-51.09587l-2.57415-10.40413-1.51741-11.80122-1.5174-11.80121v-15.4882-15.4882l1.05541-9.71058,1.05541-9.71059,2.5332-11.42137c2.94467-13.27658,6.94309-25.14213,12.47581-37.02275l3.93237-8.44412,6.68146-10.05588,6.68147-10.05588,9.54243-9.86274,9.54244-9.86274,8.44872-6.34903c15.19334-11.41745,33.76633-20.81555,54.42409-27.53907l11.87281-3.86426,11.62719-2.44595c6.39496-1.34527,16.73832-3.15488,22.98526-4.02136l11.35807-1.57541,19.14193-1.03293,19.14193-1.03294,16.5,0.60437c9.075,0.3324,23.17258,1.26302,31.32795,2.06805l14.82794,1.46369,10.67206,2.03887c13.95112,2.66534,23.7603,5.17149,35.28251,9.01436l9.38954,3.13158,12.16053,5.77131,12.16053,5.77131,7.83947,5.24313c4.31171,2.88372,11.55806,8.38773,16.10301,12.23113l8.26353,6.988,6.35373,7.63031c7.7497,9.30676,13.9894,18.88198,19.6162,30.10244l4.2487,8.47212,3.8183,11.62793,3.8182,11.62793,2.0402,10.89995c1.1221,5.99497,2.4986,15.56013,3.0589,21.2559l1.0187,10.35596v12.28809,12.28809l-1.0187,10.35596c-0.5603,5.69577-1.9264,15.20674-3.0358,21.13548l-2.0172,10.77953-3.6487,11.21075-3.6486,11.21076-5.5853,11.00971-5.5853,11.00972-4.9667,7-4.9667,7-8.98892,9.3311-8.98892,9.33109-7.02458,5.26136c-3.86352,2.89375-11.00918,7.64951-15.87924,10.56836l-8.85467,5.30699-11.36798,4.81762-11.36799,4.81761-11.54901,3.50109-11.54902,3.50109-12.72834,2.47072c-7.00058,1.35889-18.80333,3.20275-26.22833,4.09746l-13.5,1.62674-26.5,0.32982c-14.575,0.18139-28.525,0.15589-31-0.0567zm49.5-62.89256c9.09228-1.7347,17.69878-4.98279,24.26272-9.15674l5.26272-3.34651,4.42116-4.61418,4.42116-4.61418,3.51296-6.68517,3.51296-6.68517,2.01751-7.45494c1.10963-4.10021,2.5046-10.37993,3.09993-13.95493l1.08242-6.5,0.85179-25.18762,0.85179-25.18762-0.8556-28.81238-0.85559-28.81238-1.99966-9.41956-1.99966-9.41957-3.87738-8.08043-3.87739-8.08044-4.91592-5.23916-4.91592-5.23916-6-3.54629-6-3.54629-7.5-2.3634-7.5-2.36341-9-1.09833-9-1.09833-8.52623-0.003c-10.00217-0.003-22.22393,1.40553-30.54942,3.52152l-5.92435,1.50572-7.07046,3.45087-7.07047,3.45086-4.58133,4.03265-4.58133,4.03265-3.6317,5.47139-3.6317,5.47138-2.50857,6.66465c-1.37971,3.66555-3.1336,9.64158-3.89755,13.28006l-1.38898,6.61543-1.18931,14.76876-1.18931,14.76875,0.54271,37.73125,0.54271,37.73124,1.09711,8,1.09712,8,2.52114,8.93621,2.52114,8.93622,3.20939,6.06363,3.20939,6.06363,6,6.01177,6,6.01177,7.5,3.64258,7.5,3.64258,6.7539,1.64346c3.71464,0.9039,10.23964,2.03922,14.5,2.52293l7.7461,0.87947,11.5-0.50346,11.5-0.50346,7-1.33551zm428,62.39029c-4.4-0.45752-12.95-1.79964-19-2.98249l-11-2.15063-13.3939-4.37611-13.394-4.37612-10.106-4.84577c-12.3237-5.90907-21.5657-11.52791-31.8955-19.39126l-7.8313-5.9615-8.7902-8.89121-8.7902-8.8912-6.6538-9.26791-6.6538-9.26791-6.4416-13-6.4416-13-2.9831-9.20947c-3.4814-10.74775-6.6808-26.06403-8.1029-38.79053l-1.0057-9-0.01-13.78941-0.01-13.78942,1.0669-9.71058c2.296-20.89833,7.6718-40.41187,15.9703-57.96985l4.8489-10.25927,5.3809-8.24073c26.3733-40.38951,69.6821-67.09669,123.733-76.30225l9.5-1.61797,21.6929-0.53962,21.6929-0.53962,19.3071,1.18115,19.3071,1.18115,16,2.01769c28.4883,3.59252,54.4285,9.58424,73.7467,17.03411l7.7533,2.98999v1.01016c0,0.78587-24.7043,59.44224-25.5345,60.62753-0.1091,0.15568-6.8959-1.94526-15.0819-4.66875l-14.8836-4.9518-12.5-2.5339c-6.875-1.39365-16.55-3.10412-21.5-3.80105l-9-1.26715-16.5,0.013-16.5,0.013-9,2.23902-9,2.23902-9,4.38858-9,4.38858-5.2206,4.48436c-6.8409,5.87619-12.2065,12.14623-16.6405,19.44532l-3.599,5.92453-3.4636,8.96845-3.4636,8.96845-2.0356,9.98906-2.0357,9.98906-1.1932,14.67836-1.1933,14.67835,1.1934,14.77619,1.1934,14.77619,2.3703,10.49002,2.3703,10.49001,3.1655,8.20856,3.1656,8.20855,4.8241,7.38975,4.8241,7.38975,6.0909,5.92329,6.091,5.92328,5.4995,3.33302c10.7474,6.51362,22.7272,10.36862,38.0538,12.2454l9.0032,1.10245,10.5-0.66106c5.775-0.36359,16.7086-1.55227,24.2969-2.64153l13.7968-1.98047,11.2032-2.90253c6.1617-1.59639,15.8364-4.52184,21.4992-6.50101l10.2961-3.59847,0.764,0.47214c0.4202,0.25968,6.5489,13.99895,13.6193,30.5317l12.8555,30.05956-0.5723,0.57227c-0.3148,0.31475-5.6767,2.37324-11.9155,4.57443-28.8522,10.17975-62.6683,16.19704-105.8432,18.8339l-16.5,1.00773-17.5-0.12837-17.5-0.12837-8-0.83186zm417,0.0338c-32.6508-2.2992-64.5862-8.27655-90.5403-16.94642l-12.4597-4.16211-11.3694-5.40096-11.3694-5.40095-8.6306-5.72782-8.6306-5.72782-8.6314-8.53493-8.6314-8.53494-4.0378-6.27994-4.0377-6.27994-2.9967-7.22006-2.9968-7.22006-1.5841-7.70784-1.5841-7.70784,0.013-11.29216,0.013-11.29216,1.8637-9,1.8638-9,2.9954-7.69671,2.9955-7.69671,5.5817-8.38883,5.5817-8.38884,6.9983-6.60184,6.9983-6.60184,7.7046-5.19895,7.7045-5.19896,10.0931-4.78264c31.0271-14.70223,71.2246-22.83897,128.0931-25.92843l18-0.97787,22.3157-0.0192,22.3158-0.0192,1.9342-1.03518,1.9343-1.03519v-6.35886c0-3.49737-0.4727-11.01904-1.0504-16.71482l-1.0504-10.35595-1.5334-6-1.5334-6-2.6238-4.83936-2.6237-4.83936-5.2958-4.84004-5.2958-4.84004-5.7466-2.17638-5.7467-2.17638-8.5-1.5031-8.5-1.50309-29.5,0.52507-29.5,0.52507-11.2958,1.60352c-20.9912,2.97984-37.0457,7.61186-57.9929,16.73201l-11.4557,4.98767-0.7404-0.82779c-0.4073-0.45529-4.6824-11.72213-9.5003-25.03742l-8.7599-24.20962,0.5422-1.41294,0.5422-1.41295,12.3303-4.02541c26.6529-8.70124,59.2732-14.28341,100.6581-17.22517l15.3277-1.08954,29.1723-0.0111,29.1722-0.0111,12,1.11188c25.3027,2.34444,44.1965,5.96751,62.6527,12.0142l11.6526,3.81771,9.3474,4.6795c5.141,2.57373,12.4293,6.72472,16.1962,9.22442l6.8489,4.54492,7.7442,7.60744,7.7442,7.60745,4.2832,6.38117c2.3558,3.50964,6.0574,10.16702,8.2257,14.79419l3.9425,8.41302,2.4203,9.54096,2.4202,9.54097,1.0528,11.16484,1.0528,11.16485-0.2919,102.46352-0.2918,102.46352-12,3.78807c-41.3666,13.05832-91.1797,22.63274-134,25.75571l-14,1.02105-21.5-0.14067c-11.825-0.0774-26.45-0.48923-32.5-0.91525zm66.8863-63.02821c4.8874-0.52698,9.2749-1.19836,9.75-1.49196l0.8637-0.53381v-56.83258-56.83257l-2.2847-0.57342-2.2847-0.57342-23.9653,0.94428-23.9653,0.94429-10,1.52641c-5.5,0.83953-13.6,2.438-18,3.55216l-8,2.02575-9.3215,4.46002-9.3214,4.46002-5.7456,5.75855-5.7456,5.75854-2.6756,5.67246-2.6755,5.67246-0.9809,6.91582-0.9808,6.91582,0.9682,8.52125,0.9683,8.52124,1.3978,3.96173c0.7687,2.17894,2.609,6.35191,4.0893,9.27326l2.6916,5.31153,4.6658,5.02576,4.6659,5.02575,5.8556,3.80948,5.8555,3.80949,7.6602,2.95406,7.6601,2.95407,8.2971,1.6812c4.5634,0.92467,12.4313,2.04433,17.4843,2.48813l9.1872,0.80693,12.5-0.47728c6.875-0.26251,16.4988-0.90845,21.3863-1.43542zm-1362.14351,55.8423c-0.55116-0.6875-11.61008-22.4-24.57539-48.25-22.88037-45.61846-42.50812-83.03263-61.90369-118l-9.4295-17-32.68665-0.26369-32.68665-0.26369-0.98046,2.57879-0.98045,2.57879v89.4349,89.4349h-72.5-72.5v-234-234l102.25-0.25c56.2375-0.1375,126.325-0.22263,155.75-0.18917l53.5,0.0608,13,1.72355c7.15,0.94796,18.12243,2.86911,24.38318,4.26922l11.38318,2.54566,10.11682,3.49849,10.11682,3.49849,8.76732,4.39597c4.82203,2.41778,11.55528,6.28923,14.96279,8.60322l6.19546,4.20726,8.19913,7.8715,8.19913,7.87149,5.16352,7.46929,5.16351,7.46929,3.8581,8.23295,3.85809,8.23296,2.51639,8.68351,2.51638,8.68352,1.55009,10.43932,1.55009,10.43933v11.74332,11.74332l-1.57318,10.59485-1.57318,10.59484-3.04744,9.53349-3.04744,9.5335-3.50615,7c-1.92838,3.85-5.73464,10.2326-8.45834,14.18355l-4.9522,7.18355-8.69998,8.38681-8.69998,8.38681-7.47106,5.01485c-11.02815,7.40251-19.5229,11.91041-32.69329,17.3493l-11.77776,4.86378-0.93573,1.47189-0.93572,1.47188,41.38749,74.34379c22.76312,40.88909,49.13911,88.277,58.6133,105.30648l17.2258,30.96269-0.48659,0.78731-0.48658,0.78731h-81.31854-81.31854l-1.0021-1.25zm-138.43018-251.78134c8.07806-0.56724,21.3759-1.93823,29.55075-3.04666l14.86336-2.01531,11.16719-2.87934c26.78818-6.90704,44.57395-16.6171,59.3292-32.39051l6.15126-6.57572,4.1166-6.92926,4.1166-6.92926,3.63626-9.8513,3.63625-9.8513-0.0244-9.5-0.0244-9.5-2.21708-6.5-2.21709-6.5-4.50323-6.67435-4.50322-6.67435-4.26727-3.4967c-2.347-1.92319-7.15989-5.0804-10.69532-7.01602l-6.42804-3.51931-7.632-2.47945-7.632-2.47945-10.868-1.76739-10.868-1.76739-43.66243-0.0628-43.66243-0.0628-0.83757,0.83298-0.83757,0.83299-0.26937,71.30097-0.26937,71.30098,0.99462,2.61604,0.99462,2.61604h4.08736c2.24805,0,10.69668-0.4641,18.77475-1.03134z"/>
<path id="path3139" inkscape:connector-curvature="0" fill="#075fa7" d="m62.0714,998.562c-84.9923-5.04546-133.48036-11.54723-323-43.3111-146.91936-24.62398-194.89809-31.41899-248-35.12313l-17-1.18584-39.5,0.59744-39.5,0.59743-22.5,1.52952c-88.00275,5.98231-175.39099,18.76701-280.97279,41.10566-16.76003,3.54604-31.04753,6.44734-31.75,6.44734h-1.27721v-70.5-70.5h0.53993c0.29696,0,12.78446-3.11341,27.75-6.91868,84.81938-21.56695,153.32609-33.07878,229.21007-38.51632l21-1.50477,36-1.14919,36-1.14919,61,0.53522,61,0.53523,15.5,1.11403c77.05916,5.53849,122.88019,12.25715,280,41.05597,102.54343,18.7954,157.2105,26.68741,218.5,31.54374l21,1.66395,26.8836,0.645,26.8835,0.64501,33.1165-0.66176,33.1164-0.66177,25.5-1.61268c27.6541-1.74891,60.4594-4.45079,96.2354-7.92605l22.7354-2.20851-0.7354,0.73529c-0.4045,0.40441-54.4929,35.40784-120.1966,77.78539l-119.4611,77.05009-11.5389-0.18025c-6.3463-0.0991-13.7888-0.31381-16.5388-0.47707zm317.7668-63.12566c5.6283-9.23064,27.3332-44.77706,48.2332-78.99206l38-62.20908,204.75-0.008,204.75-0.008v79,79h-252.9832-252.9832l10.2332-16.78298zm-618.2668-230.88013c-42.28399-4.14426-67.7694-10.49232-94.99865-23.66283l-10.49864-5.07809-10.27953-6.87378-10.27953-6.87378-9.13952-8.67421-9.13953-8.6742-5.85482-7.34386-5.85483-7.34385-5.4767-9.3057-5.47669-9.3057-4.34151-10.85045c-4.71264-11.77797-7.6713-22.09616-10.12849-35.32265l-1.57396-8.47222-1.03072-14.67317-1.03073-14.67317,1.045-13.88811c0.57475-7.63845,1.77112-18.14803,2.6586-23.35461l1.61359-9.46651,3.44999-11.5,3.44999-11.5,5.46867-11.42563,5.46867-11.42564,5.72467-8.5421,5.72467-8.5421,9.5-9.92218,9.5-9.92218,7.521-5.7307c10.11807-7.70957,19.46774-13.36888,31.52424-19.08149l10.04524-4.75963,11.95476-3.98173,11.95476-3.98173,11.5-2.53951c15.2804-3.37434,29.40488-5.35814,47-6.6012l14.5-1.0244h16.5,16.5l14.5,1.02182c7.975,0.562,20.68617,1.91755,28.24705,3.01234l13.74705,1.99052,13.4064,3.37683c17.27892,4.35224,28.23432,8.33978,43.0995,15.68734l12,5.93136,9.2856,6.64203,9.2856,6.64204,8.25543,8.08797c9.49497,9.3024,15.21767,16.57734,22.48817,28.58797l5.1454,8.5,3.9541,9.50805c5.1152,12.29974,8.6804,24.66496,11.2424,38.99195l2.0565,11.5,0.5202,21.56728,0.5202,21.56729-1.1862,10.43271c-0.6524,5.738-2.085,14.93272-3.1834,20.43272l-1.9972,10-3.4263,10.28181-3.4263,10.28181-4.6076,9.21819c-2.5343,5.07001-7.1261,13.04319-10.2041,17.71819l-5.5964,8.5-11.56307,11.56842-11.56303,11.56842-10.01195,6.62623-10.01195,6.62624-11.48805,5.49359-11.48805,5.49359-12,3.96931-12,3.96931-11.5,2.53951c-13.84695,3.05779-28.34681,5.20636-44.5,6.59393l-12,1.03082-25-0.14972c-13.75-0.0824-26.575-0.30409-28.5-0.49276zm60.41033-62.22006c4.35068-1.16436,10.40827-3.26061,13.46131-4.65834l5.55099-2.54133,5.30728-4.09453,5.30727-4.09454,4.77423-7.13806,4.77423-7.13806,2.74238-8.29757,2.74237-8.29757,1.59907-9.67841,1.59908-9.67842,0.46639-41.88104,0.46639-41.88105-1.14033-12.89713-1.14034-12.89713-2.40367-9.47555-2.40367-9.47555-3.2842-6.24628-3.2842-6.24627-6.02245-6.00911-6.02246-6.00911-5.02195-2.67918-5.02196-2.67919-8.85552-2.56623-8.85552-2.56623-11.93137-1.08879-11.93137-1.08879-11.91166,1.14885-11.91165,1.14885-7.2795,2.01151-7.2795,2.0115-6.49148,3.18296-6.49149,3.18296-6.09698,6-6.09697,6-3.66229,7.5-3.66229,7.5-1.90914,7.55765c-1.05003,4.1567-2.49431,12.0317-3.20951,17.5l-1.30036,9.94235,0.0448,42,0.0448,42,1.70114,12.5,1.70113,12.5,3.24478,9.5,3.24479,9.5,3.8177,5.75146,3.8177,5.75145,4.64245,4.08645,4.64245,4.08645,8.00934,3.82892,8.00935,3.82893,7.5,1.55324c4.125,0.85429,8.625,1.75722,10,2.00651,1.375,0.2493,10.375,0.31538,20,0.14685l17.5-0.30642,7.91033-2.11701zm417.08967,61.39807c-14.0399-1.98455-27.108-5.11988-40.5-9.7169l-11.5-3.94755-10.9791-5.47462-10.9791-5.47462-9.5209-6.37036-9.5209-6.37037-7.8945-7.08942c-10.4588-9.39226-19.3993-19.58829-26.7504-30.50701l-6.0162-8.93596-4.8265-10.06404c-8.0802-16.84867-13.4438-35.50996-15.9701-55.56405l-1.0708-8.5-0.011-18.06031-0.011-18.06031,1.4966-10.66136c1.8802-13.39386,3.7686-21.66961,7.6942-33.71802l3.0953-9.5,4.7971-10,4.7971-10,6.0421-9c7.4007-11.0237,16.3048-21.20616,26.7331-30.57106l7.8945-7.08942,9.5-6.32745c12.7595-8.49841,20.4035-12.5638,33.5-17.8166,17.3729-6.96798,33.3193-11.06961,53.5-13.7609l8.5-1.13356,24.319,0.084,24.3189,0.084,13.6811,1.0545c42.7339,3.29382,81.6097,11.08694,104.7165,20.99171l4.3248,1.85382-12.5401,29.31547c-6.897,16.12351-12.8787,29.68103-13.2925,30.12784l-0.7524,0.81236-10.3095-3.58848c-20.1825-7.02509-42.1091-11.54861-65.6753-13.549l-13.0826-1.1105-10.1676,1.11881-10.1676,1.11882-7.5645,1.93468-7.5645,1.93467-7.3215,3.5215-7.3215,3.52151-6.5005,5.23663-6.5004,5.23663-5.0751,6.34763-5.0751,6.34763-4.5106,9.27203-4.5106,9.27204-2.8815,11.4097-2.8816,11.40971-1.213,10.43435-1.2131,10.43435,0.5727,20.03628,0.5727,20.03628,2.0392,9.93931c4.7197,23.00511,12.4678,39.01478,24.7145,51.06739,9.9605,9.8026,21.8693,16.22072,36.8617,19.8661l7,1.70204,10,0.83827,10,0.83828,11-0.86329c14.0559-1.1031,23.1674-2.44,37.4814-5.4995l11.4813-2.45405,13.8329-4.60305,13.8328-4.60306,0.7773,0.88578c0.4274,0.48718,6.3268,13.88456,13.1097,29.77197l12.3326,28.88618-1.8171,1.32867c-0.9994,0.73077-7.2651,3.12482-13.924,5.32012-23.8775,7.87201-44.8829,12.09127-78.1069,15.689l-14,1.51602-32.5,0.40111-32.5,0.40111-10-1.4135zm422.5,0.85431c-27.5349-2.42798-51.5444-6.35364-72.6931-11.88565l-13.1932-3.45101-10.5613-3.96701c-5.8087-2.18186-15.0936-6.23595-20.6331-9.0091l-10.0717-5.04208-7.6519-5.25718-7.6518-5.25718-7.3293-6.93158-7.3293-6.93159-5.3444-8.06841-5.3444-8.06842-2.4775-6c-1.3627-3.3-3.2812-9.15-4.2634-13l-1.7858-7-0.013-12.5-0.014-12.5,1.2257-6.5c2.7319-14.48754,8.4898-27.95726,16.5136-38.63134l4.6083-6.13037,6.3475-5.93778,6.3475-5.93779,7.2502-4.81989c3.9876-2.65095,11.5958-6.96824,16.9073-9.59399l9.6571-4.7741,10.2126-3.54066c21.4134-7.42395,50.7963-13.17442,82.2874-16.10431l16.5-1.53513,28.5-0.97859c15.675-0.53823,32.6467-0.98702,37.7148-0.99732l9.2148-0.0187,0.9119-1.75,0.9118-1.75-0.8084-14.55004-0.8085-14.55005-1.4962-6.44995c-0.8229-3.54748-2.4143-8.59149-3.5365-11.20891l-2.0403-4.75895-4.7619-5.09085-4.7619-5.09086-4.8657-2.46563c-2.6761-1.3561-8.31-3.42966-12.5198-4.60792l-7.6541-2.14229-30,0.009-30,0.009-14,1.7808-14,1.78081-13,3.32982-13,3.32982-15,6.16324c-8.25,3.38977-15.7079,6.38624-16.5731,6.6588l-1.5731,0.49557-5.8095-15.82036c-3.1953-8.7012-7.3229-19.99971-9.1725-25.1078l-3.363-9.28743,4.7456-2.04639c16.5107-7.11974,52.0643-14.62165,87.2412-18.40814l13.5044-1.45363,27.7458-1.20908,27.7458-1.20909,22.2542,1.19379,22.2542,1.19379,11.5,1.54369c23.5688,3.16373,46.817,9.53903,63.7908,17.49322l8.4871,3.9772,8.6111,5.71264,8.611,5.71264,7.5295,7.53711,7.5294,7.53711,4.7959,7.24787,4.796,7.24788,3.356,7.75212,3.356,7.75213,2.0375,8c1.1207,4.4,2.5016,11.81319,3.0687,16.47377l1.031,8.47376v105.74183,105.74183l-11.25,3.49267c-36.9445,11.4698-73.5721,19.2471-113.75,24.15302l-13.5,1.64842-35.5,0.27036c-19.525,0.14869-37.525,0.0918-40-0.12645zm64.947-61.48119,11.553-1.11198,1.2581-1.01721,1.2582-1.01722-0.2582-57.1208-0.2581-57.12081-15.5-0.31292-15.5-0.31291-14.298,1.11809c-15.997,1.25094-26.8279,2.96752-38.0933,6.03733l-7.6087,2.07336-8.1452,3.92636-8.1451,3.92636-5.5957,5.11411-5.5956,5.11412-3.6745,7.43478-3.6745,7.43478-0.4607,10.35827-0.4606,10.35827,1.6848,7.57314,1.6849,7.57315,3.1092,6.29185,3.1093,6.29186,7.0818,7.00976,7.0819,7.00976,7.5,3.64156c9.429,4.57818,18.9747,7.47477,30.5,9.25502l9,1.39019,15.447,0.0969,15.4471,0.0969,11.5529-1.11198zm-1635.697,54.36247-32.25-0.2782,0-232.86367,0-232.86367,123.25-0.74493,123.25-0.74493,35.5,0.51434,35.5,0.51434,13.17505,2.05111c31.56782,4.91453,53.79203,12.8803,73.47888,26.33687l8.65393,5.91522,7.87713,8.20652c9.81152,10.22178,13.21515,15.14684,19.36417,28.02001l4.8657,10.1865,2.48121,9.5c1.36466,5.225,3.0155,13.1,3.66853,17.5l1.18734,8-0.0193,13.5-0.0193,13.5-1.64826,9.99759-1.64825,9.99759-3.5096,10.50241-3.5096,10.50241-3.55462,6.5c-1.95504,3.575-5.77807,9.50845-8.49562,13.18544l-4.941,6.68544-8.45109,7.99965-8.45108,7.99966-8.25212,5.45634c-9.95586,6.58289-19.7294,11.58903-33.7521,17.2883l-10.5,4.26754,0.0634,2.30881,0.0634,2.30882,58.18659,104.39547c32.00265,57.41752,58.18661,104.55502,58.18661,104.75,0,0.19499-36.7875,0.31971-81.75,0.27716l-81.75-0.0774-21.22963-42.67263c-22.02318-44.26768-45.20363-88.57947-63.91112-122.1726l-10.85925-19.5h-32-32l-1.75,0.71862-1.75,0.71861v91.53139,91.53138l-40.25-0.23565c-22.1375-0.12961-54.7625-0.36085-72.5-0.51386zm138.75-250.77099c13.38473-0.81055,32.18747-3.14931,44.64159-5.55271l10.61554-2.04859,10.12144-3.31565c13.09523-4.28984,21.73317-8.24414,30.74856-14.07617l7.2746-4.70591,6.41332-6.14024,6.41332-6.14023,4.26791-6c5.62147-7.90289,9.64957-16.0946,13.03082-26.5l2.76208-8.5-0.0326-7.0387-0.0326-7.0387-1.59089-6.20985c-1.94205-7.58054-4.62783-13.06488-9.77269-19.95574l-3.91453-5.24298-7.09118-4.97994-7.09118-4.97994-7.70919-2.97298-7.70918-2.97298-10.42254-2.27342-10.42253-2.27342-48-0.0307-48-0.0307-0.25649,73.88972-0.25648,73.88973,1.18579,1.42879,1.1858,1.42879,7.07069-0.54111c3.88888-0.29762,11.34569-0.8,16.57069-1.11642z"/>
</g>
</g>
</svg>
