<svg width="22" height="22" viewBox="0 0 22 22" fill="none" xmlns="http://www.w3.org/2000/svg">
<path d="M11 22C17.0656 22 22 17.0656 22 11C22 4.93442 17.0656 0 11 0C4.93442 0 0 4.93442 0 11C0 17.0656 4.93442 22 11 22ZM11 1.375C16.3075 1.375 20.625 5.6925 20.625 11C20.625 16.3075 16.3075 20.625 11 20.625C5.6925 20.625 1.375 16.3075 1.375 11C1.375 5.6925 5.6925 1.375 11 1.375Z" fill="white"/>
<path d="M7.23797 12.9749L8.6753 12.3506L8.27197 12.7549C8.14272 12.8841 8.0703 13.0592 8.0703 13.2407V15.9311C8.0703 16.5471 8.81463 16.8459 9.24363 16.4169L10.6865 14.9741L13.8306 16.5462C14.2376 16.7497 14.7299 16.5086 14.8142 16.0539L16.6081 6.18969C16.7026 5.65894 16.1801 5.22994 15.6805 5.4261L4.02413 9.98835C3.50163 10.1919 3.43197 10.9069 3.90497 11.2084L6.59447 12.9244C6.78697 13.0473 7.02988 13.0665 7.23797 12.9749ZM15.0351 7.15677L13.6262 14.9072L10.8579 13.5239C10.5902 13.3901 10.2712 13.446 10.065 13.6532L9.4453 14.2729V13.5276L12.2017 10.7712C12.7361 10.2368 12.1348 9.35494 11.4418 9.65469L7.02622 11.5705L5.78505 10.7785L15.0351 7.15677Z" fill="white"/>
</svg>
