<svg width="26" height="26" viewBox="0 0 26 26" fill="none" xmlns="http://www.w3.org/2000/svg">
<path d="M12.6985 25.3971C19.7007 25.3971 25.3971 19.7007 25.3971 12.6985C25.3971 5.69635 19.7007 0 12.6985 0C5.69635 0 0 5.69635 0 12.6985C0 19.7007 5.69635 25.3971 12.6985 25.3971ZM12.6985 1.58732C18.8256 1.58732 23.8097 6.57149 23.8097 12.6985C23.8097 18.8256 18.8256 23.8097 12.6985 23.8097C6.57149 23.8097 1.58732 18.8256 1.58732 12.6985C1.58732 6.57149 6.57149 1.58732 12.6985 1.58732Z" fill="#2B6BA0"/>
<path d="M8.35578 14.9797L10.0151 14.2591L9.54944 14.7258C9.40024 14.875 9.31664 15.0771 9.31664 15.2866V18.3925C9.31664 19.1036 10.1759 19.4486 10.6711 18.9533L12.3368 17.2877L15.9664 19.1025C16.4363 19.3374 17.0045 19.0591 17.1019 18.5343L19.1728 7.14686C19.2818 6.53415 18.6786 6.03891 18.1019 6.26537L4.6457 11.5321C4.04252 11.767 3.96209 12.5924 4.50813 12.9406L7.61292 14.9215C7.83514 15.0633 8.11557 15.0856 8.35578 14.9797ZM17.3569 8.26327L15.7305 17.2104L12.5347 15.6136C12.2257 15.4591 11.8574 15.5237 11.6193 15.7628L10.904 16.4782V15.6178L14.086 12.4358C14.7029 11.8189 14.0087 10.8009 13.2087 11.1469L8.11134 13.3586L6.67852 12.4443L17.3569 8.26327Z" fill="#2B6BA0"/>
</svg>
