<svg width="25" height="27" viewBox="0 0 25 27" fill="none" xmlns="http://www.w3.org/2000/svg">
<path d="M11.8472 0.000589315C11.0565 0.00512085 10.2636 0.0526988 9.4638 0.150121C7.9345 0.338167 6.4188 0.650824 4.96427 1.31918C2.65107 2.38176 1.01075 4.1852 0.534972 6.80653C0.333331 7.91215 0.170206 9.03364 0.0773156 10.1619C-0.101669 12.3528 0.00934649 14.5504 0.630128 16.7096C1.1195 18.4111 2.02122 19.9404 3.60036 20.9327C4.26872 21.3518 5.15005 21.5557 5.60997 21.7687C5.73911 21.8299 5.77083 21.8661 5.77763 21.8752C5.78443 21.882 5.80255 21.8979 5.80029 22.0338C5.78443 23.4204 5.80029 26.1028 5.80029 26.1028L5.80255 26.6806H6.83794L7.0056 26.5175C7.0056 26.5175 9.63599 23.9868 10.5876 22.9446C10.7597 22.7588 10.8481 22.6546 10.8662 22.6432C10.8821 22.6319 10.8549 22.6251 11.0316 22.6206C12.28 22.5957 13.5261 22.5481 14.7722 22.4801C16.4147 22.3895 18.089 22.2332 19.6999 21.5603C21.1023 20.9735 22.2736 20.0151 22.9828 18.5787C23.7078 17.1061 24.0952 15.545 24.2402 13.9297C24.4804 11.2404 24.3965 8.54653 23.6534 5.89121C23.2161 4.33473 22.3371 3.0184 20.989 2.0895C19.3759 0.979339 17.5566 0.562464 15.7758 0.297386C14.7359 0.143324 13.6892 0.0413709 12.6379 0.00965181C12.3751 0.00285479 12.1123 -0.00167616 11.8472 0.000589315ZM12.6062 1.16965C13.6054 1.19684 14.6045 1.29426 15.6059 1.44379C17.3233 1.69981 18.9432 2.0895 20.332 3.04559C21.458 3.82043 22.1604 4.86715 22.5365 6.2016C23.2297 8.68473 23.3181 11.229 23.0847 13.8277C22.9511 15.3253 22.5954 16.7368 21.9406 18.0667C21.3629 19.2403 20.4611 19.9857 19.2513 20.4909C17.8466 21.0777 16.3196 21.234 14.711 21.3224C13.4785 21.3904 12.2437 21.4357 11.009 21.4606C10.6986 21.4674 10.395 21.5489 10.1797 21.7075C9.96451 21.8661 9.86708 22.0134 9.73341 22.1584C9.05372 22.9015 7.69888 24.2088 6.96029 24.9247C6.95575 24.0593 6.94896 23.0125 6.96029 22.0474C6.96482 21.7506 6.89685 21.447 6.72693 21.2068C6.557 20.9667 6.32365 20.8217 6.09935 20.7175C5.44458 20.4139 4.58818 20.1828 4.21661 19.9494C2.91841 19.1338 2.18208 17.9104 1.74482 16.3879C1.17161 14.3964 1.06286 12.346 1.23278 10.2593C1.32341 9.17637 1.47974 8.09114 1.67685 7.01496C2.08919 4.74707 3.38513 3.31973 5.44685 2.3727C6.74958 1.77457 8.14068 1.48004 9.60654 1.30106C10.6057 1.17871 11.6048 1.1402 12.6062 1.16965ZM12.8509 4.06059C12.3729 4.06059 11.9084 4.11496 11.4576 4.21465C11.1472 4.28715 10.9501 4.59754 11.0203 4.9102C11.0905 5.22285 11.4032 5.4177 11.7158 5.34746C12.0806 5.26364 12.4612 5.22059 12.8509 5.22059C15.6829 5.22059 17.9667 7.50434 17.9667 10.3341C17.9667 10.7261 17.9236 11.1067 17.8398 11.4737C17.7696 11.7841 17.9644 12.0968 18.2771 12.167C18.5897 12.2372 18.9001 12.0401 18.9704 11.7275C19.0723 11.2789 19.1267 10.8144 19.1267 10.3341C19.1267 6.87676 16.3105 4.06059 12.8509 4.06059ZM7.0645 5.22285C6.96935 5.21832 6.87193 5.22512 6.76997 5.24778C5.71646 5.48114 4.66974 6.24465 4.64029 7.60856C4.66974 7.79887 4.66747 8.00278 4.73771 8.17496C5.08208 9.01778 5.38115 9.88778 5.81161 10.6853C7.90732 14.5595 11.0769 17.2533 15.1165 18.9639C15.5991 19.1678 16.0976 19.2108 16.5847 19.0069C17.2553 18.7282 17.824 18.2978 18.2023 17.6793C18.7211 16.8296 18.7279 16.2406 17.8738 15.613C17.3142 15.2007 16.7636 14.777 16.1972 14.3737C15.334 13.762 14.4006 13.6555 13.7572 14.7294C13.7232 14.7838 13.6733 14.8291 13.6303 14.8744C13.2995 15.2256 12.894 15.3117 12.4635 15.135C10.83 14.4621 9.56802 13.3768 8.80677 11.7614C8.35818 10.8122 8.48052 10.3364 9.3188 9.70426C9.40263 9.64309 9.48193 9.57738 9.55896 9.50715C9.92599 9.17184 10.0234 8.77309 9.80591 8.32223C9.31427 7.29364 8.6595 6.37606 7.83029 5.58535C7.60599 5.37239 7.34997 5.23871 7.0645 5.22285ZM12.8418 5.80059C12.5858 5.80059 12.3321 5.82098 12.0829 5.86403C11.8722 5.89121 11.6932 6.03168 11.6161 6.22879C11.5391 6.42817 11.5776 6.65246 11.7136 6.81559C11.8518 6.97645 12.0693 7.05121 12.2777 7.0059C12.459 6.97645 12.6493 6.96059 12.8418 6.96059C14.7268 6.96059 16.2403 8.47403 16.2403 10.359C16.2403 10.5516 16.2244 10.7419 16.195 10.9232C16.1497 11.1316 16.2244 11.3491 16.3853 11.4873C16.5484 11.6232 16.7727 11.6618 16.9721 11.5847C17.1692 11.5077 17.3097 11.3287 17.3368 11.118C17.3799 10.8688 17.4003 10.615 17.4003 10.359C17.4003 7.84871 15.3522 5.80059 12.8418 5.80059ZM12.7603 7.54059C12.5518 7.53832 12.357 7.64707 12.2505 7.82832C12.1463 8.00957 12.1463 8.2316 12.2505 8.41285C12.357 8.5941 12.5518 8.70285 12.7603 8.70059C13.7277 8.70059 14.5003 9.47317 14.5003 10.4406C14.498 10.649 14.6068 10.8439 14.788 10.9504C14.9693 11.0546 15.1913 11.0546 15.3726 10.9504C15.5538 10.8439 15.6626 10.649 15.6603 10.4406C15.6603 8.84559 14.3553 7.54059 12.7603 7.54059Z" fill="#5C4CBB"/>
</svg>
